<svg width="113" height="60" viewBox="0 0 113 60" fill="none" xmlns="http://www.w3.org/2000/svg">
<rect width="113" height="60" fill="#FD6F1F"/>
<path d="M27.8735 28.6266V35.4066C27.8735 36.239 26.8618 36.9133 25.6135 36.9133C24.3652 36.9133 23.3535 36.239 23.3535 35.4066C23.3535 34.5742 24.3652 33.8999 25.6135 33.8999C26.8618 33.8999 27.8735 34.5742 27.8735 35.4066V28.6266V25.6133L36.9135 23.3533V26.3666V33.1466C36.9135 33.979 35.9018 34.6533 34.6535 34.6533C33.4052 34.6533 32.3935 33.979 32.3935 33.1466C32.3935 32.3142 33.4052 31.6399 34.6535 31.6399C35.9018 31.6399 36.9135 32.3142 36.9135 33.1466V26.3666L27.8735 28.6266Z" fill="#020F23"/>
<path d="M27.8735 35.4066V25.6133L36.9135 23.3533V33.1466M27.8735 35.4066C27.8735 36.239 26.8618 36.9133 25.6135 36.9133C24.3652 36.9133 23.3535 36.239 23.3535 35.4066C23.3535 34.5742 24.3652 33.8999 25.6135 33.8999C26.8618 33.8999 27.8735 34.5742 27.8735 35.4066ZM36.9135 33.1466C36.9135 33.979 35.9018 34.6533 34.6535 34.6533C33.4052 34.6533 32.3935 33.979 32.3935 33.1466C32.3935 32.3142 33.4052 31.6399 34.6535 31.6399C35.9018 31.6399 36.9135 32.3142 36.9135 33.1466ZM27.8735 28.6266L36.9135 26.3666" stroke="#020F23" stroke-width="1.00444" stroke-linecap="round" stroke-linejoin="round"/>
<path d="M45.035 33.6333V26.0538H47.5431L48.6259 29.9319C48.6701 30.0719 48.7143 30.2376 48.7585 30.4291C48.8027 30.6206 48.8469 30.8122 48.8911 31.0037C48.9427 31.1878 48.9832 31.3535 49.0126 31.5009H49.101C49.1158 31.3756 49.1415 31.2283 49.1784 31.0589C49.2152 30.8821 49.2557 30.6943 49.2999 30.4954C49.3441 30.2965 49.392 30.105 49.4435 29.9209L50.5263 26.0538H52.9902V33.6333H51.366V30.0424C51.366 29.7109 51.366 29.3795 51.366 29.048C51.3734 28.7092 51.3808 28.4145 51.3881 28.1641C51.4029 27.9137 51.4102 27.7516 51.4102 27.6779H51.3218C51.3071 27.759 51.2703 27.91 51.2114 28.131C51.1598 28.3446 51.1009 28.5729 51.0346 28.816C50.9756 29.0591 50.9204 29.269 50.8688 29.4458L49.6866 33.6333H48.2503L47.057 29.4568C47.0128 29.3021 46.9612 29.1217 46.9023 28.9154C46.8507 28.7018 46.7992 28.4845 46.7476 28.2635C46.7034 28.0352 46.6592 27.84 46.615 27.6779H46.5266C46.534 27.8768 46.5414 28.1162 46.5487 28.3961C46.5561 28.6687 46.5635 28.9523 46.5708 29.2469C46.5782 29.5342 46.5819 29.7993 46.5819 30.0424V33.6333H45.035ZM56.4162 33.7659C55.8269 33.7659 55.3592 33.6038 55.013 33.2797C54.6668 32.9556 54.4937 32.4327 54.4937 31.7108V27.8216H56.0295V31.4567C56.0295 31.6482 56.0515 31.8102 56.0957 31.9428C56.1399 32.068 56.2025 32.1712 56.2836 32.2522C56.372 32.3332 56.4788 32.3921 56.604 32.429C56.7292 32.4658 56.8692 32.4842 57.0238 32.4842C57.2522 32.4842 57.4584 32.429 57.6426 32.3185C57.8267 32.208 57.9704 32.057 58.0735 31.8655C58.1766 31.6666 58.2282 31.4456 58.2282 31.2025V27.8216H59.764V33.6333H58.5044L58.3939 32.8378H58.3166C58.1766 33.0219 58.0109 33.184 57.8194 33.3239C57.6352 33.4639 57.4253 33.5707 57.1896 33.6443C56.9539 33.7254 56.6961 33.7659 56.4162 33.7659ZM63.5271 33.7659C63.1219 33.7659 62.7573 33.7217 62.4332 33.6333C62.1091 33.5449 61.8329 33.4234 61.6046 33.2687C61.3762 33.1066 61.1994 32.9151 61.0742 32.6941C60.9564 32.4732 60.8974 32.2227 60.8974 31.9428C60.8974 31.9134 60.8974 31.8839 60.8974 31.8544C60.8974 31.825 60.9011 31.8029 60.9085 31.7881H62.389C62.389 31.8029 62.389 31.8176 62.389 31.8323C62.389 31.8471 62.389 31.8618 62.389 31.8765C62.3964 32.0607 62.4553 32.2117 62.5658 32.3295C62.6763 32.44 62.8199 32.521 62.9967 32.5726C63.1809 32.6242 63.3724 32.6499 63.5713 32.6499C63.748 32.6499 63.9175 32.6352 64.0795 32.6058C64.2489 32.5689 64.3889 32.5063 64.4994 32.4179C64.6172 32.3295 64.6762 32.2154 64.6762 32.0754C64.6762 31.8986 64.6025 31.7624 64.4552 31.6666C64.3152 31.5708 64.1274 31.4935 63.8917 31.4346C63.6633 31.3756 63.4129 31.3094 63.1404 31.2357C62.8899 31.1768 62.6395 31.1105 62.389 31.0368C62.1386 30.9558 61.9102 30.8527 61.704 30.7274C61.5051 30.6022 61.3431 30.4402 61.2179 30.2413C61.0926 30.035 61.03 29.7772 61.03 29.4679C61.03 29.1659 61.0963 28.9044 61.2289 28.6834C61.3615 28.4551 61.542 28.2672 61.7703 28.1199C62.006 27.9726 62.2785 27.8658 62.5879 27.7995C62.9046 27.7258 63.2435 27.689 63.6044 27.689C63.9432 27.689 64.26 27.7258 64.5546 27.7995C64.8493 27.8658 65.1071 27.9689 65.328 28.1089C65.549 28.2414 65.7221 28.4109 65.8473 28.6171C65.9726 28.816 66.0352 29.0406 66.0352 29.2911C66.0352 29.3426 66.0352 29.3905 66.0352 29.4347C66.0352 29.4789 66.0315 29.5084 66.0241 29.5231H64.5546V29.4347C64.5546 29.3021 64.5141 29.1916 64.4331 29.1033C64.3521 29.0075 64.2342 28.9338 64.0795 28.8823C63.9322 28.8307 63.7517 28.8049 63.5381 28.8049C63.3908 28.8049 63.2545 28.816 63.1293 28.8381C63.0115 28.8602 62.9083 28.8933 62.8199 28.9375C62.7316 28.9817 62.6616 29.037 62.61 29.1033C62.5658 29.1622 62.5437 29.2358 62.5437 29.3242C62.5437 29.4495 62.5953 29.5526 62.6984 29.6336C62.8089 29.7073 62.9525 29.7699 63.1293 29.8214C63.3061 29.873 63.5013 29.9282 63.7149 29.9872C63.9801 30.0608 64.2563 30.1345 64.5436 30.2081C64.8382 30.2744 65.1107 30.3665 65.3612 30.4844C65.6116 30.6022 65.8142 30.7716 65.9689 30.9926C66.1236 31.2062 66.2009 31.4972 66.2009 31.8655C66.2009 32.219 66.1309 32.5174 65.991 32.7604C65.8584 33.0035 65.6706 33.1987 65.4275 33.346C65.1844 33.4933 64.9008 33.6002 64.5767 33.6664C64.2526 33.7327 63.9027 33.7659 63.5271 33.7659ZM67.3131 26.9708V25.645H68.8489V26.9708H67.3131ZM67.3131 33.6333V27.8216H68.8489V33.6333H67.3131ZM72.8111 33.7659C72.1923 33.7659 71.673 33.6591 71.2532 33.4455C70.8333 33.2245 70.5129 32.8893 70.2919 32.44C70.0783 31.9833 69.9715 31.4125 69.9715 30.7274C69.9715 30.0277 70.0783 29.4568 70.2919 29.0149C70.5129 28.5655 70.8333 28.2304 71.2532 28.0094C71.6804 27.7884 72.1997 27.6779 72.8111 27.6779C73.2088 27.6779 73.5661 27.7258 73.8828 27.8216C74.2069 27.9173 74.4868 28.0647 74.7225 28.2635C74.9582 28.4624 75.135 28.7092 75.2529 29.0038C75.3781 29.2911 75.4407 29.6336 75.4407 30.0314H73.9049C73.9049 29.7662 73.8644 29.5489 73.7834 29.3795C73.7024 29.2101 73.5771 29.0812 73.4077 28.9928C73.2457 28.9044 73.0394 28.8602 72.789 28.8602C72.4943 28.8602 72.2549 28.9265 72.0708 29.0591C71.8866 29.1916 71.7504 29.3868 71.662 29.6447C71.5736 29.9025 71.5294 30.2229 71.5294 30.6059V30.86C71.5294 31.2357 71.5736 31.5524 71.662 31.8102C71.7577 32.068 71.9014 32.2632 72.0929 32.3958C72.2844 32.521 72.5349 32.5837 72.8442 32.5837C73.0947 32.5837 73.3009 32.5395 73.463 32.4511C73.6324 32.3627 73.7613 32.2301 73.8497 32.0533C73.9381 31.8765 73.9823 31.6629 73.9823 31.4125H75.4407C75.4407 31.7881 75.3781 32.1233 75.2529 32.4179C75.135 32.7126 74.9582 32.9593 74.7225 33.1582C74.4942 33.3571 74.218 33.5081 73.8939 33.6112C73.5698 33.7143 73.2088 33.7659 72.8111 33.7659ZM76.7251 33.6333V26.0538H81.0562C81.454 26.0538 81.8112 26.1311 82.128 26.2858C82.4521 26.4405 82.7062 26.6578 82.8903 26.9377C83.0745 27.2176 83.1666 27.5454 83.1666 27.921C83.1666 28.223 83.1113 28.4919 83.0008 28.7276C82.8903 28.9633 82.7393 29.1585 82.5478 29.3132C82.3637 29.4679 82.1537 29.582 81.918 29.6557V29.6999C82.1979 29.7588 82.4447 29.8693 82.6583 30.0314C82.8793 30.1934 83.0524 30.4033 83.1776 30.6611C83.3102 30.9116 83.3765 31.2099 83.3765 31.5561C83.3765 32.0128 83.2697 32.3958 83.0561 32.7052C82.8498 33.0146 82.5736 33.2466 82.2274 33.4013C81.8812 33.556 81.4945 33.6333 81.0673 33.6333H76.7251ZM78.3713 32.2853H80.7469C81.0194 32.2853 81.2404 32.208 81.4098 32.0533C81.5866 31.8986 81.675 31.6592 81.675 31.3351C81.675 31.1436 81.6381 30.9779 81.5645 30.8379C81.4908 30.698 81.3803 30.5912 81.233 30.5175C81.0857 30.4365 80.8979 30.396 80.6695 30.396H78.3713V32.2853ZM78.3713 29.1143H80.559C80.7579 29.1143 80.9236 29.0775 81.0562 29.0038C81.1962 28.9228 81.2993 28.8197 81.3656 28.6944C81.4392 28.5619 81.4761 28.4109 81.4761 28.2414C81.4761 27.9542 81.3951 27.7369 81.233 27.5896C81.0783 27.4422 80.8721 27.3686 80.6143 27.3686H78.3713V29.1143ZM87.2401 33.7659C86.6066 33.7659 86.0689 33.6591 85.6269 33.4455C85.185 33.2245 84.8498 32.8893 84.6215 32.44C84.3931 31.9833 84.279 31.4125 84.279 30.7274C84.279 30.0277 84.3931 29.4568 84.6215 29.0149C84.8498 28.5655 85.185 28.2341 85.6269 28.0205C86.0689 27.7995 86.6066 27.689 87.2401 27.689C87.8883 27.689 88.4297 27.7995 88.8642 28.0205C89.3062 28.2341 89.6413 28.5655 89.8697 29.0149C90.098 29.4568 90.2122 30.0277 90.2122 30.7274C90.2122 31.4125 90.098 31.9833 89.8697 32.44C89.6413 32.8893 89.3062 33.2245 88.8642 33.4455C88.4297 33.6591 87.8883 33.7659 87.2401 33.7659ZM87.2401 32.5726C87.5789 32.5726 87.8477 32.51 88.0466 32.3848C88.2529 32.2596 88.4039 32.068 88.4996 31.8102C88.5954 31.5524 88.6433 31.2357 88.6433 30.86V30.5949C88.6433 30.2192 88.5954 29.9025 88.4996 29.6447C88.4039 29.3868 88.2529 29.1953 88.0466 29.0701C87.8477 28.9375 87.5789 28.8712 87.2401 28.8712C86.9086 28.8712 86.6397 28.9375 86.4335 29.0701C86.2346 29.1953 86.0873 29.3868 85.9915 29.6447C85.8958 29.9025 85.8479 30.2192 85.8479 30.5949V30.86C85.8479 31.2357 85.8958 31.5524 85.9915 31.8102C86.0873 32.068 86.2346 32.2596 86.4335 32.3848C86.6397 32.51 86.9086 32.5726 87.2401 32.5726ZM90.4217 33.6333L92.532 30.617L90.5764 27.8216H92.4216L93.5264 29.5673H93.5817L94.6976 27.8216H96.4323L94.4656 30.6059L96.5428 33.6333H94.7308L93.4712 31.6555H93.416L92.1564 33.6333H90.4217Z" fill="#020F23"/>
</svg>
