<svg width="294" height="176" viewBox="0 0 294 176" fill="none"
                    xmlns="http://www.w3.org/2000/svg">
                    <path
                        d="M23.5 28V41.5C23.5 43.1575 21.4855 44.5 19 44.5C16.5145 44.5 14.5 43.1575 14.5 41.5C14.5 39.8425 16.5145 38.5 19 38.5C21.4855 38.5 23.5 39.8425 23.5 41.5V28V22L41.5 17.5V23.5V37C41.5 38.6575 39.4855 40 37 40C34.5145 40 32.5 38.6575 32.5 37C32.5 35.3425 34.5145 34 37 34C39.4855 34 41.5 35.3425 41.5 37V23.5L23.5 28Z"
                        fill="#020F23" />
                    <path
                        d="M23.5 41.5V22L41.5 17.5V37M23.5 41.5C23.5 43.1575 21.4855 44.5 19 44.5C16.5145 44.5 14.5 43.1575 14.5 41.5C14.5 39.8425 16.5145 38.5 19 38.5C21.4855 38.5 23.5 39.8425 23.5 41.5ZM41.5 37C41.5 38.6575 39.4855 40 37 40C34.5145 40 32.5 38.6575 32.5 37C32.5 35.3425 34.5145 34 37 34C39.4855 34 41.5 35.3425 41.5 37ZM23.5 28L41.5 23.5"
                        stroke="#020F23" stroke-width="2" stroke-linecap="round" stroke-linejoin="round" />
                    <path
                        d="M58.128 40V20.792H64.484L67.228 30.62C67.34 30.9747 67.452 31.3947 67.564 31.88C67.676 32.3653 67.788 32.8507 67.9 33.336C68.0307 33.8027 68.1333 34.2227 68.208 34.596H68.432C68.4693 34.2787 68.5347 33.9053 68.628 33.476C68.7213 33.028 68.824 32.552 68.936 32.048C69.048 31.544 69.1693 31.0587 69.3 30.592L72.044 20.792H78.288V40H74.172V30.9C74.172 30.06 74.172 29.22 74.172 28.38C74.1907 27.5213 74.2093 26.7747 74.228 26.14C74.2653 25.5053 74.284 25.0947 74.284 24.908H74.06C74.0227 25.1133 73.9293 25.496 73.78 26.056C73.6493 26.5973 73.5 27.176 73.332 27.792C73.1827 28.408 73.0427 28.94 72.912 29.388L69.916 40H66.276L63.252 29.416C63.14 29.024 63.0093 28.5667 62.86 28.044C62.7293 27.5027 62.5987 26.952 62.468 26.392C62.356 25.8133 62.244 25.3187 62.132 24.908H61.908C61.9267 25.412 61.9453 26.0187 61.964 26.728C61.9827 27.4187 62.0013 28.1373 62.02 28.884C62.0387 29.612 62.048 30.284 62.048 30.9V40H58.128ZM86.97 40.336C85.4766 40.336 84.2913 39.9253 83.414 39.104C82.5366 38.2827 82.098 36.9573 82.098 35.128V25.272H85.99V34.484C85.99 34.9693 86.046 35.38 86.158 35.716C86.27 36.0333 86.4286 36.2947 86.634 36.5C86.858 36.7053 87.1286 36.8547 87.446 36.948C87.7633 37.0413 88.118 37.088 88.51 37.088C89.0886 37.088 89.6113 36.948 90.078 36.668C90.5446 36.388 90.9086 36.0053 91.17 35.52C91.4313 35.016 91.562 34.456 91.562 33.84V25.272H95.454V40H92.262L91.982 37.984H91.786C91.4313 38.4507 91.0113 38.8613 90.526 39.216C90.0593 39.5707 89.5273 39.8413 88.93 40.028C88.3326 40.2333 87.6793 40.336 86.97 40.336ZM104.99 40.336C103.964 40.336 103.04 40.224 102.218 40C101.397 39.776 100.697 39.468 100.118 39.076C99.5397 38.6653 99.0917 38.18 98.7744 37.62C98.4757 37.06 98.3264 36.4253 98.3264 35.716C98.3264 35.6413 98.3264 35.5667 98.3264 35.492C98.3264 35.4173 98.3357 35.3613 98.3544 35.324H102.106C102.106 35.3613 102.106 35.3987 102.106 35.436C102.106 35.4733 102.106 35.5107 102.106 35.548C102.125 36.0147 102.274 36.3973 102.554 36.696C102.834 36.976 103.198 37.1813 103.646 37.312C104.113 37.4427 104.598 37.508 105.102 37.508C105.55 37.508 105.98 37.4707 106.39 37.396C106.82 37.3027 107.174 37.144 107.454 36.92C107.753 36.696 107.902 36.4067 107.902 36.052C107.902 35.604 107.716 35.2587 107.342 35.016C106.988 34.7733 106.512 34.5773 105.914 34.428C105.336 34.2787 104.701 34.1107 104.01 33.924C103.376 33.7747 102.741 33.6067 102.106 33.42C101.472 33.2147 100.893 32.9533 100.37 32.636C99.8664 32.3187 99.4557 31.908 99.1384 31.404C98.821 30.8813 98.6624 30.228 98.6624 29.444C98.6624 28.6787 98.8304 28.016 99.1664 27.456C99.5024 26.8773 99.9597 26.4013 100.538 26.028C101.136 25.6547 101.826 25.384 102.61 25.216C103.413 25.0293 104.272 24.936 105.186 24.936C106.045 24.936 106.848 25.0293 107.594 25.216C108.341 25.384 108.994 25.6453 109.554 26C110.114 26.336 110.553 26.7653 110.87 27.288C111.188 27.792 111.346 28.3613 111.346 28.996C111.346 29.1267 111.346 29.248 111.346 29.36C111.346 29.472 111.337 29.5467 111.318 29.584H107.594V29.36C107.594 29.024 107.492 28.744 107.286 28.52C107.081 28.2773 106.782 28.0907 106.39 27.96C106.017 27.8293 105.56 27.764 105.018 27.764C104.645 27.764 104.3 27.792 103.982 27.848C103.684 27.904 103.422 27.988 103.198 28.1C102.974 28.212 102.797 28.352 102.666 28.52C102.554 28.6693 102.498 28.856 102.498 29.08C102.498 29.3973 102.629 29.6587 102.89 29.864C103.17 30.0507 103.534 30.2093 103.982 30.34C104.43 30.4707 104.925 30.6107 105.466 30.76C106.138 30.9467 106.838 31.1333 107.566 31.32C108.313 31.488 109.004 31.7213 109.638 32.02C110.273 32.3187 110.786 32.748 111.178 33.308C111.57 33.8493 111.766 34.5867 111.766 35.52C111.766 36.416 111.589 37.172 111.234 37.788C110.898 38.404 110.422 38.8987 109.806 39.272C109.19 39.6453 108.472 39.916 107.65 40.084C106.829 40.252 105.942 40.336 104.99 40.336ZM114.585 23.116V19.756H118.477V23.116H114.585ZM114.585 40V25.272H118.477V40H114.585ZM128.518 40.336C126.95 40.336 125.634 40.0653 124.57 39.524C123.506 38.964 122.694 38.1147 122.134 36.976C121.592 35.8187 121.322 34.372 121.322 32.636C121.322 30.8627 121.592 29.416 122.134 28.296C122.694 27.1573 123.506 26.308 124.57 25.748C125.652 25.188 126.968 24.908 128.518 24.908C129.526 24.908 130.431 25.0293 131.234 25.272C132.055 25.5147 132.764 25.888 133.362 26.392C133.959 26.896 134.407 27.5213 134.706 28.268C135.023 28.996 135.182 29.864 135.182 30.872H131.29C131.29 30.2 131.187 29.6493 130.982 29.22C130.776 28.7907 130.459 28.464 130.03 28.24C129.619 28.016 129.096 27.904 128.462 27.904C127.715 27.904 127.108 28.072 126.642 28.408C126.175 28.744 125.83 29.2387 125.606 29.892C125.382 30.5453 125.27 31.3573 125.27 32.328V32.972C125.27 33.924 125.382 34.7267 125.606 35.38C125.848 36.0333 126.212 36.528 126.698 36.864C127.183 37.1813 127.818 37.34 128.602 37.34C129.236 37.34 129.759 37.228 130.17 37.004C130.599 36.78 130.926 36.444 131.15 35.996C131.374 35.548 131.486 35.0067 131.486 34.372H135.182C135.182 35.324 135.023 36.1733 134.706 36.92C134.407 37.6667 133.959 38.292 133.362 38.796C132.783 39.3 132.083 39.6827 131.262 39.944C130.44 40.2053 129.526 40.336 128.518 40.336ZM138.437 40V20.792H149.413C150.421 20.792 151.326 20.988 152.129 21.38C152.95 21.772 153.594 22.3227 154.061 23.032C154.527 23.7413 154.761 24.572 154.761 25.524C154.761 26.2893 154.621 26.9707 154.341 27.568C154.061 28.1653 153.678 28.66 153.193 29.052C152.726 29.444 152.194 29.7333 151.597 29.92V30.032C152.306 30.1813 152.931 30.4613 153.473 30.872C154.033 31.2827 154.471 31.8147 154.789 32.468C155.125 33.1027 155.293 33.8587 155.293 34.736C155.293 35.8933 155.022 36.864 154.481 37.648C153.958 38.432 153.258 39.02 152.381 39.412C151.503 39.804 150.523 40 149.441 40H138.437ZM142.609 36.584H148.629C149.319 36.584 149.879 36.388 150.309 35.996C150.757 35.604 150.981 34.9973 150.981 34.176C150.981 33.6907 150.887 33.2707 150.701 32.916C150.514 32.5613 150.234 32.2907 149.861 32.104C149.487 31.8987 149.011 31.796 148.433 31.796H142.609V36.584ZM142.609 28.548H148.153C148.657 28.548 149.077 28.4547 149.413 28.268C149.767 28.0627 150.029 27.8013 150.197 27.484C150.383 27.148 150.477 26.7653 150.477 26.336C150.477 25.608 150.271 25.0573 149.861 24.684C149.469 24.3107 148.946 24.124 148.293 24.124H142.609V28.548ZM165.084 40.336C163.478 40.336 162.116 40.0653 160.996 39.524C159.876 38.964 159.026 38.1147 158.448 36.976C157.869 35.8187 157.58 34.372 157.58 32.636C157.58 30.8627 157.869 29.416 158.448 28.296C159.026 27.1573 159.876 26.3173 160.996 25.776C162.116 25.216 163.478 24.936 165.084 24.936C166.726 24.936 168.098 25.216 169.2 25.776C170.32 26.3173 171.169 27.1573 171.748 28.296C172.326 29.416 172.616 30.8627 172.616 32.636C172.616 34.372 172.326 35.8187 171.748 36.976C171.169 38.1147 170.32 38.964 169.2 39.524C168.098 40.0653 166.726 40.336 165.084 40.336ZM165.084 37.312C165.942 37.312 166.624 37.1533 167.128 36.836C167.65 36.5187 168.033 36.0333 168.276 35.38C168.518 34.7267 168.64 33.924 168.64 32.972V32.3C168.64 31.348 168.518 30.5453 168.276 29.892C168.033 29.2387 167.65 28.7533 167.128 28.436C166.624 28.1 165.942 27.932 165.084 27.932C164.244 27.932 163.562 28.1 163.04 28.436C162.536 28.7533 162.162 29.2387 161.92 29.892C161.677 30.5453 161.556 31.348 161.556 32.3V32.972C161.556 33.924 161.677 34.7267 161.92 35.38C162.162 36.0333 162.536 36.5187 163.04 36.836C163.562 37.1533 164.244 37.312 165.084 37.312ZM173.147 40L178.495 32.356L173.539 25.272H178.215L181.015 29.696H181.155L183.983 25.272H188.379L183.395 32.328L188.659 40H184.067L180.875 34.988H180.735L177.543 40H173.147Z"
                        fill="#020F23" />
                    <path
                        d="M13.5 90.333L22.705 96.4697C23.0884 96.7255 23.5391 96.862 24 96.862C24.4609 96.862 24.9116 96.7255 25.295 96.4697L34.5 90.333M15.8333 103.166H32.1667C32.7855 103.166 33.379 102.921 33.8166 102.483C34.2542 102.045 34.5 101.452 34.5 100.833V89.1663C34.5 88.5475 34.2542 87.954 33.8166 87.5164C33.379 87.0788 32.7855 86.833 32.1667 86.833H15.8333C15.2145 86.833 14.621 87.0788 14.1834 87.5164C13.7458 87.954 13.5 88.5475 13.5 89.1663V100.833C13.5 101.452 13.7458 102.045 14.1834 102.483C14.621 102.921 15.2145 103.166 15.8333 103.166Z"
                        stroke="#020F23" stroke-width="2" stroke-linecap="round" stroke-linejoin="round" />
                    <path
                        d="M56.1157 88.25V86.094H58.0517V88.25H56.1157ZM56.1157 102V90.428H58.0517V102H56.1157ZM61.0571 102V90.428H62.6191L62.7951 92.166H62.9491C63.2571 91.6967 63.6017 91.3153 63.9831 91.022C64.3791 90.7287 64.8117 90.516 65.2811 90.384C65.7651 90.2373 66.2784 90.164 66.8211 90.164C67.5544 90.164 68.1924 90.2887 68.7351 90.538C69.2924 90.7873 69.7251 91.1907 70.0331 91.748C70.3557 92.3053 70.5171 93.0607 70.5171 94.014V102H68.5811V94.278C68.5811 93.794 68.5151 93.398 68.3831 93.09C68.2657 92.782 68.0971 92.54 67.8771 92.364C67.6717 92.188 67.4151 92.0633 67.1071 91.99C66.8137 91.9167 66.4837 91.88 66.1171 91.88C65.5744 91.88 65.0611 92.012 64.5771 92.276C64.0931 92.54 63.7044 92.9213 63.4111 93.42C63.1324 93.9187 62.9931 94.5127 62.9931 95.202V102H61.0571ZM73.9155 102V92.056H72.1995V90.428H73.9155V88.58C73.9155 88.1253 73.9815 87.7 74.1135 87.304C74.2455 86.8933 74.4949 86.5633 74.8615 86.314C75.2282 86.05 75.7415 85.918 76.4015 85.918C76.6069 85.918 76.8049 85.9327 76.9955 85.962C77.2009 85.9767 77.3915 86.006 77.5675 86.05C77.7582 86.0793 77.9269 86.116 78.0735 86.16V87.546H76.9075C76.5409 87.546 76.2695 87.6413 76.0935 87.832C75.9322 88.008 75.8515 88.2647 75.8515 88.602V90.428H78.0735V92.056H75.8515V102H73.9155ZM84.2641 102.264C83.0908 102.264 82.1008 102.051 81.2941 101.626C80.5021 101.186 79.8935 100.519 79.4681 99.624C79.0575 98.7293 78.8521 97.5927 78.8521 96.214C78.8521 94.8207 79.0575 93.684 79.4681 92.804C79.8935 91.9093 80.5021 91.2493 81.2941 90.824C82.1008 90.384 83.0908 90.164 84.2641 90.164C85.4375 90.164 86.4201 90.384 87.2121 90.824C88.0188 91.2493 88.6275 91.9093 89.0381 92.804C89.4488 93.684 89.6541 94.8207 89.6541 96.214C89.6541 97.5927 89.4488 98.7293 89.0381 99.624C88.6275 100.519 88.0188 101.186 87.2121 101.626C86.4201 102.051 85.4375 102.264 84.2641 102.264ZM84.2641 100.636C85.0121 100.636 85.6355 100.489 86.1341 100.196C86.6328 99.9027 87.0068 99.448 87.2561 98.832C87.5201 98.2013 87.6521 97.4093 87.6521 96.456V95.972C87.6521 95.004 87.5201 94.212 87.2561 93.596C87.0068 92.98 86.6328 92.5253 86.1341 92.232C85.6355 91.9387 85.0121 91.792 84.2641 91.792C83.5161 91.792 82.8855 91.9387 82.3721 92.232C81.8735 92.5253 81.4995 92.98 81.2501 93.596C81.0008 94.212 80.8761 95.004 80.8761 95.972V96.456C80.8761 97.4093 81.0008 98.2013 81.2501 98.832C81.4995 99.448 81.8735 99.9027 82.3721 100.196C82.8855 100.489 83.5161 100.636 84.2641 100.636ZM101.013 105.366C99.1063 105.366 97.449 105.043 96.041 104.398C94.6477 103.767 93.5697 102.777 92.807 101.428C92.0443 100.079 91.663 98.348 91.663 96.236C91.663 94.476 91.9343 92.9873 92.477 91.77C93.0197 90.5527 93.7603 89.57 94.699 88.822C95.6377 88.0593 96.7157 87.5093 97.933 87.172C99.165 86.82 100.463 86.644 101.827 86.644C103.22 86.644 104.504 86.8053 105.677 87.128C106.85 87.436 107.87 87.92 108.735 88.58C109.615 89.24 110.297 90.098 110.781 91.154C111.265 92.1953 111.507 93.4567 111.507 94.938C111.507 95.9353 111.404 96.8007 111.199 97.534C110.994 98.2673 110.715 98.8907 110.363 99.404C110.011 99.9027 109.615 100.313 109.175 100.636C108.75 100.944 108.31 101.171 107.855 101.318C107.4 101.45 106.968 101.516 106.557 101.516C105.956 101.516 105.486 101.435 105.149 101.274C104.826 101.113 104.592 100.907 104.445 100.658C104.298 100.409 104.218 100.167 104.203 99.932H104.071C103.822 100.269 103.514 100.563 103.147 100.812C102.78 101.047 102.37 101.23 101.915 101.362C101.46 101.479 100.962 101.538 100.419 101.538C100.038 101.538 99.649 101.494 99.253 101.406C98.857 101.303 98.4977 101.149 98.175 100.944C97.8523 100.724 97.5883 100.423 97.383 100.042C97.1923 99.6607 97.097 99.1913 97.097 98.634C97.097 97.9007 97.2657 97.3067 97.603 96.852C97.955 96.3827 98.4463 96.0233 99.077 95.774C99.7077 95.51 100.448 95.3267 101.299 95.224C102.15 95.1067 103.074 95.048 104.071 95.048V93.86C104.071 93.4787 103.998 93.1487 103.851 92.87C103.719 92.5767 103.484 92.3567 103.147 92.21C102.81 92.0487 102.318 91.968 101.673 91.968C101.072 91.968 100.595 92.0487 100.243 92.21C99.9057 92.3567 99.6637 92.5547 99.517 92.804C99.385 93.0533 99.319 93.3173 99.319 93.596V93.904H97.603C97.5883 93.8307 97.581 93.7647 97.581 93.706C97.581 93.6327 97.581 93.552 97.581 93.464C97.581 92.8187 97.757 92.2833 98.109 91.858C98.461 91.418 98.9523 91.088 99.583 90.868C100.228 90.648 100.976 90.538 101.827 90.538C102.707 90.538 103.44 90.6627 104.027 90.912C104.628 91.1467 105.076 91.4987 105.369 91.968C105.677 92.4227 105.831 92.9873 105.831 93.662V99.162C105.831 99.4993 105.912 99.7413 106.073 99.888C106.234 100.035 106.491 100.108 106.843 100.108C107.371 100.108 107.877 99.9467 108.361 99.624C108.86 99.3013 109.27 98.766 109.593 98.018C109.93 97.2553 110.099 96.2213 110.099 94.916C110.099 93.2733 109.747 91.9387 109.043 90.912C108.339 89.8853 107.364 89.13 106.117 88.646C104.885 88.162 103.448 87.92 101.805 87.92C100.03 87.92 98.483 88.228 97.163 88.844C95.8577 89.4453 94.8457 90.362 94.127 91.594C93.423 92.826 93.071 94.3807 93.071 96.258C93.071 98.854 93.7163 100.805 95.007 102.11C96.2977 103.43 98.2997 104.09 101.013 104.09C101.394 104.09 101.842 104.053 102.355 103.98C102.883 103.921 103.389 103.841 103.873 103.738C104.357 103.65 104.746 103.54 105.039 103.408V104.772C104.702 104.889 104.284 104.992 103.785 105.08C103.301 105.168 102.802 105.234 102.289 105.278C101.79 105.337 101.365 105.366 101.013 105.366ZM100.859 100.108C101.299 100.108 101.71 100.042 102.091 99.91C102.472 99.7633 102.81 99.5653 103.103 99.316C103.411 99.0667 103.646 98.766 103.807 98.414C103.983 98.062 104.071 97.666 104.071 97.226V96.39C102.986 96.39 102.054 96.456 101.277 96.588C100.514 96.7053 99.9277 96.918 99.517 97.226C99.121 97.5193 98.923 97.9447 98.923 98.502C98.923 98.8687 99.0037 99.1693 99.165 99.404C99.3263 99.6387 99.5537 99.8147 99.847 99.932C100.14 100.049 100.478 100.108 100.859 100.108ZM119.666 102.264C118.889 102.264 118.192 102.11 117.576 101.802C116.96 101.479 116.454 100.995 116.058 100.35H115.904L115.706 102H114.166V86.094H116.102V91.88H116.234C116.498 91.4693 116.806 91.1393 117.158 90.89C117.51 90.6407 117.906 90.4573 118.346 90.34C118.786 90.2227 119.256 90.164 119.754 90.164C120.649 90.164 121.434 90.3767 122.108 90.802C122.783 91.2273 123.304 91.88 123.67 92.76C124.052 93.64 124.242 94.762 124.242 96.126C124.242 97.5633 124.059 98.7367 123.692 99.646C123.326 100.541 122.805 101.201 122.13 101.626C121.456 102.051 120.634 102.264 119.666 102.264ZM119.204 100.57C119.864 100.57 120.414 100.438 120.854 100.174C121.309 99.91 121.654 99.4773 121.888 98.876C122.123 98.26 122.24 97.4533 122.24 96.456V95.994C122.24 95.026 122.13 94.2413 121.91 93.64C121.69 93.024 121.353 92.5767 120.898 92.298C120.444 92.0047 119.857 91.858 119.138 91.858C118.728 91.858 118.339 91.924 117.972 92.056C117.606 92.188 117.276 92.4153 116.982 92.738C116.704 93.0607 116.484 93.4933 116.322 94.036C116.176 94.5787 116.102 95.246 116.102 96.038V96.39C116.102 97.2993 116.205 98.062 116.41 98.678C116.63 99.294 116.968 99.7633 117.422 100.086C117.892 100.409 118.486 100.57 119.204 100.57ZM130.235 102.264C129.12 102.264 128.226 101.978 127.551 101.406C126.876 100.834 126.539 99.8367 126.539 98.414V90.428H128.475V98.15C128.475 98.634 128.534 99.03 128.651 99.338C128.768 99.646 128.937 99.888 129.157 100.064C129.377 100.24 129.634 100.365 129.927 100.438C130.235 100.511 130.565 100.548 130.917 100.548C131.474 100.548 131.988 100.416 132.457 100.152C132.926 99.888 133.308 99.5067 133.601 99.008C133.909 98.4947 134.063 97.9007 134.063 97.226V90.428H135.999V102H134.437L134.261 100.262H134.107C133.799 100.731 133.447 101.113 133.051 101.406C132.67 101.699 132.237 101.912 131.753 102.044C131.284 102.191 130.778 102.264 130.235 102.264ZM141.708 102.264C141.107 102.264 140.638 102.154 140.3 101.934C139.963 101.699 139.721 101.399 139.574 101.032C139.428 100.651 139.354 100.247 139.354 99.822V92.056H137.858V90.428H139.398L139.75 87.194H141.29V90.428H143.468V92.056H141.29V99.536C141.29 99.9027 141.356 100.181 141.488 100.372C141.62 100.548 141.87 100.636 142.236 100.636H143.468V101.912C143.322 101.985 143.146 102.044 142.94 102.088C142.735 102.132 142.522 102.169 142.302 102.198C142.097 102.242 141.899 102.264 141.708 102.264ZM148.24 102.264C147.638 102.264 147.169 102.154 146.832 101.934C146.494 101.699 146.252 101.399 146.106 101.032C145.959 100.651 145.886 100.247 145.886 99.822V92.056H144.39V90.428H145.93L146.282 87.194H147.822V90.428H150V92.056H147.822V99.536C147.822 99.9027 147.888 100.181 148.02 100.372C148.152 100.548 148.401 100.636 148.768 100.636H150V101.912C149.853 101.985 149.677 102.044 149.472 102.088C149.266 102.132 149.054 102.169 148.834 102.198C148.628 102.242 148.43 102.264 148.24 102.264ZM156.685 102.264C155.541 102.264 154.573 102.051 153.781 101.626C153.004 101.186 152.41 100.519 151.999 99.624C151.603 98.7293 151.405 97.5927 151.405 96.214C151.405 94.8207 151.603 93.684 151.999 92.804C152.41 91.9093 153.011 91.2493 153.803 90.824C154.595 90.384 155.585 90.164 156.773 90.164C157.858 90.164 158.768 90.3767 159.501 90.802C160.234 91.2127 160.784 91.836 161.151 92.672C161.532 93.4933 161.723 94.5273 161.723 95.774V96.698H153.407C153.436 97.622 153.568 98.3847 153.803 98.986C154.052 99.5727 154.419 100.005 154.903 100.284C155.387 100.548 155.996 100.68 156.729 100.68C157.228 100.68 157.66 100.621 158.027 100.504C158.408 100.372 158.724 100.189 158.973 99.954C159.237 99.7193 159.435 99.4407 159.567 99.118C159.699 98.7953 159.772 98.4433 159.787 98.062H161.679C161.664 98.678 161.547 99.25 161.327 99.778C161.107 100.291 160.784 100.731 160.359 101.098C159.934 101.465 159.413 101.751 158.797 101.956C158.181 102.161 157.477 102.264 156.685 102.264ZM153.451 95.246H159.721C159.721 94.6007 159.648 94.058 159.501 93.618C159.354 93.178 159.142 92.8187 158.863 92.54C158.599 92.2613 158.284 92.0633 157.917 91.946C157.565 91.814 157.162 91.748 156.707 91.748C156.032 91.748 155.46 91.8727 154.991 92.122C154.522 92.3713 154.162 92.7527 153.913 93.266C153.664 93.7793 153.51 94.4393 153.451 95.246ZM164.118 102V90.428H165.68L165.856 92.342H166.01C166.127 91.9753 166.288 91.6307 166.494 91.308C166.699 90.9707 166.978 90.6993 167.33 90.494C167.682 90.274 168.114 90.164 168.628 90.164C168.848 90.164 169.046 90.186 169.222 90.23C169.412 90.2593 169.552 90.296 169.64 90.34V92.122H168.914C168.415 92.122 167.982 92.21 167.616 92.386C167.264 92.5473 166.97 92.782 166.736 93.09C166.501 93.398 166.325 93.7647 166.208 94.19C166.105 94.6153 166.054 95.07 166.054 95.554V102H164.118ZM171.884 102V92.056H170.168V90.428H171.884V88.58C171.884 88.1253 171.95 87.7 172.082 87.304C172.214 86.8933 172.464 86.5633 172.83 86.314C173.197 86.05 173.71 85.918 174.37 85.918C174.576 85.918 174.774 85.9327 174.964 85.962C175.17 85.9767 175.36 86.006 175.536 86.05C175.727 86.0793 175.896 86.116 176.042 86.16V87.546H174.876C174.51 87.546 174.238 87.6413 174.062 87.832C173.901 88.008 173.82 88.2647 173.82 88.602V90.428H176.042V92.056H173.82V102H171.884ZM177.582 102V86.094H179.518V102H177.582ZM183.541 106.004C183.189 106.004 182.881 105.975 182.617 105.916C182.368 105.872 182.199 105.843 182.111 105.828V104.42H183.079C183.431 104.42 183.776 104.347 184.113 104.2C184.451 104.053 184.766 103.804 185.059 103.452C185.353 103.1 185.602 102.616 185.807 102L181.319 90.428H183.343L185.653 96.39C185.756 96.6687 185.873 97.0133 186.005 97.424C186.152 97.82 186.291 98.2307 186.423 98.656C186.57 99.0813 186.687 99.4553 186.775 99.778H186.907C186.966 99.5433 187.039 99.2793 187.127 98.986C187.215 98.6927 187.303 98.392 187.391 98.084C187.494 97.7613 187.589 97.4607 187.677 97.182C187.78 96.8887 187.861 96.632 187.919 96.412L189.877 90.428H191.835L187.919 101.67C187.699 102.301 187.457 102.88 187.193 103.408C186.929 103.951 186.636 104.413 186.313 104.794C185.991 105.175 185.602 105.469 185.147 105.674C184.693 105.894 184.157 106.004 183.541 106.004ZM197.468 102.264C196.514 102.264 195.693 102.051 195.004 101.626C194.329 101.201 193.801 100.541 193.42 99.646C193.053 98.7367 192.87 97.5633 192.87 96.126C192.87 94.762 193.06 93.64 193.442 92.76C193.823 91.88 194.351 91.2273 195.026 90.802C195.7 90.3767 196.485 90.164 197.38 90.164C197.893 90.164 198.37 90.2227 198.81 90.34C199.25 90.4573 199.638 90.6407 199.976 90.89C200.328 91.1393 200.636 91.4693 200.9 91.88H201.032V86.094H202.968V102H201.406L201.23 100.35H201.076C200.68 100.995 200.166 101.479 199.536 101.802C198.905 102.11 198.216 102.264 197.468 102.264ZM197.93 100.57C198.663 100.57 199.257 100.409 199.712 100.086C200.166 99.7633 200.496 99.294 200.702 98.678C200.922 98.062 201.032 97.2993 201.032 96.39V96.038C201.032 95.246 200.951 94.5787 200.79 94.036C200.628 93.4933 200.408 93.0607 200.13 92.738C199.851 92.4153 199.528 92.188 199.162 92.056C198.795 91.924 198.406 91.858 197.996 91.858C197.277 91.858 196.69 92.0047 196.236 92.298C195.781 92.5767 195.444 93.024 195.224 93.64C195.004 94.2413 194.894 95.026 194.894 95.994V96.456C194.894 97.4533 195.011 98.26 195.246 98.876C195.48 99.4773 195.818 99.91 196.258 100.174C196.712 100.438 197.27 100.57 197.93 100.57ZM210.632 102.264C209.488 102.264 208.52 102.051 207.728 101.626C206.951 101.186 206.357 100.519 205.946 99.624C205.55 98.7293 205.352 97.5927 205.352 96.214C205.352 94.8207 205.55 93.684 205.946 92.804C206.357 91.9093 206.958 91.2493 207.75 90.824C208.542 90.384 209.532 90.164 210.72 90.164C211.805 90.164 212.715 90.3767 213.448 90.802C214.181 91.2127 214.731 91.836 215.098 92.672C215.479 93.4933 215.67 94.5273 215.67 95.774V96.698H207.354C207.383 97.622 207.515 98.3847 207.75 98.986C207.999 99.5727 208.366 100.005 208.85 100.284C209.334 100.548 209.943 100.68 210.676 100.68C211.175 100.68 211.607 100.621 211.974 100.504C212.355 100.372 212.671 100.189 212.92 99.954C213.184 99.7193 213.382 99.4407 213.514 99.118C213.646 98.7953 213.719 98.4433 213.734 98.062H215.626C215.611 98.678 215.494 99.25 215.274 99.778C215.054 100.291 214.731 100.731 214.306 101.098C213.881 101.465 213.36 101.751 212.744 101.956C212.128 102.161 211.424 102.264 210.632 102.264ZM207.398 95.246H213.668C213.668 94.6007 213.595 94.058 213.448 93.618C213.301 93.178 213.089 92.8187 212.81 92.54C212.546 92.2613 212.231 92.0633 211.864 91.946C211.512 91.814 211.109 91.748 210.654 91.748C209.979 91.748 209.407 91.8727 208.938 92.122C208.469 92.3713 208.109 92.7527 207.86 93.266C207.611 93.7793 207.457 94.4393 207.398 95.246ZM222.113 102.264C221.321 102.264 220.624 102.183 220.023 102.022C219.422 101.861 218.923 101.626 218.527 101.318C218.131 101.01 217.83 100.643 217.625 100.218C217.42 99.7927 217.317 99.3087 217.317 98.766C217.317 98.6927 217.317 98.6267 217.317 98.568C217.317 98.4947 217.324 98.436 217.339 98.392H219.253C219.238 98.4507 219.231 98.502 219.231 98.546C219.231 98.59 219.231 98.634 219.231 98.678C219.246 99.1913 219.378 99.5947 219.627 99.888C219.891 100.181 220.25 100.387 220.705 100.504C221.16 100.621 221.666 100.68 222.223 100.68C222.707 100.68 223.154 100.621 223.565 100.504C223.976 100.372 224.298 100.181 224.533 99.932C224.782 99.668 224.907 99.338 224.907 98.942C224.907 98.458 224.746 98.0913 224.423 97.842C224.115 97.578 223.704 97.3727 223.191 97.226C222.678 97.0793 222.142 96.9253 221.585 96.764C221.116 96.632 220.646 96.4853 220.177 96.324C219.708 96.1627 219.282 95.9647 218.901 95.73C218.534 95.4953 218.234 95.1947 217.999 94.828C217.779 94.4467 217.669 93.97 217.669 93.398C217.669 92.8847 217.772 92.43 217.977 92.034C218.197 91.638 218.505 91.3007 218.901 91.022C219.297 90.7433 219.774 90.538 220.331 90.406C220.903 90.2593 221.534 90.186 222.223 90.186C222.956 90.186 223.594 90.2667 224.137 90.428C224.694 90.5893 225.156 90.8167 225.523 91.11C225.89 91.4033 226.161 91.7407 226.337 92.122C226.513 92.4887 226.601 92.8847 226.601 93.31C226.601 93.398 226.601 93.486 226.601 93.574C226.601 93.6473 226.594 93.706 226.579 93.75H224.687V93.508C224.687 93.2147 224.606 92.936 224.445 92.672C224.298 92.3933 224.034 92.1733 223.653 92.012C223.286 91.836 222.773 91.748 222.113 91.748C221.688 91.748 221.321 91.7847 221.013 91.858C220.705 91.9167 220.448 92.0193 220.243 92.166C220.038 92.298 219.884 92.4593 219.781 92.65C219.678 92.826 219.627 93.0313 219.627 93.266C219.627 93.6473 219.752 93.9407 220.001 94.146C220.25 94.3513 220.58 94.52 220.991 94.652C221.416 94.784 221.871 94.9307 222.355 95.092C222.868 95.2387 223.389 95.3927 223.917 95.554C224.46 95.7007 224.951 95.8913 225.391 96.126C225.846 96.3607 226.205 96.6833 226.469 97.094C226.748 97.49 226.887 98.018 226.887 98.678C226.887 99.294 226.77 99.8293 226.535 100.284C226.3 100.739 225.963 101.113 225.523 101.406C225.098 101.699 224.592 101.912 224.005 102.044C223.433 102.191 222.802 102.264 222.113 102.264ZM229.28 88.25V86.094H231.216V88.25H229.28ZM229.28 102V90.428H231.216V102H229.28ZM236.179 106.004C235.622 106.004 235.108 105.887 234.639 105.652C234.17 105.432 233.796 105.109 233.517 104.684C233.238 104.259 233.099 103.753 233.099 103.166C233.099 102.521 233.275 101.985 233.627 101.56C233.994 101.135 234.426 100.819 234.925 100.614C234.558 100.438 234.272 100.196 234.067 99.888C233.862 99.5653 233.759 99.2133 233.759 98.832C233.759 98.3187 233.942 97.886 234.309 97.534C234.69 97.182 235.152 96.9473 235.695 96.83C235.196 96.5073 234.8 96.0967 234.507 95.598C234.228 95.0847 234.089 94.52 234.089 93.904C234.089 93.1707 234.258 92.5253 234.595 91.968C234.947 91.4107 235.475 90.9707 236.179 90.648C236.898 90.3253 237.77 90.164 238.797 90.164C239.266 90.164 239.706 90.2007 240.117 90.274C240.528 90.3327 240.894 90.4353 241.217 90.582C241.73 90.3473 242.112 90.0467 242.361 89.68C242.625 89.3133 242.786 88.9393 242.845 88.558H244.759C244.759 88.998 244.656 89.416 244.451 89.812C244.26 90.1933 243.996 90.516 243.659 90.78C243.322 91.0293 242.911 91.198 242.427 91.286C242.794 91.638 243.065 92.034 243.241 92.474C243.432 92.914 243.527 93.3907 243.527 93.904C243.527 94.6373 243.351 95.29 242.999 95.862C242.662 96.4193 242.148 96.8593 241.459 97.182C240.77 97.5047 239.904 97.666 238.863 97.666H237.059C236.663 97.666 236.34 97.7467 236.091 97.908C235.842 98.0547 235.717 98.2967 235.717 98.634C235.717 98.9273 235.842 99.1693 236.091 99.36C236.34 99.536 236.663 99.624 237.059 99.624H241.767C242.618 99.624 243.314 99.91 243.857 100.482C244.4 101.039 244.671 101.758 244.671 102.638C244.671 103.269 244.51 103.833 244.187 104.332C243.879 104.845 243.439 105.249 242.867 105.542C242.31 105.85 241.657 106.004 240.909 106.004H236.179ZM236.729 104.53H240.887C241.224 104.53 241.532 104.457 241.811 104.31C242.09 104.178 242.31 103.987 242.471 103.738C242.632 103.489 242.713 103.217 242.713 102.924C242.713 102.425 242.566 102.029 242.273 101.736C241.98 101.443 241.613 101.296 241.173 101.296H236.729C236.26 101.296 235.864 101.457 235.541 101.78C235.218 102.088 235.057 102.469 235.057 102.924C235.057 103.408 235.218 103.797 235.541 104.09C235.864 104.383 236.26 104.53 236.729 104.53ZM238.819 96.214C239.758 96.214 240.454 96.0087 240.909 95.598C241.364 95.1873 241.591 94.6227 241.591 93.904C241.591 93.2 241.364 92.6427 240.909 92.232C240.454 91.8213 239.758 91.616 238.819 91.616C237.88 91.616 237.176 91.8213 236.707 92.232C236.252 92.6427 236.025 93.2 236.025 93.904C236.025 94.3587 236.128 94.762 236.333 95.114C236.538 95.466 236.846 95.7373 237.257 95.928C237.668 96.1187 238.188 96.214 238.819 96.214ZM246.446 102V90.428H248.008L248.184 92.166H248.338C248.646 91.6967 248.99 91.3153 249.372 91.022C249.768 90.7287 250.2 90.516 250.67 90.384C251.154 90.2373 251.667 90.164 252.21 90.164C252.943 90.164 253.581 90.2887 254.124 90.538C254.681 90.7873 255.114 91.1907 255.422 91.748C255.744 92.3053 255.906 93.0607 255.906 94.014V102H253.97V94.278C253.97 93.794 253.904 93.398 253.772 93.09C253.654 92.782 253.486 92.54 253.266 92.364C253.06 92.188 252.804 92.0633 252.496 91.99C252.202 91.9167 251.872 91.88 251.506 91.88C250.963 91.88 250.45 92.012 249.966 92.276C249.482 92.54 249.093 92.9213 248.8 93.42C248.521 93.9187 248.382 94.5127 248.382 95.202V102H246.446ZM259.282 102V99.69H261.438V102H259.282ZM264.944 102V86.094H266.88V91.88H267.034C267.327 91.484 267.657 91.1613 268.024 90.912C268.39 90.6627 268.794 90.4793 269.234 90.362C269.688 90.23 270.18 90.164 270.708 90.164C271.441 90.164 272.079 90.2887 272.622 90.538C273.179 90.7873 273.612 91.1907 273.92 91.748C274.242 92.3053 274.404 93.0607 274.404 94.014V102H272.468V94.278C272.468 93.794 272.402 93.398 272.27 93.09C272.152 92.782 271.984 92.54 271.764 92.364C271.558 92.188 271.302 92.0633 270.994 91.99C270.7 91.9167 270.37 91.88 270.004 91.88C269.461 91.88 268.948 92.012 268.464 92.276C267.98 92.5253 267.591 92.8993 267.298 93.398C267.019 93.882 266.88 94.4833 266.88 95.202V102H264.944ZM277.34 102V90.428H278.902L279.078 92.342H279.232C279.35 91.9753 279.511 91.6307 279.716 91.308C279.922 90.9707 280.2 90.6993 280.552 90.494C280.904 90.274 281.337 90.164 281.85 90.164C282.07 90.164 282.268 90.186 282.444 90.23C282.635 90.2593 282.774 90.296 282.862 90.34V92.122H282.136C281.638 92.122 281.205 92.21 280.838 92.386C280.486 92.5473 280.193 92.782 279.958 93.09C279.724 93.398 279.548 93.7647 279.43 94.19C279.328 94.6153 279.276 95.07 279.276 95.554V102H277.34Z"
                        fill="#020F23" />
                    <path
                        d="M14.1834 142.183C13.7458 142.621 13.5 143.214 13.5 143.833V145C13.5 154.665 21.3353 162.5 31 162.5H32.1667C32.7855 162.5 33.379 162.254 33.8166 161.817C34.2542 161.379 34.5 160.786 34.5 160.167V156.341C34.5001 156.096 34.423 155.857 34.2798 155.659C34.1366 155.46 33.9344 155.311 33.702 155.234L28.4602 153.486C28.1938 153.398 27.9044 153.408 27.6451 153.516C27.3858 153.623 27.174 153.821 27.0485 154.072L25.7302 156.705C22.8735 155.414 20.5855 153.126 19.2948 150.27L21.928 148.951C22.1791 148.826 22.3766 148.614 22.4842 148.355C22.5917 148.096 22.6022 147.806 22.5137 147.54L20.766 142.298C20.6887 142.066 20.5402 141.864 20.3417 141.721C20.1433 141.577 19.9048 141.5 19.66 141.5H15.8333C15.2145 141.5 14.621 141.746 14.1834 142.183Z"
                        stroke="#020F23" stroke-width="2" stroke-linecap="round" stroke-linejoin="round" />
                    <path
                        d="M56.05 159V154.226H51.672V152.554H56.05V147.758H57.7V152.554H62.056V154.226H57.7V159H56.05ZM70.086 159.264C68.9127 159.264 67.9227 159.088 67.116 158.736C66.3093 158.369 65.7007 157.856 65.29 157.196C64.8793 156.536 64.674 155.751 64.674 154.842V154.556H66.632V154.842C66.632 155.751 66.918 156.448 67.49 156.932C68.0767 157.401 68.8833 157.636 69.91 157.636C70.9367 157.636 71.7653 157.416 72.396 156.976C73.0267 156.521 73.342 155.803 73.342 154.82C73.342 154.101 73.1733 153.551 72.836 153.17C72.4987 152.789 72.0587 152.525 71.516 152.378C70.988 152.217 70.4233 152.136 69.822 152.136H68.238V150.508H69.888C70.4453 150.508 70.9587 150.42 71.428 150.244C71.8973 150.068 72.2713 149.782 72.55 149.386C72.8433 148.975 72.99 148.447 72.99 147.802C72.99 147.215 72.858 146.739 72.594 146.372C72.3447 146.005 72 145.734 71.56 145.558C71.12 145.367 70.636 145.272 70.108 145.272C69.5213 145.272 68.9933 145.375 68.524 145.58C68.0547 145.771 67.6807 146.064 67.402 146.46C67.138 146.856 67.006 147.355 67.006 147.956V148.242H65.026V147.846C65.026 147.01 65.2387 146.277 65.664 145.646C66.104 145.015 66.698 144.524 67.446 144.172C68.2087 143.82 69.0813 143.644 70.064 143.644C71.032 143.644 71.8827 143.798 72.616 144.106C73.364 144.414 73.9507 144.869 74.376 145.47C74.8013 146.071 75.014 146.812 75.014 147.692C75.014 148.337 74.8967 148.887 74.662 149.342C74.4273 149.782 74.1193 150.149 73.738 150.442C73.3567 150.735 72.946 150.977 72.506 151.168V151.256C73.3127 151.491 73.9873 151.916 74.53 152.532C75.0727 153.148 75.344 153.955 75.344 154.952C75.344 155.847 75.1167 156.617 74.662 157.262C74.222 157.907 73.5987 158.406 72.792 158.758C72 159.095 71.098 159.264 70.086 159.264ZM82.6753 159.264C81.4287 159.264 80.4167 159.066 79.6393 158.67C78.862 158.274 78.29 157.746 77.9233 157.086C77.5713 156.426 77.3953 155.693 77.3953 154.886C77.3953 154.065 77.6007 153.339 78.0113 152.708C78.422 152.077 79.0673 151.593 79.9473 151.256C79.2433 150.889 78.708 150.405 78.3413 149.804C77.9893 149.203 77.8133 148.535 77.8133 147.802C77.8133 147.025 77.9893 146.328 78.3413 145.712C78.708 145.081 79.2507 144.583 79.9693 144.216C80.7027 143.835 81.6047 143.644 82.6753 143.644C83.746 143.644 84.6407 143.835 85.3593 144.216C86.078 144.583 86.6207 145.081 86.9873 145.712C87.354 146.328 87.5373 147.025 87.5373 147.802C87.5373 148.535 87.354 149.203 86.9873 149.804C86.6207 150.405 86.0853 150.889 85.3813 151.256C86.276 151.593 86.9213 152.077 87.3173 152.708C87.728 153.339 87.9333 154.065 87.9333 154.886C87.9333 155.693 87.75 156.426 87.3833 157.086C87.0313 157.746 86.4667 158.274 85.6893 158.67C84.9267 159.066 83.922 159.264 82.6753 159.264ZM82.6753 157.658C83.746 157.658 84.5527 157.409 85.0953 156.91C85.638 156.411 85.9093 155.729 85.9093 154.864C85.9093 154.013 85.638 153.339 85.0953 152.84C84.5527 152.341 83.746 152.092 82.6753 152.092C81.6047 152.092 80.7907 152.341 80.2333 152.84C79.6907 153.339 79.4193 154.013 79.4193 154.864C79.4193 155.729 79.6907 156.411 80.2333 156.91C80.7907 157.409 81.6047 157.658 82.6753 157.658ZM82.6753 150.486C83.57 150.486 84.274 150.259 84.7873 149.804C85.3007 149.335 85.5573 148.682 85.5573 147.846C85.5573 147.025 85.3007 146.387 84.7873 145.932C84.274 145.477 83.57 145.25 82.6753 145.25C81.7807 145.25 81.0767 145.477 80.5633 145.932C80.05 146.387 79.7933 147.025 79.7933 147.846C79.7933 148.682 80.05 149.335 80.5633 149.804C81.0767 150.259 81.7807 150.486 82.6753 150.486ZM95.3741 159.264C94.3181 159.264 93.3941 159.066 92.6021 158.67C91.8101 158.274 91.1941 157.709 90.7541 156.976C90.3141 156.228 90.0941 155.341 90.0941 154.314H92.0521C92.0521 155.003 92.1988 155.597 92.4921 156.096C92.7855 156.595 93.1815 156.976 93.6801 157.24C94.1935 157.504 94.7581 157.636 95.3741 157.636C96.0048 157.636 96.5621 157.511 97.0461 157.262C97.5301 156.998 97.9041 156.602 98.1681 156.074C98.4468 155.546 98.5861 154.879 98.5861 154.072C98.5861 153.339 98.4615 152.737 98.2121 152.268C97.9628 151.784 97.6035 151.425 97.1341 151.19C96.6795 150.955 96.1515 150.838 95.5501 150.838C95.1101 150.838 94.6921 150.911 94.2961 151.058C93.9001 151.19 93.5408 151.381 93.2181 151.63C92.9101 151.879 92.6535 152.187 92.4481 152.554L90.6221 152.268L91.2601 143.908H99.8181V145.712H92.9541L92.6021 150.42C92.8515 150.2 93.1301 150.002 93.4381 149.826C93.7608 149.635 94.1275 149.489 94.5381 149.386C94.9488 149.269 95.4181 149.21 95.9461 149.21C96.8115 149.21 97.5961 149.379 98.3001 149.716C99.0041 150.053 99.5615 150.574 99.9721 151.278C100.383 151.982 100.588 152.891 100.588 154.006C100.588 155.106 100.375 156.052 99.9501 156.844C99.5395 157.636 98.9455 158.237 98.1681 158.648C97.3908 159.059 96.4595 159.264 95.3741 159.264ZM112.21 159.264C111.139 159.264 110.267 159.059 109.592 158.648C108.917 158.237 108.426 157.68 108.118 156.976C107.81 156.272 107.656 155.48 107.656 154.6H109.636C109.636 155.275 109.731 155.839 109.922 156.294C110.127 156.749 110.428 157.086 110.824 157.306C111.22 157.526 111.719 157.636 112.32 157.636C113.215 157.636 113.897 157.409 114.366 156.954C114.85 156.485 115.187 155.81 115.378 154.93C115.569 154.05 115.671 153.001 115.686 151.784C115.495 152.107 115.209 152.415 114.828 152.708C114.447 152.987 113.999 153.214 113.486 153.39C112.987 153.551 112.452 153.632 111.88 153.632C110.795 153.632 109.9 153.419 109.196 152.994C108.492 152.554 107.964 151.96 107.612 151.212C107.275 150.464 107.106 149.628 107.106 148.704C107.106 147.677 107.326 146.79 107.766 146.042C108.206 145.279 108.807 144.693 109.57 144.282C110.333 143.857 111.191 143.644 112.144 143.644C113.009 143.644 113.787 143.769 114.476 144.018C115.165 144.267 115.745 144.671 116.214 145.228C116.698 145.785 117.065 146.541 117.314 147.494C117.563 148.433 117.688 149.606 117.688 151.014C117.688 152.554 117.563 153.852 117.314 154.908C117.079 155.964 116.727 156.815 116.258 157.46C115.789 158.091 115.209 158.553 114.52 158.846C113.845 159.125 113.075 159.264 112.21 159.264ZM112.276 152.026C112.995 152.026 113.589 151.872 114.058 151.564C114.542 151.256 114.901 150.845 115.136 150.332C115.371 149.819 115.488 149.247 115.488 148.616C115.488 148 115.371 147.443 115.136 146.944C114.916 146.431 114.564 146.027 114.08 145.734C113.611 145.426 113.017 145.272 112.298 145.272C111.579 145.272 110.985 145.433 110.516 145.756C110.047 146.064 109.695 146.475 109.46 146.988C109.24 147.501 109.13 148.081 109.13 148.726C109.13 149.327 109.24 149.877 109.46 150.376C109.68 150.875 110.017 151.278 110.472 151.586C110.941 151.879 111.543 152.026 112.276 152.026ZM120.245 159V157.35H124.051V146.9H120.223V145.668C120.766 145.624 121.323 145.543 121.895 145.426C122.482 145.309 123.054 145.125 123.611 144.876C124.169 144.612 124.675 144.275 125.129 143.864H126.009V157.35H129.595V159H120.245ZM142.476 159V155.304H135.458V153.676C136.074 152.62 136.631 151.557 137.13 150.486C137.643 149.415 138.098 148.315 138.494 147.186C138.904 146.057 139.242 144.876 139.506 143.644H141.574C141.383 144.451 141.148 145.279 140.87 146.13C140.591 146.966 140.283 147.78 139.946 148.572C139.608 149.364 139.271 150.105 138.934 150.794C138.611 151.483 138.303 152.077 138.01 152.576C137.731 153.075 137.504 153.441 137.328 153.676H142.476V148.88C142.564 148.645 142.652 148.403 142.74 148.154C142.842 147.89 142.938 147.626 143.026 147.362C143.114 147.083 143.194 146.827 143.268 146.592C143.341 146.343 143.4 146.108 143.444 145.888H144.412V153.676H146.414V155.304H144.412V159H142.476ZM150.235 159C150.235 157.636 150.411 156.323 150.763 155.062C151.115 153.801 151.57 152.605 152.127 151.476C152.699 150.347 153.322 149.298 153.997 148.33C154.672 147.362 155.332 146.489 155.977 145.712H147.903V143.908H158.529V145.118C157.986 145.749 157.422 146.453 156.835 147.23C156.263 147.993 155.713 148.807 155.185 149.672C154.657 150.523 154.18 151.41 153.755 152.334C153.33 153.258 152.992 154.197 152.743 155.15C152.494 156.089 152.369 157.027 152.369 157.966V159H150.235ZM162.18 159C162.18 157.636 162.356 156.323 162.708 155.062C163.06 153.801 163.515 152.605 164.072 151.476C164.644 150.347 165.268 149.298 165.942 148.33C166.617 147.362 167.277 146.489 167.922 145.712H159.848V143.908H170.474V145.118C169.932 145.749 169.367 146.453 168.78 147.23C168.208 147.993 167.658 148.807 167.13 149.672C166.602 150.523 166.126 151.41 165.7 152.334C165.275 153.258 164.938 154.197 164.688 155.15C164.439 156.089 164.314 157.027 164.314 157.966V159H162.18ZM174.126 159C174.126 157.636 174.302 156.323 174.654 155.062C175.006 153.801 175.46 152.605 176.018 151.476C176.59 150.347 177.213 149.298 177.888 148.33C178.562 147.362 179.222 146.489 179.868 145.712H171.794V143.908H182.42V145.118C181.877 145.749 181.312 146.453 180.726 147.23C180.154 147.993 179.604 148.807 179.076 149.672C178.548 150.523 178.071 151.41 177.646 152.334C177.22 153.258 176.883 154.197 176.634 155.15C176.384 156.089 176.26 157.027 176.26 157.966V159H174.126ZM189.41 159.264C188.588 159.264 187.855 159.147 187.21 158.912C186.564 158.663 186.014 158.245 185.56 157.658C185.105 157.057 184.76 156.257 184.526 155.26C184.291 154.248 184.174 152.979 184.174 151.454C184.174 149.929 184.291 148.667 184.526 147.67C184.76 146.658 185.105 145.859 185.56 145.272C186.014 144.671 186.564 144.253 187.21 144.018C187.855 143.769 188.588 143.644 189.41 143.644C190.231 143.644 190.957 143.769 191.588 144.018C192.233 144.253 192.783 144.671 193.238 145.272C193.692 145.859 194.037 146.658 194.272 147.67C194.506 148.667 194.624 149.929 194.624 151.454C194.624 152.979 194.506 154.248 194.272 155.26C194.037 156.257 193.692 157.057 193.238 157.658C192.783 158.245 192.233 158.663 191.588 158.912C190.957 159.147 190.231 159.264 189.41 159.264ZM189.41 157.636C190.246 157.636 190.891 157.423 191.346 156.998C191.815 156.573 192.138 155.942 192.314 155.106C192.504 154.27 192.6 153.229 192.6 151.982V150.97C192.6 149.709 192.504 148.66 192.314 147.824C192.138 146.973 191.815 146.335 191.346 145.91C190.891 145.485 190.246 145.272 189.41 145.272C188.574 145.272 187.921 145.485 187.452 145.91C186.982 146.335 186.652 146.966 186.462 147.802C186.286 148.638 186.198 149.687 186.198 150.948V151.938C186.198 153.185 186.286 154.233 186.462 155.084C186.652 155.935 186.982 156.573 187.452 156.998C187.921 157.423 188.574 157.636 189.41 157.636ZM196.807 159V158.362C196.807 157.746 196.924 157.181 197.159 156.668C197.408 156.14 197.731 155.663 198.127 155.238C198.538 154.798 199 154.38 199.513 153.984C200.026 153.588 200.547 153.199 201.075 152.818C201.794 152.319 202.454 151.821 203.055 151.322C203.671 150.823 204.162 150.288 204.529 149.716C204.896 149.129 205.079 148.477 205.079 147.758C205.079 147.303 204.969 146.893 204.749 146.526C204.544 146.145 204.228 145.844 203.803 145.624C203.378 145.404 202.835 145.294 202.175 145.294C201.398 145.294 200.774 145.426 200.305 145.69C199.836 145.954 199.491 146.306 199.271 146.746C199.066 147.186 198.963 147.67 198.963 148.198V149.1H197.049C197.034 149.027 197.02 148.917 197.005 148.77C196.99 148.609 196.983 148.425 196.983 148.22C196.983 147.135 197.225 146.262 197.709 145.602C198.193 144.927 198.838 144.436 199.645 144.128C200.452 143.805 201.324 143.644 202.263 143.644C203.099 143.644 203.818 143.761 204.419 143.996C205.02 144.216 205.519 144.524 205.915 144.92C206.311 145.316 206.604 145.771 206.795 146.284C206.986 146.783 207.081 147.311 207.081 147.868C207.081 148.557 206.956 149.188 206.707 149.76C206.472 150.332 206.135 150.867 205.695 151.366C205.27 151.85 204.764 152.319 204.177 152.774C203.605 153.229 202.982 153.691 202.307 154.16C201.838 154.468 201.376 154.798 200.921 155.15C200.466 155.487 200.078 155.832 199.755 156.184C199.432 156.536 199.227 156.873 199.139 157.196H207.169V159H196.807ZM214.503 159.264C213.682 159.264 212.949 159.147 212.303 158.912C211.658 158.663 211.108 158.245 210.653 157.658C210.199 157.057 209.854 156.257 209.619 155.26C209.385 154.248 209.267 152.979 209.267 151.454C209.267 149.929 209.385 148.667 209.619 147.67C209.854 146.658 210.199 145.859 210.653 145.272C211.108 144.671 211.658 144.253 212.303 144.018C212.949 143.769 213.682 143.644 214.503 143.644C215.325 143.644 216.051 143.769 216.681 144.018C217.327 144.253 217.877 144.671 218.331 145.272C218.786 145.859 219.131 146.658 219.365 147.67C219.6 148.667 219.717 149.929 219.717 151.454C219.717 152.979 219.6 154.248 219.365 155.26C219.131 156.257 218.786 157.057 218.331 157.658C217.877 158.245 217.327 158.663 216.681 158.912C216.051 159.147 215.325 159.264 214.503 159.264ZM214.503 157.636C215.339 157.636 215.985 157.423 216.439 156.998C216.909 156.573 217.231 155.942 217.407 155.106C217.598 154.27 217.693 153.229 217.693 151.982V150.97C217.693 149.709 217.598 148.66 217.407 147.824C217.231 146.973 216.909 146.335 216.439 145.91C215.985 145.485 215.339 145.272 214.503 145.272C213.667 145.272 213.015 145.485 212.545 145.91C212.076 146.335 211.746 146.966 211.555 147.802C211.379 148.638 211.291 149.687 211.291 150.948V151.938C211.291 153.185 211.379 154.233 211.555 155.084C211.746 155.935 212.076 156.573 212.545 156.998C213.015 157.423 213.667 157.636 214.503 157.636Z"
                        fill="#020F23" />
                </svg>

