<svg width="206" height="62" viewBox="0 0 206 62" fill="none" xmlns="http://www.w3.org/2000/svg">
<path d="M23.5 28V41.5C23.5 43.1575 21.4855 44.5 19 44.5C16.5145 44.5 14.5 43.1575 14.5 41.5C14.5 39.8425 16.5145 38.5 19 38.5C21.4855 38.5 23.5 39.8425 23.5 41.5V28V22L41.5 17.5V23.5V37C41.5 38.6575 39.4855 40 37 40C34.5145 40 32.5 38.6575 32.5 37C32.5 35.3425 34.5145 34 37 34C39.4855 34 41.5 35.3425 41.5 37V23.5L23.5 28Z" fill="#020F23"/>
<path d="M23.5 41.5V22L41.5 17.5V37M23.5 41.5C23.5 43.1575 21.4855 44.5 19 44.5C16.5145 44.5 14.5 43.1575 14.5 41.5C14.5 39.8425 16.5145 38.5 19 38.5C21.4855 38.5 23.5 39.8425 23.5 41.5ZM41.5 37C41.5 38.6575 39.4855 40 37 40C34.5145 40 32.5 38.6575 32.5 37C32.5 35.3425 34.5145 34 37 34C39.4855 34 41.5 35.3425 41.5 37ZM23.5 28L41.5 23.5" stroke="#020F23" stroke-width="2" stroke-linecap="round" stroke-linejoin="round"/>
<path d="M56.168 40L63.56 20.792H68.712L76.104 40H71.596L70.224 36.22H61.852L60.48 40H56.168ZM63.056 32.86H69.02L67.312 28.128C67.2373 27.9227 67.144 27.68 67.032 27.4C66.9387 27.1013 66.836 26.7747 66.724 26.42C66.612 26.0653 66.5 25.72 66.388 25.384C66.2947 25.0293 66.2013 24.712 66.108 24.432H65.94C65.8467 24.7867 65.7253 25.2067 65.576 25.692C65.4267 26.1587 65.2773 26.616 65.128 27.064C64.9787 27.4933 64.8573 27.848 64.764 28.128L63.056 32.86ZM78.0537 23.116V19.756H81.9457V23.116H78.0537ZM78.0537 40V25.272H81.9457V40H78.0537ZM85.5186 40V25.272H88.7386L89.0466 27.568H89.2426C89.4292 27.0827 89.6719 26.644 89.9706 26.252C90.2692 25.8413 90.6426 25.5147 91.0906 25.272C91.5386 25.0293 92.0612 24.908 92.6586 24.908C92.9759 24.908 93.2652 24.9453 93.5266 25.02C93.7879 25.076 93.9839 25.132 94.1146 25.188V28.716H92.9106C92.3319 28.716 91.8186 28.8 91.3706 28.968C90.9412 29.1173 90.5772 29.36 90.2786 29.696C89.9799 30.032 89.7559 30.4427 89.6066 30.928C89.4759 31.4133 89.4106 31.9827 89.4106 32.636V40H85.5186ZM96.4913 40V20.792H102.847L105.591 30.62C105.703 30.9747 105.815 31.3947 105.927 31.88C106.039 32.3653 106.151 32.8507 106.263 33.336C106.394 33.8027 106.497 34.2227 106.571 34.596H106.795C106.833 34.2787 106.898 33.9053 106.991 33.476C107.085 33.028 107.187 32.552 107.299 32.048C107.411 31.544 107.533 31.0587 107.663 30.592L110.407 20.792H116.651V40H112.535V30.9C112.535 30.06 112.535 29.22 112.535 28.38C112.554 27.5213 112.573 26.7747 112.591 26.14C112.629 25.5053 112.647 25.0947 112.647 24.908H112.423C112.386 25.1133 112.293 25.496 112.143 26.056C112.013 26.5973 111.863 27.176 111.695 27.792C111.546 28.408 111.406 28.94 111.275 29.388L108.279 40H104.639L101.615 29.416C101.503 29.024 101.373 28.5667 101.223 28.044C101.093 27.5027 100.962 26.952 100.831 26.392C100.719 25.8133 100.607 25.3187 100.495 24.908H100.271C100.29 25.412 100.309 26.0187 100.327 26.728C100.346 27.4187 100.365 28.1373 100.383 28.884C100.402 29.612 100.411 30.284 100.411 30.9V40H96.4913ZM125.333 40.336C123.84 40.336 122.655 39.9253 121.777 39.104C120.9 38.2827 120.461 36.9573 120.461 35.128V25.272H124.353V34.484C124.353 34.9693 124.409 35.38 124.521 35.716C124.633 36.0333 124.792 36.2947 124.997 36.5C125.221 36.7053 125.492 36.8547 125.809 36.948C126.127 37.0413 126.481 37.088 126.873 37.088C127.452 37.088 127.975 36.948 128.441 36.668C128.908 36.388 129.272 36.0053 129.533 35.52C129.795 35.016 129.925 34.456 129.925 33.84V25.272H133.817V40H130.625L130.345 37.984H130.149C129.795 38.4507 129.375 38.8613 128.889 39.216C128.423 39.5707 127.891 39.8413 127.293 40.028C126.696 40.2333 126.043 40.336 125.333 40.336ZM143.354 40.336C142.327 40.336 141.403 40.224 140.582 40C139.76 39.776 139.06 39.468 138.482 39.076C137.903 38.6653 137.455 38.18 137.138 37.62C136.839 37.06 136.69 36.4253 136.69 35.716C136.69 35.6413 136.69 35.5667 136.69 35.492C136.69 35.4173 136.699 35.3613 136.718 35.324H140.47C140.47 35.3613 140.47 35.3987 140.47 35.436C140.47 35.4733 140.47 35.5107 140.47 35.548C140.488 36.0147 140.638 36.3973 140.918 36.696C141.198 36.976 141.562 37.1813 142.01 37.312C142.476 37.4427 142.962 37.508 143.466 37.508C143.914 37.508 144.343 37.4707 144.754 37.396C145.183 37.3027 145.538 37.144 145.818 36.92C146.116 36.696 146.266 36.4067 146.266 36.052C146.266 35.604 146.079 35.2587 145.706 35.016C145.351 34.7733 144.875 34.5773 144.278 34.428C143.699 34.2787 143.064 34.1107 142.374 33.924C141.739 33.7747 141.104 33.6067 140.47 33.42C139.835 33.2147 139.256 32.9533 138.734 32.636C138.23 32.3187 137.819 31.908 137.502 31.404C137.184 30.8813 137.026 30.228 137.026 29.444C137.026 28.6787 137.194 28.016 137.53 27.456C137.866 26.8773 138.323 26.4013 138.902 26.028C139.499 25.6547 140.19 25.384 140.974 25.216C141.776 25.0293 142.635 24.936 143.55 24.936C144.408 24.936 145.211 25.0293 145.958 25.216C146.704 25.384 147.358 25.6453 147.918 26C148.478 26.336 148.916 26.7653 149.234 27.288C149.551 27.792 149.71 28.3613 149.71 28.996C149.71 29.1267 149.71 29.248 149.71 29.36C149.71 29.472 149.7 29.5467 149.682 29.584H145.958V29.36C145.958 29.024 145.855 28.744 145.65 28.52C145.444 28.2773 145.146 28.0907 144.754 27.96C144.38 27.8293 143.923 27.764 143.382 27.764C143.008 27.764 142.663 27.792 142.346 27.848C142.047 27.904 141.786 27.988 141.562 28.1C141.338 28.212 141.16 28.352 141.03 28.52C140.918 28.6693 140.862 28.856 140.862 29.08C140.862 29.3973 140.992 29.6587 141.254 29.864C141.534 30.0507 141.898 30.2093 142.346 30.34C142.794 30.4707 143.288 30.6107 143.83 30.76C144.502 30.9467 145.202 31.1333 145.93 31.32C146.676 31.488 147.367 31.7213 148.002 32.02C148.636 32.3187 149.15 32.748 149.542 33.308C149.934 33.8493 150.13 34.5867 150.13 35.52C150.13 36.416 149.952 37.172 149.598 37.788C149.262 38.404 148.786 38.8987 148.17 39.272C147.554 39.6453 146.835 39.916 146.014 40.084C145.192 40.252 144.306 40.336 143.354 40.336ZM152.948 23.116V19.756H156.84V23.116H152.948ZM152.948 40V25.272H156.84V40H152.948ZM166.881 40.336C165.313 40.336 163.997 40.0653 162.933 39.524C161.869 38.964 161.057 38.1147 160.497 36.976C159.956 35.8187 159.685 34.372 159.685 32.636C159.685 30.8627 159.956 29.416 160.497 28.296C161.057 27.1573 161.869 26.308 162.933 25.748C164.016 25.188 165.332 24.908 166.881 24.908C167.889 24.908 168.794 25.0293 169.597 25.272C170.418 25.5147 171.128 25.888 171.725 26.392C172.322 26.896 172.77 27.5213 173.069 28.268C173.386 28.996 173.545 29.864 173.545 30.872H169.653C169.653 30.2 169.55 29.6493 169.345 29.22C169.14 28.7907 168.822 28.464 168.393 28.24C167.982 28.016 167.46 27.904 166.825 27.904C166.078 27.904 165.472 28.072 165.005 28.408C164.538 28.744 164.193 29.2387 163.969 29.892C163.745 30.5453 163.633 31.3573 163.633 32.328V32.972C163.633 33.924 163.745 34.7267 163.969 35.38C164.212 36.0333 164.576 36.528 165.061 36.864C165.546 37.1813 166.181 37.34 166.965 37.34C167.6 37.34 168.122 37.228 168.533 37.004C168.962 36.78 169.289 36.444 169.513 35.996C169.737 35.548 169.849 35.0067 169.849 34.372H173.545C173.545 35.324 173.386 36.1733 173.069 36.92C172.77 37.6667 172.322 38.292 171.725 38.796C171.146 39.3 170.446 39.6827 169.625 39.944C168.804 40.2053 167.889 40.336 166.881 40.336Z" fill="#020F23"/>
</svg>
