<svg width="225" height="120" viewBox="0 0 225 120" fill="none" xmlns="http://www.w3.org/2000/svg">
<rect width="225" height="120" fill="#FD6F1F"/>
<path d="M55.5 57V70.5C55.5 72.1575 53.4855 73.5 51 73.5C48.5145 73.5 46.5 72.1575 46.5 70.5C46.5 68.8425 48.5145 67.5 51 67.5C53.4855 67.5 55.5 68.8425 55.5 70.5V57V51L73.5 46.5V52.5V66C73.5 67.6575 71.4855 69 69 69C66.5145 69 64.5 67.6575 64.5 66C64.5 64.3425 66.5145 63 69 63C71.4855 63 73.5 64.3425 73.5 66V52.5L55.5 57Z" fill="#020F23"/>
<path d="M55.5 70.5V51L73.5 46.5V66M55.5 70.5C55.5 72.1575 53.4855 73.5 51 73.5C48.5145 73.5 46.5 72.1575 46.5 70.5C46.5 68.8425 48.5145 67.5 51 67.5C53.4855 67.5 55.5 68.8425 55.5 70.5ZM73.5 66C73.5 67.6575 71.4855 69 69 69C66.5145 69 64.5 67.6575 64.5 66C64.5 64.3425 66.5145 63 69 63C71.4855 63 73.5 64.3425 73.5 66ZM55.5 57L73.5 52.5" stroke="#020F23" stroke-width="2" stroke-linecap="round" stroke-linejoin="round"/>
<path d="M89.672 67.5V52.408H94.666L96.822 60.13C96.91 60.4087 96.998 60.7387 97.086 61.12C97.174 61.5013 97.262 61.8827 97.35 62.264C97.4527 62.6307 97.5333 62.9607 97.592 63.254H97.768C97.7973 63.0047 97.8487 62.7113 97.922 62.374C97.9953 62.022 98.076 61.648 98.164 61.252C98.252 60.856 98.3473 60.4747 98.45 60.108L100.606 52.408H105.512V67.5H102.278V60.35C102.278 59.69 102.278 59.03 102.278 58.37C102.293 57.6953 102.307 57.1087 102.322 56.61C102.351 56.1113 102.366 55.7887 102.366 55.642H102.19C102.161 55.8033 102.087 56.104 101.97 56.544C101.867 56.9693 101.75 57.424 101.618 57.908C101.501 58.392 101.391 58.81 101.288 59.162L98.934 67.5H96.074L93.698 59.184C93.61 58.876 93.5073 58.5167 93.39 58.106C93.2873 57.6807 93.1847 57.248 93.082 56.808C92.994 56.3533 92.906 55.9647 92.818 55.642H92.642C92.6567 56.038 92.6713 56.5147 92.686 57.072C92.7007 57.6147 92.7153 58.1793 92.73 58.766C92.7447 59.338 92.752 59.866 92.752 60.35V67.5H89.672ZM112.334 67.764C111.16 67.764 110.229 67.4413 109.54 66.796C108.85 66.1507 108.506 65.1093 108.506 63.672V55.928H111.564V63.166C111.564 63.5473 111.608 63.87 111.696 64.134C111.784 64.3833 111.908 64.5887 112.07 64.75C112.246 64.9113 112.458 65.0287 112.708 65.102C112.957 65.1753 113.236 65.212 113.544 65.212C113.998 65.212 114.409 65.102 114.776 64.882C115.142 64.662 115.428 64.3613 115.634 63.98C115.839 63.584 115.942 63.144 115.942 62.66V55.928H119V67.5H116.492L116.272 65.916H116.118C115.839 66.2827 115.509 66.6053 115.128 66.884C114.761 67.1627 114.343 67.3753 113.874 67.522C113.404 67.6833 112.891 67.764 112.334 67.764ZM126.492 67.764C125.686 67.764 124.96 67.676 124.314 67.5C123.669 67.324 123.119 67.082 122.664 66.774C122.21 66.4513 121.858 66.07 121.608 65.63C121.374 65.19 121.256 64.6913 121.256 64.134C121.256 64.0753 121.256 64.0167 121.256 63.958C121.256 63.8993 121.264 63.8553 121.278 63.826H124.226C124.226 63.8553 124.226 63.8847 124.226 63.914C124.226 63.9433 124.226 63.9727 124.226 64.002C124.241 64.3687 124.358 64.6693 124.578 64.904C124.798 65.124 125.084 65.2853 125.436 65.388C125.803 65.4907 126.184 65.542 126.58 65.542C126.932 65.542 127.27 65.5127 127.592 65.454C127.93 65.3807 128.208 65.256 128.428 65.08C128.663 64.904 128.78 64.6767 128.78 64.398C128.78 64.046 128.634 63.7747 128.34 63.584C128.062 63.3933 127.688 63.2393 127.218 63.122C126.764 63.0047 126.265 62.8727 125.722 62.726C125.224 62.6087 124.725 62.4767 124.226 62.33C123.728 62.1687 123.273 61.9633 122.862 61.714C122.466 61.4647 122.144 61.142 121.894 60.746C121.645 60.3353 121.52 59.822 121.52 59.206C121.52 58.6047 121.652 58.084 121.916 57.644C122.18 57.1893 122.54 56.8153 122.994 56.522C123.464 56.2287 124.006 56.016 124.622 55.884C125.253 55.7373 125.928 55.664 126.646 55.664C127.321 55.664 127.952 55.7373 128.538 55.884C129.125 56.016 129.638 56.2213 130.078 56.5C130.518 56.764 130.863 57.1013 131.112 57.512C131.362 57.908 131.486 58.3553 131.486 58.854C131.486 58.9567 131.486 59.052 131.486 59.14C131.486 59.228 131.479 59.2867 131.464 59.316H128.538V59.14C128.538 58.876 128.458 58.656 128.296 58.48C128.135 58.2893 127.9 58.1427 127.592 58.04C127.299 57.9373 126.94 57.886 126.514 57.886C126.221 57.886 125.95 57.908 125.7 57.952C125.466 57.996 125.26 58.062 125.084 58.15C124.908 58.238 124.769 58.348 124.666 58.48C124.578 58.5973 124.534 58.744 124.534 58.92C124.534 59.1693 124.637 59.3747 124.842 59.536C125.062 59.6827 125.348 59.8073 125.7 59.91C126.052 60.0127 126.441 60.1227 126.866 60.24C127.394 60.3867 127.944 60.5333 128.516 60.68C129.103 60.812 129.646 60.9953 130.144 61.23C130.643 61.4647 131.046 61.802 131.354 62.242C131.662 62.6673 131.816 63.2467 131.816 63.98C131.816 64.684 131.677 65.278 131.398 65.762C131.134 66.246 130.76 66.6347 130.276 66.928C129.792 67.2213 129.228 67.434 128.582 67.566C127.937 67.698 127.24 67.764 126.492 67.764ZM134.031 54.234V51.594H137.089V54.234H134.031ZM134.031 67.5V55.928H137.089V67.5H134.031ZM144.978 67.764C143.746 67.764 142.712 67.5513 141.876 67.126C141.04 66.686 140.402 66.0187 139.962 65.124C139.537 64.2147 139.324 63.078 139.324 61.714C139.324 60.3207 139.537 59.184 139.962 58.304C140.402 57.4093 141.04 56.742 141.876 56.302C142.727 55.862 143.761 55.642 144.978 55.642C145.77 55.642 146.482 55.7373 147.112 55.928C147.758 56.1187 148.315 56.412 148.784 56.808C149.254 57.204 149.606 57.6953 149.84 58.282C150.09 58.854 150.214 59.536 150.214 60.328H147.156C147.156 59.8 147.076 59.3673 146.914 59.03C146.753 58.6927 146.504 58.436 146.166 58.26C145.844 58.084 145.433 57.996 144.934 57.996C144.348 57.996 143.871 58.128 143.504 58.392C143.138 58.656 142.866 59.0447 142.69 59.558C142.514 60.0713 142.426 60.7093 142.426 61.472V61.978C142.426 62.726 142.514 63.3567 142.69 63.87C142.881 64.3833 143.167 64.772 143.548 65.036C143.93 65.2853 144.428 65.41 145.044 65.41C145.543 65.41 145.954 65.322 146.276 65.146C146.614 64.97 146.87 64.706 147.046 64.354C147.222 64.002 147.31 63.5767 147.31 63.078H150.214C150.214 63.826 150.09 64.4933 149.84 65.08C149.606 65.6667 149.254 66.158 148.784 66.554C148.33 66.95 147.78 67.2507 147.134 67.456C146.489 67.6613 145.77 67.764 144.978 67.764ZM152.772 67.5V52.408H161.396C162.188 52.408 162.899 52.562 163.53 52.87C164.175 53.178 164.681 53.6107 165.048 54.168C165.414 54.7253 165.598 55.378 165.598 56.126C165.598 56.7273 165.488 57.2627 165.268 57.732C165.048 58.2013 164.747 58.59 164.366 58.898C163.999 59.206 163.581 59.4333 163.112 59.58V59.668C163.669 59.7853 164.16 60.0053 164.586 60.328C165.026 60.6507 165.37 61.0687 165.62 61.582C165.884 62.0807 166.016 62.6747 166.016 63.364C166.016 64.2733 165.803 65.036 165.378 65.652C164.967 66.268 164.417 66.73 163.728 67.038C163.038 67.346 162.268 67.5 161.418 67.5H152.772ZM156.05 64.816H160.78C161.322 64.816 161.762 64.662 162.1 64.354C162.452 64.046 162.628 63.5693 162.628 62.924C162.628 62.5427 162.554 62.2127 162.408 61.934C162.261 61.6553 162.041 61.4427 161.748 61.296C161.454 61.1347 161.08 61.054 160.626 61.054H156.05V64.816ZM156.05 58.502H160.406C160.802 58.502 161.132 58.4287 161.396 58.282C161.674 58.1207 161.88 57.9153 162.012 57.666C162.158 57.402 162.232 57.1013 162.232 56.764C162.232 56.192 162.07 55.7593 161.748 55.466C161.44 55.1727 161.029 55.026 160.516 55.026H156.05V58.502ZM173.709 67.764C172.447 67.764 171.377 67.5513 170.497 67.126C169.617 66.686 168.949 66.0187 168.495 65.124C168.04 64.2147 167.813 63.078 167.813 61.714C167.813 60.3207 168.04 59.184 168.495 58.304C168.949 57.4093 169.617 56.7493 170.497 56.324C171.377 55.884 172.447 55.664 173.709 55.664C174.999 55.664 176.077 55.884 176.943 56.324C177.823 56.7493 178.49 57.4093 178.945 58.304C179.399 59.184 179.627 60.3207 179.627 61.714C179.627 63.078 179.399 64.2147 178.945 65.124C178.49 66.0187 177.823 66.686 176.943 67.126C176.077 67.5513 174.999 67.764 173.709 67.764ZM173.709 65.388C174.383 65.388 174.919 65.2633 175.315 65.014C175.725 64.7647 176.026 64.3833 176.217 63.87C176.407 63.3567 176.503 62.726 176.503 61.978V61.45C176.503 60.702 176.407 60.0713 176.217 59.558C176.026 59.0447 175.725 58.6633 175.315 58.414C174.919 58.15 174.383 58.018 173.709 58.018C173.049 58.018 172.513 58.15 172.103 58.414C171.707 58.6633 171.413 59.0447 171.223 59.558C171.032 60.0713 170.937 60.702 170.937 61.45V61.978C170.937 62.726 171.032 63.3567 171.223 63.87C171.413 64.3833 171.707 64.7647 172.103 65.014C172.513 65.2633 173.049 65.388 173.709 65.388ZM180.044 67.5L184.246 61.494L180.352 55.928H184.026L186.226 59.404H186.336L188.558 55.928H192.012L188.096 61.472L192.232 67.5H188.624L186.116 63.562H186.006L183.498 67.5H180.044Z" fill="#020F23"/>
</svg>
