<svg width="206" height="146" viewBox="0 0 206 146" fill="none" xmlns="http://www.w3.org/2000/svg">
<path d="M19 23V32C19 33.105 17.657 34 16 34C14.343 34 13 33.105 13 32C13 30.895 14.343 30 16 30C17.657 30 19 30.895 19 32V23V19L31 16V20V29C31 30.105 29.657 31 28 31C26.343 31 25 30.105 25 29C25 27.895 26.343 27 28 27C29.657 27 31 27.895 31 29V20L19 23Z" fill="#020F23"/>
<path d="M19 32V19L31 16V29M19 32C19 33.105 17.657 34 16 34C14.343 34 13 33.105 13 32C13 30.895 14.343 30 16 30C17.657 30 19 30.895 19 32ZM31 29C31 30.105 29.657 31 28 31C26.343 31 25 30.105 25 29C25 27.895 26.343 27 28 27C29.657 27 31 27.895 31 29ZM19 23L31 20" stroke="#020F23" stroke-width="2" stroke-linecap="round" stroke-linejoin="round"/>
<path d="M45.52 32V18.28H50.06L52.02 25.3C52.1 25.5533 52.18 25.8533 52.26 26.2C52.34 26.5467 52.42 26.8933 52.5 27.24C52.5933 27.5733 52.6667 27.8733 52.72 28.14H52.88C52.9067 27.9133 52.9533 27.6467 53.02 27.34C53.0867 27.02 53.16 26.68 53.24 26.32C53.32 25.96 53.4067 25.6133 53.5 25.28L55.46 18.28H59.92V32H56.98V25.5C56.98 24.9 56.98 24.3 56.98 23.7C56.9933 23.0867 57.0067 22.5533 57.02 22.1C57.0467 21.6467 57.06 21.3533 57.06 21.22H56.9C56.8733 21.3667 56.8067 21.64 56.7 22.04C56.6067 22.4267 56.5 22.84 56.38 23.28C56.2733 23.72 56.1733 24.1 56.08 24.42L53.94 32H51.34L49.18 24.44C49.1 24.16 49.0067 23.8333 48.9 23.46C48.8067 23.0733 48.7133 22.68 48.62 22.28C48.54 21.8667 48.46 21.5133 48.38 21.22H48.22C48.2333 21.58 48.2467 22.0133 48.26 22.52C48.2733 23.0133 48.2867 23.5267 48.3 24.06C48.3133 24.58 48.32 25.06 48.32 25.5V32H45.52ZM66.1214 32.24C65.0547 32.24 64.2081 31.9467 63.5814 31.36C62.9547 30.7733 62.6414 29.8267 62.6414 28.52V21.48H65.4214V28.06C65.4214 28.4067 65.4614 28.7 65.5414 28.94C65.6214 29.1667 65.7347 29.3533 65.8814 29.5C66.0414 29.6467 66.2347 29.7533 66.4614 29.82C66.6881 29.8867 66.9414 29.92 67.2214 29.92C67.6347 29.92 68.0081 29.82 68.3414 29.62C68.6747 29.42 68.9347 29.1467 69.1214 28.8C69.3081 28.44 69.4014 28.04 69.4014 27.6V21.48H72.1814V32H69.9014L69.7014 30.56H69.5614C69.3081 30.8933 69.0081 31.1867 68.6614 31.44C68.3281 31.6933 67.9481 31.8867 67.5214 32.02C67.0947 32.1667 66.6281 32.24 66.1214 32.24ZM78.9931 32.24C78.2598 32.24 77.5998 32.16 77.0131 32C76.4265 31.84 75.9265 31.62 75.5131 31.34C75.0998 31.0467 74.7798 30.7 74.5531 30.3C74.3398 29.9 74.2331 29.4467 74.2331 28.94C74.2331 28.8867 74.2331 28.8333 74.2331 28.78C74.2331 28.7267 74.2398 28.6867 74.2531 28.66H76.9331C76.9331 28.6867 76.9331 28.7133 76.9331 28.74C76.9331 28.7667 76.9331 28.7933 76.9331 28.82C76.9465 29.1533 77.0531 29.4267 77.2531 29.64C77.4531 29.84 77.7131 29.9867 78.0331 30.08C78.3665 30.1733 78.7131 30.22 79.0731 30.22C79.3931 30.22 79.6998 30.1933 79.9931 30.14C80.2998 30.0733 80.5531 29.96 80.7531 29.8C80.9665 29.64 81.0731 29.4333 81.0731 29.18C81.0731 28.86 80.9398 28.6133 80.6731 28.44C80.4198 28.2667 80.0798 28.1267 79.6531 28.02C79.2398 27.9133 78.7865 27.7933 78.2931 27.66C77.8398 27.5533 77.3865 27.4333 76.9331 27.3C76.4798 27.1533 76.0665 26.9667 75.6931 26.74C75.3331 26.5133 75.0398 26.22 74.8131 25.86C74.5865 25.4867 74.4731 25.02 74.4731 24.46C74.4731 23.9133 74.5931 23.44 74.8331 23.04C75.0731 22.6267 75.3998 22.2867 75.8131 22.02C76.2398 21.7533 76.7331 21.56 77.2931 21.44C77.8665 21.3067 78.4798 21.24 79.1331 21.24C79.7465 21.24 80.3198 21.3067 80.8531 21.44C81.3865 21.56 81.8531 21.7467 82.2531 22C82.6531 22.24 82.9665 22.5467 83.1931 22.92C83.4198 23.28 83.5331 23.6867 83.5331 24.14C83.5331 24.2333 83.5331 24.32 83.5331 24.4C83.5331 24.48 83.5265 24.5333 83.5131 24.56H80.8531V24.4C80.8531 24.16 80.7798 23.96 80.6331 23.8C80.4865 23.6267 80.2731 23.4933 79.9931 23.4C79.7265 23.3067 79.3998 23.26 79.0131 23.26C78.7465 23.26 78.4998 23.28 78.2731 23.32C78.0598 23.36 77.8731 23.42 77.7131 23.5C77.5531 23.58 77.4265 23.68 77.3331 23.8C77.2531 23.9067 77.2131 24.04 77.2131 24.2C77.2131 24.4267 77.3065 24.6133 77.4931 24.76C77.6931 24.8933 77.9531 25.0067 78.2731 25.1C78.5931 25.1933 78.9465 25.2933 79.3331 25.4C79.8131 25.5333 80.3131 25.6667 80.8331 25.8C81.3665 25.92 81.8598 26.0867 82.3131 26.3C82.7665 26.5133 83.1331 26.82 83.4131 27.22C83.6931 27.6067 83.8331 28.1333 83.8331 28.8C83.8331 29.44 83.7065 29.98 83.4531 30.42C83.2131 30.86 82.8731 31.2133 82.4331 31.48C81.9931 31.7467 81.4798 31.94 80.8931 32.06C80.3065 32.18 79.6731 32.24 78.9931 32.24ZM85.8464 19.94V17.54H88.6264V19.94H85.8464ZM85.8464 32V21.48H88.6264V32H85.8464ZM95.7984 32.24C94.6784 32.24 93.7384 32.0467 92.9784 31.66C92.2184 31.26 91.6384 30.6533 91.2384 29.84C90.8518 29.0133 90.6584 27.98 90.6584 26.74C90.6584 25.4733 90.8518 24.44 91.2384 23.64C91.6384 22.8267 92.2184 22.22 92.9784 21.82C93.7518 21.42 94.6918 21.22 95.7984 21.22C96.5184 21.22 97.1651 21.3067 97.7384 21.48C98.3251 21.6533 98.8318 21.92 99.2584 22.28C99.6851 22.64 100.005 23.0867 100.218 23.62C100.445 24.14 100.558 24.76 100.558 25.48H97.7784C97.7784 25 97.7051 24.6067 97.5584 24.3C97.4118 23.9933 97.1851 23.76 96.8784 23.6C96.5851 23.44 96.2118 23.36 95.7584 23.36C95.2251 23.36 94.7918 23.48 94.4584 23.72C94.1251 23.96 93.8784 24.3133 93.7184 24.78C93.5584 25.2467 93.4784 25.8267 93.4784 26.52V26.98C93.4784 27.66 93.5584 28.2333 93.7184 28.7C93.8918 29.1667 94.1518 29.52 94.4984 29.76C94.8451 29.9867 95.2984 30.1 95.8584 30.1C96.3118 30.1 96.6851 30.02 96.9784 29.86C97.2851 29.7 97.5184 29.46 97.6784 29.14C97.8384 28.82 97.9184 28.4333 97.9184 27.98H100.558C100.558 28.66 100.445 29.2667 100.218 29.8C100.005 30.3333 99.6851 30.78 99.2584 31.14C98.8451 31.5 98.3451 31.7733 97.7584 31.96C97.1718 32.1467 96.5184 32.24 95.7984 32.24ZM102.883 32V18.28H110.723C111.443 18.28 112.09 18.42 112.663 18.7C113.25 18.98 113.71 19.3733 114.043 19.88C114.377 20.3867 114.543 20.98 114.543 21.66C114.543 22.2067 114.443 22.6933 114.243 23.12C114.043 23.5467 113.77 23.9 113.423 24.18C113.09 24.46 112.71 24.6667 112.283 24.8V24.88C112.79 24.9867 113.237 25.1867 113.623 25.48C114.023 25.7733 114.337 26.1533 114.563 26.62C114.803 27.0733 114.923 27.6133 114.923 28.24C114.923 29.0667 114.73 29.76 114.343 30.32C113.97 30.88 113.47 31.3 112.843 31.58C112.217 31.86 111.517 32 110.743 32H102.883ZM105.863 29.56H110.163C110.657 29.56 111.057 29.42 111.363 29.14C111.683 28.86 111.843 28.4267 111.843 27.84C111.843 27.4933 111.777 27.1933 111.643 26.94C111.51 26.6867 111.31 26.4933 111.043 26.36C110.777 26.2133 110.437 26.14 110.023 26.14H105.863V29.56ZM105.863 23.82H109.823C110.183 23.82 110.483 23.7533 110.723 23.62C110.977 23.4733 111.163 23.2867 111.283 23.06C111.417 22.82 111.483 22.5467 111.483 22.24C111.483 21.72 111.337 21.3267 111.043 21.06C110.763 20.7933 110.39 20.66 109.923 20.66H105.863V23.82ZM121.917 32.24C120.77 32.24 119.797 32.0467 118.997 31.66C118.197 31.26 117.59 30.6533 117.177 29.84C116.764 29.0133 116.557 27.98 116.557 26.74C116.557 25.4733 116.764 24.44 117.177 23.64C117.59 22.8267 118.197 22.2267 118.997 21.84C119.797 21.44 120.77 21.24 121.917 21.24C123.09 21.24 124.07 21.44 124.857 21.84C125.657 22.2267 126.264 22.8267 126.677 23.64C127.09 24.44 127.297 25.4733 127.297 26.74C127.297 27.98 127.09 29.0133 126.677 29.84C126.264 30.6533 125.657 31.26 124.857 31.66C124.07 32.0467 123.09 32.24 121.917 32.24ZM121.917 30.08C122.53 30.08 123.017 29.9667 123.377 29.74C123.75 29.5133 124.024 29.1667 124.197 28.7C124.37 28.2333 124.457 27.66 124.457 26.98V26.5C124.457 25.82 124.37 25.2467 124.197 24.78C124.024 24.3133 123.75 23.9667 123.377 23.74C123.017 23.5 122.53 23.38 121.917 23.38C121.317 23.38 120.83 23.5 120.457 23.74C120.097 23.9667 119.83 24.3133 119.657 24.78C119.484 25.2467 119.397 25.82 119.397 26.5V26.98C119.397 27.66 119.484 28.2333 119.657 28.7C119.83 29.1667 120.097 29.5133 120.457 29.74C120.83 29.9667 121.317 30.08 121.917 30.08ZM127.676 32L131.496 26.54L127.956 21.48H131.296L133.296 24.64H133.396L135.416 21.48H138.556L134.996 26.52L138.756 32H135.476L133.196 28.42H133.096L130.816 32H127.676Z" fill="#020F23"/>
<path d="M12 75.8335L17.26 79.3402C17.4791 79.4863 17.7366 79.5644 18 79.5644C18.2634 79.5644 18.5209 79.4863 18.74 79.3402L24 75.8335M13.3333 83.1668H22.6667C23.0203 83.1668 23.3594 83.0264 23.6095 82.7763C23.8595 82.5263 24 82.1871 24 81.8335V75.1668C24 74.8132 23.8595 74.4741 23.6095 74.224C23.3594 73.974 23.0203 73.8335 22.6667 73.8335H13.3333C12.9797 73.8335 12.6406 73.974 12.3905 74.224C12.1405 74.4741 12 74.8132 12 75.1668V81.8335C12 82.1871 12.1405 82.5263 12.3905 82.7763C12.6406 83.0264 12.9797 83.1668 13.3333 83.1668Z" stroke="#020F23" stroke-width="2" stroke-linecap="round" stroke-linejoin="round"/>
<path d="M39.104 74V72.432H40.512V74H39.104ZM39.104 84V75.584H40.512V84H39.104ZM42.6978 84V75.584H43.8338L43.9618 76.848H44.0738C44.2978 76.5067 44.5484 76.2293 44.8258 76.016C45.1138 75.8027 45.4284 75.648 45.7698 75.552C46.1218 75.4453 46.4951 75.392 46.8898 75.392C47.4231 75.392 47.8871 75.4827 48.2818 75.664C48.6871 75.8453 49.0018 76.1387 49.2258 76.544C49.4604 76.9493 49.5778 77.4987 49.5778 78.192V84H48.1698V78.384C48.1698 78.032 48.1218 77.744 48.0258 77.52C47.9404 77.296 47.8178 77.12 47.6578 76.992C47.5084 76.864 47.3218 76.7733 47.0978 76.72C46.8844 76.6667 46.6444 76.64 46.3778 76.64C45.9831 76.64 45.6098 76.736 45.2578 76.928C44.9058 77.12 44.6231 77.3973 44.4098 77.76C44.2071 78.1227 44.1058 78.5547 44.1058 79.056V84H42.6978ZM52.0494 84V76.768H50.8014V75.584H52.0494V74.24C52.0494 73.9093 52.0974 73.6 52.1934 73.312C52.2894 73.0133 52.4707 72.7733 52.7374 72.592C53.004 72.4 53.3774 72.304 53.8574 72.304C54.0067 72.304 54.1507 72.3147 54.2894 72.336C54.4387 72.3467 54.5774 72.368 54.7054 72.4C54.844 72.4213 54.9667 72.448 55.0734 72.48V73.488H54.2254C53.9587 73.488 53.7614 73.5573 53.6334 73.696C53.516 73.824 53.4574 74.0107 53.4574 74.256V75.584H55.0734V76.768H53.4574V84H52.0494ZM59.5756 84.192C58.7223 84.192 58.0023 84.0373 57.4156 83.728C56.8396 83.408 56.397 82.9227 56.0876 82.272C55.789 81.6213 55.6396 80.7947 55.6396 79.792C55.6396 78.7787 55.789 77.952 56.0876 77.312C56.397 76.6613 56.8396 76.1813 57.4156 75.872C58.0023 75.552 58.7223 75.392 59.5756 75.392C60.429 75.392 61.1436 75.552 61.7196 75.872C62.3063 76.1813 62.749 76.6613 63.0476 77.312C63.3463 77.952 63.4956 78.7787 63.4956 79.792C63.4956 80.7947 63.3463 81.6213 63.0476 82.272C62.749 82.9227 62.3063 83.408 61.7196 83.728C61.1436 84.0373 60.429 84.192 59.5756 84.192ZM59.5756 83.008C60.1196 83.008 60.573 82.9013 60.9356 82.688C61.2983 82.4747 61.5703 82.144 61.7516 81.696C61.9436 81.2373 62.0396 80.6613 62.0396 79.968V79.616C62.0396 78.912 61.9436 78.336 61.7516 77.888C61.5703 77.44 61.2983 77.1093 60.9356 76.896C60.573 76.6827 60.1196 76.576 59.5756 76.576C59.0316 76.576 58.573 76.6827 58.1996 76.896C57.837 77.1093 57.565 77.44 57.3836 77.888C57.2023 78.336 57.1116 78.912 57.1116 79.616V79.968C57.1116 80.6613 57.2023 81.2373 57.3836 81.696C57.565 82.144 57.837 82.4747 58.1996 82.688C58.573 82.9013 59.0316 83.008 59.5756 83.008ZM71.7566 86.448C70.37 86.448 69.1646 86.2133 68.1406 85.744C67.1273 85.2853 66.3433 84.5653 65.7886 83.584C65.234 82.6027 64.9566 81.344 64.9566 79.808C64.9566 78.528 65.154 77.4453 65.5486 76.56C65.9433 75.6747 66.482 74.96 67.1646 74.416C67.8473 73.8613 68.6313 73.4613 69.5166 73.216C70.4126 72.96 71.3566 72.832 72.3486 72.832C73.362 72.832 74.2953 72.9493 75.1486 73.184C76.002 73.408 76.7433 73.76 77.3726 74.24C78.0126 74.72 78.5086 75.344 78.8606 76.112C79.2126 76.8693 79.3886 77.7867 79.3886 78.864C79.3886 79.5893 79.314 80.2187 79.1646 80.752C79.0153 81.2853 78.8126 81.7387 78.5566 82.112C78.3006 82.4747 78.0126 82.7733 77.6926 83.008C77.3833 83.232 77.0633 83.3973 76.7326 83.504C76.402 83.6 76.0873 83.648 75.7886 83.648C75.3513 83.648 75.01 83.5893 74.7646 83.472C74.53 83.3547 74.3593 83.2053 74.2526 83.024C74.146 82.8427 74.0873 82.6667 74.0766 82.496H73.9806C73.7993 82.7413 73.5753 82.9547 73.3086 83.136C73.042 83.3067 72.7433 83.44 72.4126 83.536C72.082 83.6213 71.7193 83.664 71.3246 83.664C71.0473 83.664 70.7646 83.632 70.4766 83.568C70.1886 83.4933 69.9273 83.3813 69.6926 83.232C69.458 83.072 69.266 82.8533 69.1166 82.576C68.978 82.2987 68.9086 81.9573 68.9086 81.552C68.9086 81.0187 69.0313 80.5867 69.2766 80.256C69.5326 79.9147 69.89 79.6533 70.3486 79.472C70.8073 79.28 71.346 79.1467 71.9646 79.072C72.5833 78.9867 73.2553 78.944 73.9806 78.944V78.08C73.9806 77.8027 73.9273 77.5627 73.8206 77.36C73.7246 77.1467 73.554 76.9867 73.3086 76.88C73.0633 76.7627 72.706 76.704 72.2366 76.704C71.7993 76.704 71.4526 76.7627 71.1966 76.88C70.9513 76.9867 70.7753 77.1307 70.6686 77.312C70.5726 77.4933 70.5246 77.6853 70.5246 77.888V78.112H69.2766C69.266 78.0587 69.2606 78.0107 69.2606 77.968C69.2606 77.9147 69.2606 77.856 69.2606 77.792C69.2606 77.3227 69.3886 76.9333 69.6446 76.624C69.9006 76.304 70.258 76.064 70.7166 75.904C71.186 75.744 71.73 75.664 72.3486 75.664C72.9886 75.664 73.522 75.7547 73.9486 75.936C74.386 76.1067 74.7113 76.3627 74.9246 76.704C75.1486 77.0347 75.2606 77.4453 75.2606 77.936V81.936C75.2606 82.1813 75.3193 82.3573 75.4366 82.464C75.554 82.5707 75.7406 82.624 75.9966 82.624C76.3806 82.624 76.7486 82.5067 77.1006 82.272C77.4633 82.0373 77.762 81.648 77.9966 81.104C78.242 80.5493 78.3646 79.7973 78.3646 78.848C78.3646 77.6533 78.1086 76.6827 77.5966 75.936C77.0846 75.1893 76.3753 74.64 75.4686 74.288C74.5726 73.936 73.5273 73.76 72.3326 73.76C71.042 73.76 69.9166 73.984 68.9566 74.432C68.0073 74.8693 67.2713 75.536 66.7486 76.432C66.2366 77.328 65.9806 78.4587 65.9806 79.824C65.9806 81.712 66.45 83.1307 67.3886 84.08C68.3273 85.04 69.7833 85.52 71.7566 85.52C72.034 85.52 72.3593 85.4933 72.7326 85.44C73.1166 85.3973 73.4846 85.3387 73.8366 85.264C74.1886 85.2 74.4713 85.12 74.6846 85.024V86.016C74.4393 86.1013 74.1353 86.176 73.7726 86.24C73.4206 86.304 73.058 86.352 72.6846 86.384C72.322 86.4267 72.0126 86.448 71.7566 86.448ZM71.6446 82.624C71.9646 82.624 72.2633 82.576 72.5406 82.48C72.818 82.3733 73.0633 82.2293 73.2766 82.048C73.5006 81.8667 73.6713 81.648 73.7886 81.392C73.9166 81.136 73.9806 80.848 73.9806 80.528V79.92C73.1913 79.92 72.514 79.968 71.9486 80.064C71.394 80.1493 70.9673 80.304 70.6686 80.528C70.3806 80.7413 70.2366 81.0507 70.2366 81.456C70.2366 81.7227 70.2953 81.9413 70.4126 82.112C70.53 82.2827 70.6953 82.4107 70.9086 82.496C71.122 82.5813 71.3673 82.624 71.6446 82.624ZM81.3228 84V75.584H82.4588L82.5868 76.848H82.6988C82.9121 76.5067 83.1521 76.2293 83.4188 76.016C83.6854 75.8027 83.9788 75.648 84.2988 75.552C84.6188 75.4453 84.9654 75.392 85.3388 75.392C85.8828 75.392 86.3521 75.504 86.7468 75.728C87.1414 75.9413 87.4348 76.3147 87.6268 76.848H87.7228C87.9254 76.5067 88.1601 76.2347 88.4268 76.032C88.6934 75.8187 88.9921 75.6587 89.3228 75.552C89.6534 75.4453 90.0054 75.392 90.3788 75.392C90.8908 75.392 91.3388 75.4827 91.7228 75.664C92.1068 75.8347 92.4054 76.1227 92.6188 76.528C92.8428 76.9227 92.9548 77.456 92.9548 78.128V84H91.5468V78.352C91.5468 78.0107 91.5041 77.728 91.4188 77.504C91.3441 77.28 91.2321 77.1093 91.0828 76.992C90.9334 76.864 90.7574 76.7733 90.5548 76.72C90.3628 76.6667 90.1548 76.64 89.9308 76.64C89.5574 76.64 89.2108 76.736 88.8908 76.928C88.5814 77.12 88.3308 77.3973 88.1388 77.76C87.9468 78.1227 87.8508 78.5547 87.8508 79.056V84H86.4428V78.352C86.4428 78.0107 86.4001 77.728 86.3148 77.504C86.2294 77.28 86.1174 77.1093 85.9788 76.992C85.8401 76.864 85.6694 76.7733 85.4668 76.72C85.2748 76.6667 85.0721 76.64 84.8588 76.64C84.4748 76.64 84.1174 76.736 83.7868 76.928C83.4668 77.12 83.2108 77.3973 83.0188 77.76C82.8268 78.1227 82.7308 78.5547 82.7308 79.056V84H81.3228ZM97.6964 84.192C96.8857 84.192 96.235 83.984 95.7444 83.568C95.2537 83.152 95.0084 82.4267 95.0084 81.392V75.584H96.4164V81.2C96.4164 81.552 96.459 81.84 96.5444 82.064C96.6297 82.288 96.7524 82.464 96.9124 82.592C97.0724 82.72 97.259 82.8107 97.4724 82.864C97.6964 82.9173 97.9364 82.944 98.1924 82.944C98.5977 82.944 98.971 82.848 99.3124 82.656C99.6537 82.464 99.931 82.1867 100.144 81.824C100.368 81.4507 100.48 81.0187 100.48 80.528V75.584H101.888V84H100.752L100.624 82.736H100.512C100.288 83.0773 100.032 83.3547 99.7444 83.568C99.467 83.7813 99.1524 83.936 98.8004 84.032C98.459 84.1387 98.091 84.192 97.6964 84.192ZM107.017 84.192C106.441 84.192 105.934 84.1333 105.497 84.016C105.059 83.8987 104.697 83.728 104.409 83.504C104.121 83.28 103.902 83.0133 103.753 82.704C103.603 82.3947 103.529 82.0427 103.529 81.648C103.529 81.5947 103.529 81.5467 103.529 81.504C103.529 81.4507 103.534 81.408 103.545 81.376H104.937C104.926 81.4187 104.921 81.456 104.921 81.488C104.921 81.52 104.921 81.552 104.921 81.584C104.931 81.9573 105.027 82.2507 105.209 82.464C105.401 82.6773 105.662 82.8267 105.993 82.912C106.323 82.9973 106.691 83.04 107.097 83.04C107.449 83.04 107.774 82.9973 108.073 82.912C108.371 82.816 108.606 82.6773 108.777 82.496C108.958 82.304 109.049 82.064 109.049 81.776C109.049 81.424 108.931 81.1573 108.697 80.976C108.473 80.784 108.174 80.6347 107.801 80.528C107.427 80.4213 107.038 80.3093 106.633 80.192C106.291 80.096 105.95 79.9893 105.609 79.872C105.267 79.7547 104.958 79.6107 104.681 79.44C104.414 79.2693 104.195 79.0507 104.025 78.784C103.865 78.5067 103.785 78.16 103.785 77.744C103.785 77.3707 103.859 77.04 104.009 76.752C104.169 76.464 104.393 76.2187 104.681 76.016C104.969 75.8133 105.315 75.664 105.721 75.568C106.137 75.4613 106.595 75.408 107.097 75.408C107.63 75.408 108.094 75.4667 108.489 75.584C108.894 75.7013 109.23 75.8667 109.497 76.08C109.763 76.2933 109.961 76.5387 110.089 76.816C110.217 77.0827 110.281 77.3707 110.281 77.68C110.281 77.744 110.281 77.808 110.281 77.872C110.281 77.9253 110.275 77.968 110.265 78H108.889V77.824C108.889 77.6107 108.83 77.408 108.713 77.216C108.606 77.0133 108.414 76.8533 108.137 76.736C107.87 76.608 107.497 76.544 107.017 76.544C106.707 76.544 106.441 76.5707 106.217 76.624C105.993 76.6667 105.806 76.7413 105.657 76.848C105.507 76.944 105.395 77.0613 105.321 77.2C105.246 77.328 105.209 77.4773 105.209 77.648C105.209 77.9253 105.299 78.1387 105.481 78.288C105.662 78.4373 105.902 78.56 106.201 78.656C106.51 78.752 106.841 78.8587 107.193 78.976C107.566 79.0827 107.945 79.1947 108.329 79.312C108.723 79.4187 109.081 79.5573 109.401 79.728C109.731 79.8987 109.993 80.1333 110.185 80.432C110.387 80.72 110.489 81.104 110.489 81.584C110.489 82.032 110.403 82.4213 110.233 82.752C110.062 83.0827 109.817 83.3547 109.497 83.568C109.187 83.7813 108.819 83.936 108.393 84.032C107.977 84.1387 107.518 84.192 107.017 84.192ZM112.229 74V72.432H113.637V74H112.229ZM112.229 84V75.584H113.637V84H112.229ZM119.023 84.192C118.212 84.192 117.529 84.0373 116.975 83.728C116.431 83.408 116.015 82.9227 115.727 82.272C115.449 81.6107 115.311 80.784 115.311 79.792C115.311 78.8 115.449 77.9787 115.727 77.328C116.015 76.6773 116.436 76.192 116.991 75.872C117.556 75.552 118.249 75.392 119.071 75.392C119.647 75.392 120.143 75.4667 120.559 75.616C120.985 75.7653 121.337 75.984 121.615 76.272C121.892 76.56 122.095 76.9067 122.223 77.312C122.361 77.7173 122.431 78.1813 122.431 78.704H121.007C121.007 78.2133 120.937 77.8133 120.799 77.504C120.671 77.184 120.463 76.9493 120.175 76.8C119.887 76.64 119.508 76.56 119.039 76.56C118.569 76.56 118.164 76.6667 117.823 76.88C117.481 77.0827 117.22 77.408 117.039 77.856C116.857 78.304 116.767 78.896 116.767 79.632V79.968C116.767 80.6613 116.852 81.2373 117.023 81.696C117.204 82.1547 117.465 82.4907 117.807 82.704C118.148 82.9173 118.564 83.024 119.055 83.024C119.535 83.024 119.919 82.9387 120.207 82.768C120.505 82.5973 120.719 82.352 120.847 82.032C120.985 81.712 121.055 81.328 121.055 80.88H122.431C122.431 81.3493 122.361 81.7867 122.223 82.192C122.095 82.5973 121.892 82.9493 121.615 83.248C121.337 83.5467 120.985 83.7813 120.559 83.952C120.132 84.112 119.62 84.192 119.023 84.192ZM128.12 84.192C127.554 84.192 127.048 84.08 126.6 83.856C126.152 83.6213 125.784 83.2693 125.496 82.8H125.384L125.24 84H124.12V72.432H125.528V76.64H125.624C125.816 76.3413 126.04 76.1013 126.296 75.92C126.552 75.7387 126.84 75.6053 127.16 75.52C127.48 75.4347 127.821 75.392 128.184 75.392C128.834 75.392 129.405 75.5467 129.896 75.856C130.386 76.1653 130.765 76.64 131.032 77.28C131.309 77.92 131.448 78.736 131.448 79.728C131.448 80.7733 131.314 81.6267 131.048 82.288C130.781 82.9387 130.402 83.4187 129.912 83.728C129.421 84.0373 128.824 84.192 128.12 84.192ZM127.784 82.96C128.264 82.96 128.664 82.864 128.984 82.672C129.314 82.48 129.565 82.1653 129.736 81.728C129.906 81.28 129.992 80.6933 129.992 79.968V79.632C129.992 78.928 129.912 78.3573 129.752 77.92C129.592 77.472 129.346 77.1467 129.016 76.944C128.685 76.7307 128.258 76.624 127.736 76.624C127.437 76.624 127.154 76.672 126.888 76.768C126.621 76.864 126.381 77.0293 126.168 77.264C125.965 77.4987 125.805 77.8133 125.688 78.208C125.581 78.6027 125.528 79.088 125.528 79.664V79.92C125.528 80.5813 125.602 81.136 125.752 81.584C125.912 82.032 126.157 82.3733 126.488 82.608C126.829 82.8427 127.261 82.96 127.784 82.96ZM136.654 84.192C135.8 84.192 135.08 84.0373 134.494 83.728C133.918 83.408 133.475 82.9227 133.166 82.272C132.867 81.6213 132.718 80.7947 132.718 79.792C132.718 78.7787 132.867 77.952 133.166 77.312C133.475 76.6613 133.918 76.1813 134.494 75.872C135.08 75.552 135.8 75.392 136.654 75.392C137.507 75.392 138.222 75.552 138.798 75.872C139.384 76.1813 139.827 76.6613 140.126 77.312C140.424 77.952 140.574 78.7787 140.574 79.792C140.574 80.7947 140.424 81.6213 140.126 82.272C139.827 82.9227 139.384 83.408 138.798 83.728C138.222 84.0373 137.507 84.192 136.654 84.192ZM136.654 83.008C137.198 83.008 137.651 82.9013 138.014 82.688C138.376 82.4747 138.648 82.144 138.83 81.696C139.022 81.2373 139.118 80.6613 139.118 79.968V79.616C139.118 78.912 139.022 78.336 138.83 77.888C138.648 77.44 138.376 77.1093 138.014 76.896C137.651 76.6827 137.198 76.576 136.654 76.576C136.11 76.576 135.651 76.6827 135.278 76.896C134.915 77.1093 134.643 77.44 134.462 77.888C134.28 78.336 134.19 78.912 134.19 79.616V79.968C134.19 80.6613 134.28 81.2373 134.462 81.696C134.643 82.144 134.915 82.4747 135.278 82.688C135.651 82.9013 136.11 83.008 136.654 83.008ZM141.115 84L144.139 79.696L141.259 75.584H142.955L145.003 78.592H145.083L147.131 75.584H148.731L145.851 79.648L148.891 84H147.211L145.003 80.752H144.923L142.715 84H141.115ZM150.518 84V82.32H152.086V84H150.518ZM157.835 84.192C157.025 84.192 156.342 84.0373 155.787 83.728C155.243 83.408 154.827 82.9227 154.539 82.272C154.262 81.6107 154.123 80.784 154.123 79.792C154.123 78.8 154.262 77.9787 154.539 77.328C154.827 76.6773 155.249 76.192 155.803 75.872C156.369 75.552 157.062 75.392 157.883 75.392C158.459 75.392 158.955 75.4667 159.371 75.616C159.798 75.7653 160.15 75.984 160.427 76.272C160.705 76.56 160.907 76.9067 161.035 77.312C161.174 77.7173 161.243 78.1813 161.243 78.704H159.819C159.819 78.2133 159.75 77.8133 159.611 77.504C159.483 77.184 159.275 76.9493 158.987 76.8C158.699 76.64 158.321 76.56 157.851 76.56C157.382 76.56 156.977 76.6667 156.635 76.88C156.294 77.0827 156.033 77.408 155.851 77.856C155.67 78.304 155.579 78.896 155.579 79.632V79.968C155.579 80.6613 155.665 81.2373 155.835 81.696C156.017 82.1547 156.278 82.4907 156.619 82.704C156.961 82.9173 157.377 83.024 157.867 83.024C158.347 83.024 158.731 82.9387 159.019 82.768C159.318 82.5973 159.531 82.352 159.659 82.032C159.798 81.712 159.867 81.328 159.867 80.88H161.243C161.243 81.3493 161.174 81.7867 161.035 82.192C160.907 82.5973 160.705 82.9493 160.427 83.248C160.15 83.5467 159.798 83.7813 159.371 83.952C158.945 84.112 158.433 84.192 157.835 84.192ZM166.388 84.192C165.535 84.192 164.815 84.0373 164.228 83.728C163.652 83.408 163.209 82.9227 162.9 82.272C162.601 81.6213 162.452 80.7947 162.452 79.792C162.452 78.7787 162.601 77.952 162.9 77.312C163.209 76.6613 163.652 76.1813 164.228 75.872C164.815 75.552 165.535 75.392 166.388 75.392C167.241 75.392 167.956 75.552 168.532 75.872C169.119 76.1813 169.561 76.6613 169.86 77.312C170.159 77.952 170.308 78.7787 170.308 79.792C170.308 80.7947 170.159 81.6213 169.86 82.272C169.561 82.9227 169.119 83.408 168.532 83.728C167.956 84.0373 167.241 84.192 166.388 84.192ZM166.388 83.008C166.932 83.008 167.385 82.9013 167.748 82.688C168.111 82.4747 168.383 82.144 168.564 81.696C168.756 81.2373 168.852 80.6613 168.852 79.968V79.616C168.852 78.912 168.756 78.336 168.564 77.888C168.383 77.44 168.111 77.1093 167.748 76.896C167.385 76.6827 166.932 76.576 166.388 76.576C165.844 76.576 165.385 76.6827 165.012 76.896C164.649 77.1093 164.377 77.44 164.196 77.888C164.015 78.336 163.924 78.912 163.924 79.616V79.968C163.924 80.6613 164.015 81.2373 164.196 81.696C164.377 82.144 164.649 82.4747 165.012 82.688C165.385 82.9013 165.844 83.008 166.388 83.008Z" fill="#020F23"/>
<path d="M12.3905 120.891C12.1405 121.141 12 121.48 12 121.833V122.5C12 128.023 16.4773 132.5 22 132.5H22.6667C23.0203 132.5 23.3594 132.36 23.6095 132.109C23.8595 131.859 24 131.52 24 131.167V128.981C24 128.841 23.956 128.704 23.8742 128.591C23.7923 128.477 23.6768 128.392 23.544 128.348L20.5487 127.349C20.3964 127.299 20.2311 127.305 20.0829 127.366C19.9347 127.428 19.8137 127.54 19.742 127.684L18.9887 129.189C17.3563 128.451 16.0489 127.144 15.3113 125.511L16.816 124.758C16.9595 124.686 17.0723 124.565 17.1338 124.417C17.1953 124.269 17.2013 124.104 17.1507 123.951L16.152 120.956C16.1078 120.823 16.023 120.708 15.9096 120.626C15.7961 120.544 15.6599 120.5 15.52 120.5H13.3333C12.9797 120.5 12.6406 120.64 12.3905 120.891Z" stroke="#020F23" stroke-width="2" stroke-linecap="round" stroke-linejoin="round"/>
<path d="M42.4 132V128.528H39.216V127.312H42.4V123.824H43.6V127.312H46.768V128.528H43.6V132H42.4ZM52.608 132.192C51.7547 132.192 51.0347 132.064 50.448 131.808C49.8613 131.541 49.4187 131.168 49.12 130.688C48.8213 130.208 48.672 129.637 48.672 128.976V128.768H50.096V128.976C50.096 129.637 50.304 130.144 50.72 130.496C51.1467 130.837 51.7333 131.008 52.48 131.008C53.2267 131.008 53.8293 130.848 54.288 130.528C54.7467 130.197 54.976 129.675 54.976 128.96C54.976 128.437 54.8533 128.037 54.608 127.76C54.3627 127.483 54.0427 127.291 53.648 127.184C53.264 127.067 52.8533 127.008 52.416 127.008H51.264V125.824H52.464C52.8693 125.824 53.2427 125.76 53.584 125.632C53.9253 125.504 54.1973 125.296 54.4 125.008C54.6133 124.709 54.72 124.325 54.72 123.856C54.72 123.429 54.624 123.083 54.432 122.816C54.2507 122.549 54 122.352 53.68 122.224C53.36 122.085 53.008 122.016 52.624 122.016C52.1973 122.016 51.8133 122.091 51.472 122.24C51.1307 122.379 50.8587 122.592 50.656 122.88C50.464 123.168 50.368 123.531 50.368 123.968V124.176H48.928V123.888C48.928 123.28 49.0827 122.747 49.392 122.288C49.712 121.829 50.144 121.472 50.688 121.216C51.2427 120.96 51.8773 120.832 52.592 120.832C53.296 120.832 53.9147 120.944 54.448 121.168C54.992 121.392 55.4187 121.723 55.728 122.16C56.0373 122.597 56.192 123.136 56.192 123.776C56.192 124.245 56.1067 124.645 55.936 124.976C55.7653 125.296 55.5413 125.563 55.264 125.776C54.9867 125.989 54.688 126.165 54.368 126.304V126.368C54.9547 126.539 55.4453 126.848 55.84 127.296C56.2347 127.744 56.432 128.331 56.432 129.056C56.432 129.707 56.2667 130.267 55.936 130.736C55.616 131.205 55.1627 131.568 54.576 131.824C54 132.069 53.344 132.192 52.608 132.192ZM61.7639 132.192C60.8572 132.192 60.1212 132.048 59.5559 131.76C58.9905 131.472 58.5745 131.088 58.3079 130.608C58.0519 130.128 57.9239 129.595 57.9239 129.008C57.9239 128.411 58.0732 127.883 58.3719 127.424C58.6705 126.965 59.1399 126.613 59.7799 126.368C59.2679 126.101 58.8785 125.749 58.6119 125.312C58.3559 124.875 58.2279 124.389 58.2279 123.856C58.2279 123.291 58.3559 122.784 58.6119 122.336C58.8785 121.877 59.2732 121.515 59.7959 121.248C60.3292 120.971 60.9852 120.832 61.7639 120.832C62.5425 120.832 63.1932 120.971 63.7159 121.248C64.2385 121.515 64.6332 121.877 64.8999 122.336C65.1665 122.784 65.2999 123.291 65.2999 123.856C65.2999 124.389 65.1665 124.875 64.8999 125.312C64.6332 125.749 64.2439 126.101 63.7319 126.368C64.3825 126.613 64.8519 126.965 65.1399 127.424C65.4385 127.883 65.5879 128.411 65.5879 129.008C65.5879 129.595 65.4545 130.128 65.1879 130.608C64.9319 131.088 64.5212 131.472 63.9559 131.76C63.4012 132.048 62.6705 132.192 61.7639 132.192ZM61.7639 131.024C62.5425 131.024 63.1292 130.843 63.5239 130.48C63.9185 130.117 64.1159 129.621 64.1159 128.992C64.1159 128.373 63.9185 127.883 63.5239 127.52C63.1292 127.157 62.5425 126.976 61.7639 126.976C60.9852 126.976 60.3932 127.157 59.9879 127.52C59.5932 127.883 59.3959 128.373 59.3959 128.992C59.3959 129.621 59.5932 130.117 59.9879 130.48C60.3932 130.843 60.9852 131.024 61.7639 131.024ZM61.7639 125.808C62.4145 125.808 62.9265 125.643 63.2999 125.312C63.6732 124.971 63.8599 124.496 63.8599 123.888C63.8599 123.291 63.6732 122.827 63.2999 122.496C62.9265 122.165 62.4145 122 61.7639 122C61.1132 122 60.6012 122.165 60.2279 122.496C59.8545 122.827 59.6679 123.291 59.6679 123.888C59.6679 124.496 59.8545 124.971 60.2279 125.312C60.6012 125.643 61.1132 125.808 61.7639 125.808ZM70.9994 132.192C70.2314 132.192 69.5594 132.048 68.9834 131.76C68.4074 131.472 67.9594 131.061 67.6394 130.528C67.3194 129.984 67.1594 129.339 67.1594 128.592H68.5834C68.5834 129.093 68.69 129.525 68.9034 129.888C69.1167 130.251 69.4047 130.528 69.7674 130.72C70.1407 130.912 70.5514 131.008 70.9994 131.008C71.458 131.008 71.8634 130.917 72.2154 130.736C72.5674 130.544 72.8394 130.256 73.0314 129.872C73.234 129.488 73.3354 129.003 73.3354 128.416C73.3354 127.883 73.2447 127.445 73.0634 127.104C72.882 126.752 72.6207 126.491 72.2794 126.32C71.9487 126.149 71.5647 126.064 71.1274 126.064C70.8074 126.064 70.5034 126.117 70.2154 126.224C69.9274 126.32 69.666 126.459 69.4314 126.64C69.2074 126.821 69.0207 127.045 68.8714 127.312L67.5434 127.104L68.0074 121.024H74.2314V122.336H69.2394L68.9834 125.76C69.1647 125.6 69.3674 125.456 69.5914 125.328C69.826 125.189 70.0927 125.083 70.3914 125.008C70.69 124.923 71.0314 124.88 71.4154 124.88C72.0447 124.88 72.6154 125.003 73.1274 125.248C73.6394 125.493 74.0447 125.872 74.3434 126.384C74.642 126.896 74.7914 127.557 74.7914 128.368C74.7914 129.168 74.6367 129.856 74.3274 130.432C74.0287 131.008 73.5967 131.445 73.0314 131.744C72.466 132.043 71.7887 132.192 70.9994 132.192ZM83.2438 132.192C82.4651 132.192 81.8304 132.043 81.3398 131.744C80.8491 131.445 80.4918 131.04 80.2678 130.528C80.0438 130.016 79.9318 129.44 79.9318 128.8H81.3718C81.3718 129.291 81.4411 129.701 81.5798 130.032C81.7291 130.363 81.9478 130.608 82.2358 130.768C82.5238 130.928 82.8864 131.008 83.3238 131.008C83.9744 131.008 84.4704 130.843 84.8118 130.512C85.1638 130.171 85.4091 129.68 85.5478 129.04C85.6864 128.4 85.7611 127.637 85.7718 126.752C85.6331 126.987 85.4251 127.211 85.1478 127.424C84.8704 127.627 84.5451 127.792 84.1718 127.92C83.8091 128.037 83.4198 128.096 83.0038 128.096C82.2144 128.096 81.5638 127.941 81.0518 127.632C80.5398 127.312 80.1558 126.88 79.8997 126.336C79.6544 125.792 79.5318 125.184 79.5318 124.512C79.5318 123.765 79.6918 123.12 80.0118 122.576C80.3318 122.021 80.7691 121.595 81.3238 121.296C81.8784 120.987 82.5024 120.832 83.1958 120.832C83.8251 120.832 84.3904 120.923 84.8918 121.104C85.3931 121.285 85.8144 121.579 86.1558 121.984C86.5078 122.389 86.7744 122.939 86.9558 123.632C87.1371 124.315 87.2278 125.168 87.2278 126.192C87.2278 127.312 87.1371 128.256 86.9558 129.024C86.7851 129.792 86.5291 130.411 86.1878 130.88C85.8464 131.339 85.4251 131.675 84.9238 131.888C84.4331 132.091 83.8731 132.192 83.2438 132.192ZM83.2918 126.928C83.8144 126.928 84.2464 126.816 84.5878 126.592C84.9398 126.368 85.2011 126.069 85.3718 125.696C85.5424 125.323 85.6278 124.907 85.6278 124.448C85.6278 124 85.5424 123.595 85.3718 123.232C85.2118 122.859 84.9558 122.565 84.6038 122.352C84.2624 122.128 83.8304 122.016 83.3078 122.016C82.7851 122.016 82.3531 122.133 82.0118 122.368C81.6704 122.592 81.4144 122.891 81.2438 123.264C81.0838 123.637 81.0038 124.059 81.0038 124.528C81.0038 124.965 81.0838 125.365 81.2438 125.728C81.4038 126.091 81.6491 126.384 81.9798 126.608C82.3211 126.821 82.7584 126.928 83.2918 126.928ZM89.0876 132V130.8H91.8556V123.2H89.0716V122.304C89.4663 122.272 89.8716 122.213 90.2876 122.128C90.7143 122.043 91.1303 121.909 91.5356 121.728C91.941 121.536 92.309 121.291 92.6396 120.992H93.2796V130.8H95.8876V132H89.0876ZM100.775 132V130.8H103.543V123.2H100.759V122.304C101.154 122.272 101.559 122.213 101.975 122.128C102.402 122.043 102.818 121.909 103.223 121.728C103.628 121.536 103.996 121.291 104.327 120.992H104.967V130.8H107.575V132H100.775ZM108.847 132V131.536C108.847 131.088 108.932 130.677 109.103 130.304C109.284 129.92 109.519 129.573 109.807 129.264C110.106 128.944 110.442 128.64 110.815 128.352C111.188 128.064 111.567 127.781 111.951 127.504C112.474 127.141 112.954 126.779 113.391 126.416C113.839 126.053 114.196 125.664 114.463 125.248C114.73 124.821 114.863 124.347 114.863 123.824C114.863 123.493 114.783 123.195 114.623 122.928C114.474 122.651 114.244 122.432 113.935 122.272C113.626 122.112 113.231 122.032 112.751 122.032C112.186 122.032 111.732 122.128 111.391 122.32C111.05 122.512 110.799 122.768 110.639 123.088C110.49 123.408 110.415 123.76 110.415 124.144V124.8H109.023C109.012 124.747 109.002 124.667 108.991 124.56C108.98 124.443 108.975 124.309 108.975 124.16C108.975 123.371 109.151 122.736 109.503 122.256C109.855 121.765 110.324 121.408 110.911 121.184C111.498 120.949 112.132 120.832 112.815 120.832C113.423 120.832 113.946 120.917 114.383 121.088C114.82 121.248 115.183 121.472 115.471 121.76C115.759 122.048 115.972 122.379 116.111 122.752C116.25 123.115 116.319 123.499 116.319 123.904C116.319 124.405 116.228 124.864 116.047 125.28C115.876 125.696 115.631 126.085 115.311 126.448C115.002 126.8 114.634 127.141 114.207 127.472C113.791 127.803 113.338 128.139 112.847 128.48C112.506 128.704 112.17 128.944 111.839 129.2C111.508 129.445 111.226 129.696 110.991 129.952C110.756 130.208 110.607 130.453 110.543 130.688H116.383V132H108.847ZM121.733 132.192C120.88 132.192 120.16 132.064 119.573 131.808C118.986 131.541 118.544 131.168 118.245 130.688C117.946 130.208 117.797 129.637 117.797 128.976V128.768H119.221V128.976C119.221 129.637 119.429 130.144 119.845 130.496C120.272 130.837 120.858 131.008 121.605 131.008C122.352 131.008 122.954 130.848 123.413 130.528C123.872 130.197 124.101 129.675 124.101 128.96C124.101 128.437 123.978 128.037 123.733 127.76C123.488 127.483 123.168 127.291 122.773 127.184C122.389 127.067 121.978 127.008 121.541 127.008H120.389V125.824H121.589C121.994 125.824 122.368 125.76 122.709 125.632C123.05 125.504 123.322 125.296 123.525 125.008C123.738 124.709 123.845 124.325 123.845 123.856C123.845 123.429 123.749 123.083 123.557 122.816C123.376 122.549 123.125 122.352 122.805 122.224C122.485 122.085 122.133 122.016 121.749 122.016C121.322 122.016 120.938 122.091 120.597 122.24C120.256 122.379 119.984 122.592 119.781 122.88C119.589 123.168 119.493 123.531 119.493 123.968V124.176H118.053V123.888C118.053 123.28 118.208 122.747 118.517 122.288C118.837 121.829 119.269 121.472 119.813 121.216C120.368 120.96 121.002 120.832 121.717 120.832C122.421 120.832 123.04 120.944 123.573 121.168C124.117 121.392 124.544 121.723 124.853 122.16C125.162 122.597 125.317 123.136 125.317 123.776C125.317 124.245 125.232 124.645 125.061 124.976C124.89 125.296 124.666 125.563 124.389 125.776C124.112 125.989 123.813 126.165 123.493 126.304V126.368C124.08 126.539 124.57 126.848 124.965 127.296C125.36 127.744 125.557 128.331 125.557 129.056C125.557 129.707 125.392 130.267 125.061 130.736C124.741 131.205 124.288 131.568 123.701 131.824C123.125 132.069 122.469 132.192 121.733 132.192ZM135.193 132V129.312H130.089V128.128C130.537 127.36 130.942 126.587 131.305 125.808C131.678 125.029 132.009 124.229 132.297 123.408C132.595 122.587 132.841 121.728 133.033 120.832H134.537C134.398 121.419 134.227 122.021 134.025 122.64C133.822 123.248 133.598 123.84 133.353 124.416C133.107 124.992 132.862 125.531 132.617 126.032C132.382 126.533 132.158 126.965 131.945 127.328C131.742 127.691 131.577 127.957 131.449 128.128H135.193V124.64C135.257 124.469 135.321 124.293 135.385 124.112C135.459 123.92 135.529 123.728 135.593 123.536C135.657 123.333 135.715 123.147 135.769 122.976C135.822 122.795 135.865 122.624 135.897 122.464H136.601V128.128H138.057V129.312H136.601V132H135.193ZM143.156 132.192C142.388 132.192 141.716 132.048 141.14 131.76C140.564 131.472 140.116 131.061 139.796 130.528C139.476 129.984 139.316 129.339 139.316 128.592H140.74C140.74 129.093 140.846 129.525 141.06 129.888C141.273 130.251 141.561 130.528 141.924 130.72C142.297 130.912 142.708 131.008 143.156 131.008C143.614 131.008 144.02 130.917 144.372 130.736C144.724 130.544 144.996 130.256 145.188 129.872C145.39 129.488 145.492 129.003 145.492 128.416C145.492 127.883 145.401 127.445 145.22 127.104C145.038 126.752 144.777 126.491 144.436 126.32C144.105 126.149 143.721 126.064 143.284 126.064C142.964 126.064 142.66 126.117 142.372 126.224C142.084 126.32 141.822 126.459 141.588 126.64C141.364 126.821 141.177 127.045 141.028 127.312L139.7 127.104L140.164 121.024H146.388V122.336H141.396L141.14 125.76C141.321 125.6 141.524 125.456 141.748 125.328C141.982 125.189 142.249 125.083 142.548 125.008C142.846 124.923 143.188 124.88 143.572 124.88C144.201 124.88 144.772 125.003 145.284 125.248C145.796 125.493 146.201 125.872 146.5 126.384C146.798 126.896 146.948 127.557 146.948 128.368C146.948 129.168 146.793 129.856 146.484 130.432C146.185 131.008 145.753 131.445 145.188 131.744C144.622 132.043 143.945 132.192 143.156 132.192ZM152.456 132.192C151.827 132.192 151.262 132.101 150.76 131.92C150.27 131.739 149.848 131.445 149.496 131.04C149.155 130.635 148.894 130.091 148.712 129.408C148.531 128.715 148.44 127.856 148.44 126.832C148.44 125.701 148.531 124.757 148.712 124C148.894 123.232 149.15 122.619 149.48 122.16C149.822 121.691 150.238 121.355 150.728 121.152C151.23 120.939 151.795 120.832 152.424 120.832C153.214 120.832 153.848 120.981 154.328 121.28C154.819 121.579 155.176 121.984 155.4 122.496C155.624 122.997 155.736 123.573 155.736 124.224H154.296C154.296 123.733 154.227 123.323 154.088 122.992C153.95 122.661 153.731 122.416 153.432 122.256C153.144 122.096 152.782 122.016 152.344 122.016C151.704 122.016 151.203 122.187 150.84 122.528C150.488 122.859 150.243 123.344 150.104 123.984C149.976 124.624 149.907 125.387 149.896 126.272C150.046 126.027 150.254 125.803 150.52 125.6C150.798 125.397 151.123 125.237 151.496 125.12C151.87 124.992 152.264 124.928 152.68 124.928C153.47 124.928 154.12 125.088 154.632 125.408C155.144 125.717 155.523 126.144 155.768 126.688C156.014 127.232 156.136 127.84 156.136 128.512C156.136 129.248 155.976 129.893 155.656 130.448C155.336 131.003 154.899 131.435 154.344 131.744C153.79 132.043 153.16 132.192 152.456 132.192ZM152.36 131.008C152.883 131.008 153.315 130.896 153.656 130.672C153.998 130.437 154.248 130.133 154.408 129.76C154.579 129.376 154.664 128.955 154.664 128.496C154.664 128.059 154.584 127.659 154.424 127.296C154.264 126.933 154.014 126.645 153.672 126.432C153.342 126.208 152.915 126.096 152.392 126.096C151.87 126.096 151.432 126.208 151.08 126.432C150.728 126.656 150.467 126.955 150.296 127.328C150.126 127.691 150.04 128.107 150.04 128.576C150.04 129.013 150.126 129.419 150.296 129.792C150.467 130.165 150.723 130.464 151.064 130.688C151.406 130.901 151.838 131.008 152.36 131.008ZM159.148 132C159.148 131.008 159.276 130.053 159.532 129.136C159.788 128.219 160.119 127.349 160.524 126.528C160.94 125.707 161.393 124.944 161.884 124.24C162.375 123.536 162.855 122.901 163.324 122.336H157.452V121.024H165.18V121.904C164.785 122.363 164.375 122.875 163.948 123.44C163.532 123.995 163.132 124.587 162.748 125.216C162.364 125.835 162.017 126.48 161.708 127.152C161.399 127.824 161.153 128.507 160.972 129.2C160.791 129.883 160.7 130.565 160.7 131.248V132H159.148Z" fill="#020F23"/>
</svg>
