<svg width="225" height="120" viewBox="0 0 225 120" fill="none" xmlns="http://www.w3.org/2000/svg">
<rect width="225" height="120" fill="#FD6F1F"/>
<path d="M55.5 57V70.5C55.5 72.1575 53.4855 73.5 51 73.5C48.5145 73.5 46.5 72.1575 46.5 70.5C46.5 68.8425 48.5145 67.5 51 67.5C53.4855 67.5 55.5 68.8425 55.5 70.5V57V51L73.5 46.5V52.5V66C73.5 67.6575 71.4855 69 69 69C66.5145 69 64.5 67.6575 64.5 66C64.5 64.3425 66.5145 63 69 63C71.4855 63 73.5 64.3425 73.5 66V52.5L55.5 57Z" fill="#020F23"/>
<path d="M55.5 70.5V51L73.5 46.5V66M55.5 70.5C55.5 72.1575 53.4855 73.5 51 73.5C48.5145 73.5 46.5 72.1575 46.5 70.5C46.5 68.8425 48.5145 67.5 51 67.5C53.4855 67.5 55.5 68.8425 55.5 70.5ZM73.5 66C73.5 67.6575 71.4855 69 69 69C66.5145 69 64.5 67.6575 64.5 66C64.5 64.3425 66.5145 63 69 63C71.4855 63 73.5 64.3425 73.5 66ZM55.5 57L73.5 52.5" stroke="#020F23" stroke-width="2" stroke-linecap="round" stroke-linejoin="round"/>
<path d="M88.132 67.5L93.94 52.408H97.988L103.796 67.5H100.254L99.176 64.53H92.598L91.52 67.5H88.132ZM93.544 61.89H98.23L96.888 58.172C96.8293 58.0107 96.756 57.82 96.668 57.6C96.5947 57.3653 96.514 57.1087 96.426 56.83C96.338 56.5513 96.25 56.28 96.162 56.016C96.0887 55.7373 96.0153 55.488 95.942 55.268H95.81C95.7367 55.5467 95.6413 55.8767 95.524 56.258C95.4067 56.6247 95.2893 56.984 95.172 57.336C95.0547 57.6733 94.9593 57.952 94.886 58.172L93.544 61.89ZM105.328 54.234V51.594H108.386V54.234H105.328ZM105.328 67.5V55.928H108.386V67.5H105.328ZM111.193 67.5V55.928H113.723L113.965 57.732H114.119C114.266 57.3507 114.456 57.006 114.691 56.698C114.926 56.3753 115.219 56.1187 115.571 55.928C115.923 55.7373 116.334 55.642 116.803 55.642C117.052 55.642 117.28 55.6713 117.485 55.73C117.69 55.774 117.844 55.818 117.947 55.862V58.634H117.001C116.546 58.634 116.143 58.7 115.791 58.832C115.454 58.9493 115.168 59.14 114.933 59.404C114.698 59.668 114.522 59.9907 114.405 60.372C114.302 60.7533 114.251 61.2007 114.251 61.714V67.5H111.193ZM119.815 67.5V52.408H124.809L126.965 60.13C127.053 60.4087 127.141 60.7387 127.229 61.12C127.317 61.5013 127.405 61.8827 127.493 62.264C127.595 62.6307 127.676 62.9607 127.735 63.254H127.911C127.94 63.0047 127.991 62.7113 128.065 62.374C128.138 62.022 128.219 61.648 128.307 61.252C128.395 60.856 128.49 60.4747 128.593 60.108L130.749 52.408H135.655V67.5H132.421V60.35C132.421 59.69 132.421 59.03 132.421 58.37C132.435 57.6953 132.45 57.1087 132.465 56.61C132.494 56.1113 132.509 55.7887 132.509 55.642H132.333C132.303 55.8033 132.23 56.104 132.113 56.544C132.01 56.9693 131.893 57.424 131.761 57.908C131.643 58.392 131.533 58.81 131.431 59.162L129.077 67.5H126.217L123.841 59.184C123.753 58.876 123.65 58.5167 123.533 58.106C123.43 57.6807 123.327 57.248 123.225 56.808C123.137 56.3533 123.049 55.9647 122.961 55.642H122.785C122.799 56.038 122.814 56.5147 122.829 57.072C122.843 57.6147 122.858 58.1793 122.873 58.766C122.887 59.338 122.895 59.866 122.895 60.35V67.5H119.815ZM142.476 67.764C141.303 67.764 140.371 67.4413 139.682 66.796C138.993 66.1507 138.648 65.1093 138.648 63.672V55.928H141.706V63.166C141.706 63.5473 141.75 63.87 141.838 64.134C141.926 64.3833 142.051 64.5887 142.212 64.75C142.388 64.9113 142.601 65.0287 142.85 65.102C143.099 65.1753 143.378 65.212 143.686 65.212C144.141 65.212 144.551 65.102 144.918 64.882C145.285 64.662 145.571 64.3613 145.776 63.98C145.981 63.584 146.084 63.144 146.084 62.66V55.928H149.142V67.5H146.634L146.414 65.916H146.26C145.981 66.2827 145.651 66.6053 145.27 66.884C144.903 67.1627 144.485 67.3753 144.016 67.522C143.547 67.6833 143.033 67.764 142.476 67.764ZM156.635 67.764C155.828 67.764 155.102 67.676 154.457 67.5C153.812 67.324 153.262 67.082 152.807 66.774C152.352 66.4513 152 66.07 151.751 65.63C151.516 65.19 151.399 64.6913 151.399 64.134C151.399 64.0753 151.399 64.0167 151.399 63.958C151.399 63.8993 151.406 63.8553 151.421 63.826H154.369C154.369 63.8553 154.369 63.8847 154.369 63.914C154.369 63.9433 154.369 63.9727 154.369 64.002C154.384 64.3687 154.501 64.6693 154.721 64.904C154.941 65.124 155.227 65.2853 155.579 65.388C155.946 65.4907 156.327 65.542 156.723 65.542C157.075 65.542 157.412 65.5127 157.735 65.454C158.072 65.3807 158.351 65.256 158.571 65.08C158.806 64.904 158.923 64.6767 158.923 64.398C158.923 64.046 158.776 63.7747 158.483 63.584C158.204 63.3933 157.83 63.2393 157.361 63.122C156.906 63.0047 156.408 62.8727 155.865 62.726C155.366 62.6087 154.868 62.4767 154.369 62.33C153.87 62.1687 153.416 61.9633 153.005 61.714C152.609 61.4647 152.286 61.142 152.037 60.746C151.788 60.3353 151.663 59.822 151.663 59.206C151.663 58.6047 151.795 58.084 152.059 57.644C152.323 57.1893 152.682 56.8153 153.137 56.522C153.606 56.2287 154.149 56.016 154.765 55.884C155.396 55.7373 156.07 55.664 156.789 55.664C157.464 55.664 158.094 55.7373 158.681 55.884C159.268 56.016 159.781 56.2213 160.221 56.5C160.661 56.764 161.006 57.1013 161.255 57.512C161.504 57.908 161.629 58.3553 161.629 58.854C161.629 58.9567 161.629 59.052 161.629 59.14C161.629 59.228 161.622 59.2867 161.607 59.316H158.681V59.14C158.681 58.876 158.6 58.656 158.439 58.48C158.278 58.2893 158.043 58.1427 157.735 58.04C157.442 57.9373 157.082 57.886 156.657 57.886C156.364 57.886 156.092 57.908 155.843 57.952C155.608 57.996 155.403 58.062 155.227 58.15C155.051 58.238 154.912 58.348 154.809 58.48C154.721 58.5973 154.677 58.744 154.677 58.92C154.677 59.1693 154.78 59.3747 154.985 59.536C155.205 59.6827 155.491 59.8073 155.843 59.91C156.195 60.0127 156.584 60.1227 157.009 60.24C157.537 60.3867 158.087 60.5333 158.659 60.68C159.246 60.812 159.788 60.9953 160.287 61.23C160.786 61.4647 161.189 61.802 161.497 62.242C161.805 62.6673 161.959 63.2467 161.959 63.98C161.959 64.684 161.82 65.278 161.541 65.762C161.277 66.246 160.903 66.6347 160.419 66.928C159.935 67.2213 159.37 67.434 158.725 67.566C158.08 67.698 157.383 67.764 156.635 67.764ZM164.174 54.234V51.594H167.232V54.234H164.174ZM164.174 67.5V55.928H167.232V67.5H164.174ZM175.121 67.764C173.889 67.764 172.855 67.5513 172.019 67.126C171.183 66.686 170.545 66.0187 170.105 65.124C169.68 64.2147 169.467 63.078 169.467 61.714C169.467 60.3207 169.68 59.184 170.105 58.304C170.545 57.4093 171.183 56.742 172.019 56.302C172.87 55.862 173.904 55.642 175.121 55.642C175.913 55.642 176.624 55.7373 177.255 55.928C177.9 56.1187 178.458 56.412 178.927 56.808C179.396 57.204 179.748 57.6953 179.983 58.282C180.232 58.854 180.357 59.536 180.357 60.328H177.299C177.299 59.8 177.218 59.3673 177.057 59.03C176.896 58.6927 176.646 58.436 176.309 58.26C175.986 58.084 175.576 57.996 175.077 57.996C174.49 57.996 174.014 58.128 173.647 58.392C173.28 58.656 173.009 59.0447 172.833 59.558C172.657 60.0713 172.569 60.7093 172.569 61.472V61.978C172.569 62.726 172.657 63.3567 172.833 63.87C173.024 64.3833 173.31 64.772 173.691 65.036C174.072 65.2853 174.571 65.41 175.187 65.41C175.686 65.41 176.096 65.322 176.419 65.146C176.756 64.97 177.013 64.706 177.189 64.354C177.365 64.002 177.453 63.5767 177.453 63.078H180.357C180.357 63.826 180.232 64.4933 179.983 65.08C179.748 65.6667 179.396 66.158 178.927 66.554C178.472 66.95 177.922 67.2507 177.277 67.456C176.632 67.6613 175.913 67.764 175.121 67.764Z" fill="#020F23"/>
</svg>
