<svg width="218" height="146" viewBox="0 0 218 146" fill="none" xmlns="http://www.w3.org/2000/svg">
                <path
                    d="M19 23V32C19 33.105 17.657 34 16 34C14.343 34 13 33.105 13 32C13 30.895 14.343 30 16 30C17.657 30 19 30.895 19 32V23V19L31 16V20V29C31 30.105 29.657 31 28 31C26.343 31 25 30.105 25 29C25 27.895 26.343 27 28 27C29.657 27 31 27.895 31 29V20L19 23Z"
                    fill="#020F23" />
                <path
                    d="M19 32V19L31 16V29M19 32C19 33.105 17.657 34 16 34C14.343 34 13 33.105 13 32C13 30.895 14.343 30 16 30C17.657 30 19 30.895 19 32ZM31 29C31 30.105 29.657 31 28 31C26.343 31 25 30.105 25 29C25 27.895 26.343 27 28 27C29.657 27 31 27.895 31 29ZM19 23L31 20"
                    stroke="#020F23" stroke-width="2" stroke-linecap="round" stroke-linejoin="round" />
                <path
                    d="M45.52 32V18.28H50.06L52.02 25.3C52.1 25.5533 52.18 25.8533 52.26 26.2C52.34 26.5467 52.42 26.8933 52.5 27.24C52.5933 27.5733 52.6667 27.8733 52.72 28.14H52.88C52.9067 27.9133 52.9533 27.6467 53.02 27.34C53.0867 27.02 53.16 26.68 53.24 26.32C53.32 25.96 53.4067 25.6133 53.5 25.28L55.46 18.28H59.92V32H56.98V25.5C56.98 24.9 56.98 24.3 56.98 23.7C56.9933 23.0867 57.0067 22.5533 57.02 22.1C57.0467 21.6467 57.06 21.3533 57.06 21.22H56.9C56.8733 21.3667 56.8067 21.64 56.7 22.04C56.6067 22.4267 56.5 22.84 56.38 23.28C56.2733 23.72 56.1733 24.1 56.08 24.42L53.94 32H51.34L49.18 24.44C49.1 24.16 49.0067 23.8333 48.9 23.46C48.8067 23.0733 48.7133 22.68 48.62 22.28C48.54 21.8667 48.46 21.5133 48.38 21.22H48.22C48.2333 21.58 48.2467 22.0133 48.26 22.52C48.2733 23.0133 48.2867 23.5267 48.3 24.06C48.3133 24.58 48.32 25.06 48.32 25.5V32H45.52ZM66.1214 32.24C65.0547 32.24 64.2081 31.9467 63.5814 31.36C62.9547 30.7733 62.6414 29.8267 62.6414 28.52V21.48H65.4214V28.06C65.4214 28.4067 65.4614 28.7 65.5414 28.94C65.6214 29.1667 65.7347 29.3533 65.8814 29.5C66.0414 29.6467 66.2347 29.7533 66.4614 29.82C66.6881 29.8867 66.9414 29.92 67.2214 29.92C67.6347 29.92 68.0081 29.82 68.3414 29.62C68.6747 29.42 68.9347 29.1467 69.1214 28.8C69.3081 28.44 69.4014 28.04 69.4014 27.6V21.48H72.1814V32H69.9014L69.7014 30.56H69.5614C69.3081 30.8933 69.0081 31.1867 68.6614 31.44C68.3281 31.6933 67.9481 31.8867 67.5214 32.02C67.0947 32.1667 66.6281 32.24 66.1214 32.24ZM78.9931 32.24C78.2598 32.24 77.5998 32.16 77.0131 32C76.4265 31.84 75.9265 31.62 75.5131 31.34C75.0998 31.0467 74.7798 30.7 74.5531 30.3C74.3398 29.9 74.2331 29.4467 74.2331 28.94C74.2331 28.8867 74.2331 28.8333 74.2331 28.78C74.2331 28.7267 74.2398 28.6867 74.2531 28.66H76.9331C76.9331 28.6867 76.9331 28.7133 76.9331 28.74C76.9331 28.7667 76.9331 28.7933 76.9331 28.82C76.9465 29.1533 77.0531 29.4267 77.2531 29.64C77.4531 29.84 77.7131 29.9867 78.0331 30.08C78.3665 30.1733 78.7131 30.22 79.0731 30.22C79.3931 30.22 79.6998 30.1933 79.9931 30.14C80.2998 30.0733 80.5531 29.96 80.7531 29.8C80.9665 29.64 81.0731 29.4333 81.0731 29.18C81.0731 28.86 80.9398 28.6133 80.6731 28.44C80.4198 28.2667 80.0798 28.1267 79.6531 28.02C79.2398 27.9133 78.7865 27.7933 78.2931 27.66C77.8398 27.5533 77.3865 27.4333 76.9331 27.3C76.4798 27.1533 76.0665 26.9667 75.6931 26.74C75.3331 26.5133 75.0398 26.22 74.8131 25.86C74.5865 25.4867 74.4731 25.02 74.4731 24.46C74.4731 23.9133 74.5931 23.44 74.8331 23.04C75.0731 22.6267 75.3998 22.2867 75.8131 22.02C76.2398 21.7533 76.7331 21.56 77.2931 21.44C77.8665 21.3067 78.4798 21.24 79.1331 21.24C79.7465 21.24 80.3198 21.3067 80.8531 21.44C81.3865 21.56 81.8531 21.7467 82.2531 22C82.6531 22.24 82.9665 22.5467 83.1931 22.92C83.4198 23.28 83.5331 23.6867 83.5331 24.14C83.5331 24.2333 83.5331 24.32 83.5331 24.4C83.5331 24.48 83.5265 24.5333 83.5131 24.56H80.8531V24.4C80.8531 24.16 80.7798 23.96 80.6331 23.8C80.4865 23.6267 80.2731 23.4933 79.9931 23.4C79.7265 23.3067 79.3998 23.26 79.0131 23.26C78.7465 23.26 78.4998 23.28 78.2731 23.32C78.0598 23.36 77.8731 23.42 77.7131 23.5C77.5531 23.58 77.4265 23.68 77.3331 23.8C77.2531 23.9067 77.2131 24.04 77.2131 24.2C77.2131 24.4267 77.3065 24.6133 77.4931 24.76C77.6931 24.8933 77.9531 25.0067 78.2731 25.1C78.5931 25.1933 78.9465 25.2933 79.3331 25.4C79.8131 25.5333 80.3131 25.6667 80.8331 25.8C81.3665 25.92 81.8598 26.0867 82.3131 26.3C82.7665 26.5133 83.1331 26.82 83.4131 27.22C83.6931 27.6067 83.8331 28.1333 83.8331 28.8C83.8331 29.44 83.7065 29.98 83.4531 30.42C83.2131 30.86 82.8731 31.2133 82.4331 31.48C81.9931 31.7467 81.4798 31.94 80.8931 32.06C80.3065 32.18 79.6731 32.24 78.9931 32.24ZM85.8464 19.94V17.54H88.6264V19.94H85.8464ZM85.8464 32V21.48H88.6264V32H85.8464ZM95.7984 32.24C94.6784 32.24 93.7384 32.0467 92.9784 31.66C92.2184 31.26 91.6384 30.6533 91.2384 29.84C90.8518 29.0133 90.6584 27.98 90.6584 26.74C90.6584 25.4733 90.8518 24.44 91.2384 23.64C91.6384 22.8267 92.2184 22.22 92.9784 21.82C93.7518 21.42 94.6918 21.22 95.7984 21.22C96.5184 21.22 97.1651 21.3067 97.7384 21.48C98.3251 21.6533 98.8318 21.92 99.2584 22.28C99.6851 22.64 100.005 23.0867 100.218 23.62C100.445 24.14 100.558 24.76 100.558 25.48H97.7784C97.7784 25 97.7051 24.6067 97.5584 24.3C97.4118 23.9933 97.1851 23.76 96.8784 23.6C96.5851 23.44 96.2118 23.36 95.7584 23.36C95.2251 23.36 94.7918 23.48 94.4584 23.72C94.1251 23.96 93.8784 24.3133 93.7184 24.78C93.5584 25.2467 93.4784 25.8267 93.4784 26.52V26.98C93.4784 27.66 93.5584 28.2333 93.7184 28.7C93.8918 29.1667 94.1518 29.52 94.4984 29.76C94.8451 29.9867 95.2984 30.1 95.8584 30.1C96.3118 30.1 96.6851 30.02 96.9784 29.86C97.2851 29.7 97.5184 29.46 97.6784 29.14C97.8384 28.82 97.9184 28.4333 97.9184 27.98H100.558C100.558 28.66 100.445 29.2667 100.218 29.8C100.005 30.3333 99.6851 30.78 99.2584 31.14C98.8451 31.5 98.3451 31.7733 97.7584 31.96C97.1718 32.1467 96.5184 32.24 95.7984 32.24ZM102.883 32V18.28H110.723C111.443 18.28 112.09 18.42 112.663 18.7C113.25 18.98 113.71 19.3733 114.043 19.88C114.377 20.3867 114.543 20.98 114.543 21.66C114.543 22.2067 114.443 22.6933 114.243 23.12C114.043 23.5467 113.77 23.9 113.423 24.18C113.09 24.46 112.71 24.6667 112.283 24.8V24.88C112.79 24.9867 113.237 25.1867 113.623 25.48C114.023 25.7733 114.337 26.1533 114.563 26.62C114.803 27.0733 114.923 27.6133 114.923 28.24C114.923 29.0667 114.73 29.76 114.343 30.32C113.97 30.88 113.47 31.3 112.843 31.58C112.217 31.86 111.517 32 110.743 32H102.883ZM105.863 29.56H110.163C110.657 29.56 111.057 29.42 111.363 29.14C111.683 28.86 111.843 28.4267 111.843 27.84C111.843 27.4933 111.777 27.1933 111.643 26.94C111.51 26.6867 111.31 26.4933 111.043 26.36C110.777 26.2133 110.437 26.14 110.023 26.14H105.863V29.56ZM105.863 23.82H109.823C110.183 23.82 110.483 23.7533 110.723 23.62C110.977 23.4733 111.163 23.2867 111.283 23.06C111.417 22.82 111.483 22.5467 111.483 22.24C111.483 21.72 111.337 21.3267 111.043 21.06C110.763 20.7933 110.39 20.66 109.923 20.66H105.863V23.82ZM121.917 32.24C120.77 32.24 119.797 32.0467 118.997 31.66C118.197 31.26 117.59 30.6533 117.177 29.84C116.764 29.0133 116.557 27.98 116.557 26.74C116.557 25.4733 116.764 24.44 117.177 23.64C117.59 22.8267 118.197 22.2267 118.997 21.84C119.797 21.44 120.77 21.24 121.917 21.24C123.09 21.24 124.07 21.44 124.857 21.84C125.657 22.2267 126.264 22.8267 126.677 23.64C127.09 24.44 127.297 25.4733 127.297 26.74C127.297 27.98 127.09 29.0133 126.677 29.84C126.264 30.6533 125.657 31.26 124.857 31.66C124.07 32.0467 123.09 32.24 121.917 32.24ZM121.917 30.08C122.53 30.08 123.017 29.9667 123.377 29.74C123.75 29.5133 124.024 29.1667 124.197 28.7C124.37 28.2333 124.457 27.66 124.457 26.98V26.5C124.457 25.82 124.37 25.2467 124.197 24.78C124.024 24.3133 123.75 23.9667 123.377 23.74C123.017 23.5 122.53 23.38 121.917 23.38C121.317 23.38 120.83 23.5 120.457 23.74C120.097 23.9667 119.83 24.3133 119.657 24.78C119.484 25.2467 119.397 25.82 119.397 26.5V26.98C119.397 27.66 119.484 28.2333 119.657 28.7C119.83 29.1667 120.097 29.5133 120.457 29.74C120.83 29.9667 121.317 30.08 121.917 30.08ZM127.676 32L131.496 26.54L127.956 21.48H131.296L133.296 24.64H133.396L135.416 21.48H138.556L134.996 26.52L138.756 32H135.476L133.196 28.42H133.096L130.816 32H127.676Z"
                    fill="#020F23" />
                <path
                    d="M12 75.8335L17.26 79.3402C17.4791 79.4863 17.7366 79.5644 18 79.5644C18.2634 79.5644 18.5209 79.4863 18.74 79.3402L24 75.8335M13.3333 83.1668H22.6667C23.0203 83.1668 23.3594 83.0264 23.6095 82.7763C23.8595 82.5263 24 82.1871 24 81.8335V75.1668C24 74.8132 23.8595 74.4741 23.6095 74.224C23.3594 73.974 23.0203 73.8335 22.6667 73.8335H13.3333C12.9797 73.8335 12.6406 73.974 12.3905 74.224C12.1405 74.4741 12 74.8132 12 75.1668V81.8335C12 82.1871 12.1405 82.5263 12.3905 82.7763C12.6406 83.0264 12.9797 83.1668 13.3333 83.1668Z"
                    stroke="#020F23" stroke-width="2" stroke-linecap="round" stroke-linejoin="round" />
                <path
                    d="M42.4478 74V72.432H43.8558V74H42.4478ZM42.4478 84V75.584H43.8558V84H42.4478ZM46.0415 84V75.584H47.1775L47.3055 76.848H47.4175C47.6415 76.5067 47.8922 76.2293 48.1695 76.016C48.4575 75.8027 48.7722 75.648 49.1135 75.552C49.4655 75.4453 49.8388 75.392 50.2335 75.392C50.7668 75.392 51.2308 75.4827 51.6255 75.664C52.0308 75.8453 52.3455 76.1387 52.5695 76.544C52.8042 76.9493 52.9215 77.4987 52.9215 78.192V84H51.5135V78.384C51.5135 78.032 51.4655 77.744 51.3695 77.52C51.2842 77.296 51.1615 77.12 51.0015 76.992C50.8522 76.864 50.6655 76.7733 50.4415 76.72C50.2282 76.6667 49.9882 76.64 49.7215 76.64C49.3268 76.64 48.9535 76.736 48.6015 76.928C48.2495 77.12 47.9668 77.3973 47.7535 77.76C47.5508 78.1227 47.4495 78.5547 47.4495 79.056V84H46.0415ZM55.3931 84V76.768H54.1451V75.584H55.3931V74.24C55.3931 73.9093 55.4411 73.6 55.5371 73.312C55.6331 73.0133 55.8145 72.7733 56.0811 72.592C56.3478 72.4 56.7211 72.304 57.2011 72.304C57.3505 72.304 57.4945 72.3147 57.6331 72.336C57.7825 72.3467 57.9211 72.368 58.0491 72.4C58.1878 72.4213 58.3105 72.448 58.4171 72.48V73.488H57.5691C57.3025 73.488 57.1051 73.5573 56.9771 73.696C56.8598 73.824 56.8011 74.0107 56.8011 74.256V75.584H58.4171V76.768H56.8011V84H55.3931ZM62.9194 84.192C62.066 84.192 61.346 84.0373 60.7594 83.728C60.1834 83.408 59.7407 82.9227 59.4314 82.272C59.1327 81.6213 58.9834 80.7947 58.9834 79.792C58.9834 78.7787 59.1327 77.952 59.4314 77.312C59.7407 76.6613 60.1834 76.1813 60.7594 75.872C61.346 75.552 62.066 75.392 62.9194 75.392C63.7727 75.392 64.4874 75.552 65.0634 75.872C65.65 76.1813 66.0927 76.6613 66.3914 77.312C66.69 77.952 66.8394 78.7787 66.8394 79.792C66.8394 80.7947 66.69 81.6213 66.3914 82.272C66.0927 82.9227 65.65 83.408 65.0634 83.728C64.4874 84.0373 63.7727 84.192 62.9194 84.192ZM62.9194 83.008C63.4634 83.008 63.9167 82.9013 64.2794 82.688C64.642 82.4747 64.914 82.144 65.0954 81.696C65.2874 81.2373 65.3834 80.6613 65.3834 79.968V79.616C65.3834 78.912 65.2874 78.336 65.0954 77.888C64.914 77.44 64.642 77.1093 64.2794 76.896C63.9167 76.6827 63.4634 76.576 62.9194 76.576C62.3754 76.576 61.9167 76.6827 61.5434 76.896C61.1807 77.1093 60.9087 77.44 60.7274 77.888C60.546 78.336 60.4554 78.912 60.4554 79.616V79.968C60.4554 80.6613 60.546 81.2373 60.7274 81.696C60.9087 82.144 61.1807 82.4747 61.5434 82.688C61.9167 82.9013 62.3754 83.008 62.9194 83.008ZM75.1004 86.448C73.7137 86.448 72.5084 86.2133 71.4844 85.744C70.471 85.2853 69.687 84.5653 69.1324 83.584C68.5777 82.6027 68.3004 81.344 68.3004 79.808C68.3004 78.528 68.4977 77.4453 68.8924 76.56C69.287 75.6747 69.8257 74.96 70.5084 74.416C71.191 73.8613 71.975 73.4613 72.8604 73.216C73.7564 72.96 74.7004 72.832 75.6924 72.832C76.7057 72.832 77.639 72.9493 78.4924 73.184C79.3457 73.408 80.087 73.76 80.7164 74.24C81.3564 74.72 81.8524 75.344 82.2044 76.112C82.5564 76.8693 82.7324 77.7867 82.7324 78.864C82.7324 79.5893 82.6577 80.2187 82.5084 80.752C82.359 81.2853 82.1564 81.7387 81.9004 82.112C81.6444 82.4747 81.3564 82.7733 81.0364 83.008C80.727 83.232 80.407 83.3973 80.0764 83.504C79.7457 83.6 79.431 83.648 79.1324 83.648C78.695 83.648 78.3537 83.5893 78.1084 83.472C77.8737 83.3547 77.703 83.2053 77.5964 83.024C77.4897 82.8427 77.431 82.6667 77.4204 82.496H77.3244C77.143 82.7413 76.919 82.9547 76.6524 83.136C76.3857 83.3067 76.087 83.44 75.7564 83.536C75.4257 83.6213 75.063 83.664 74.6684 83.664C74.391 83.664 74.1084 83.632 73.8204 83.568C73.5324 83.4933 73.271 83.3813 73.0364 83.232C72.8017 83.072 72.6097 82.8533 72.4604 82.576C72.3217 82.2987 72.2524 81.9573 72.2524 81.552C72.2524 81.0187 72.375 80.5867 72.6204 80.256C72.8764 79.9147 73.2337 79.6533 73.6924 79.472C74.151 79.28 74.6897 79.1467 75.3084 79.072C75.927 78.9867 76.599 78.944 77.3244 78.944V78.08C77.3244 77.8027 77.271 77.5627 77.1644 77.36C77.0684 77.1467 76.8977 76.9867 76.6524 76.88C76.407 76.7627 76.0497 76.704 75.5804 76.704C75.143 76.704 74.7964 76.7627 74.5404 76.88C74.295 76.9867 74.119 77.1307 74.0124 77.312C73.9164 77.4933 73.8684 77.6853 73.8684 77.888V78.112H72.6204C72.6097 78.0587 72.6044 78.0107 72.6044 77.968C72.6044 77.9147 72.6044 77.856 72.6044 77.792C72.6044 77.3227 72.7324 76.9333 72.9884 76.624C73.2444 76.304 73.6017 76.064 74.0604 75.904C74.5297 75.744 75.0737 75.664 75.6924 75.664C76.3324 75.664 76.8657 75.7547 77.2924 75.936C77.7297 76.1067 78.055 76.3627 78.2684 76.704C78.4924 77.0347 78.6044 77.4453 78.6044 77.936V81.936C78.6044 82.1813 78.663 82.3573 78.7804 82.464C78.8977 82.5707 79.0844 82.624 79.3404 82.624C79.7244 82.624 80.0924 82.5067 80.4444 82.272C80.807 82.0373 81.1057 81.648 81.3404 81.104C81.5857 80.5493 81.7084 79.7973 81.7084 78.848C81.7084 77.6533 81.4524 76.6827 80.9404 75.936C80.4284 75.1893 79.719 74.64 78.8124 74.288C77.9164 73.936 76.871 73.76 75.6764 73.76C74.3857 73.76 73.2604 73.984 72.3004 74.432C71.351 74.8693 70.615 75.536 70.0924 76.432C69.5804 77.328 69.3244 78.4587 69.3244 79.824C69.3244 81.712 69.7937 83.1307 70.7324 84.08C71.671 85.04 73.127 85.52 75.1004 85.52C75.3777 85.52 75.703 85.4933 76.0764 85.44C76.4604 85.3973 76.8284 85.3387 77.1804 85.264C77.5324 85.2 77.815 85.12 78.0284 85.024V86.016C77.783 86.1013 77.479 86.176 77.1164 86.24C76.7644 86.304 76.4017 86.352 76.0284 86.384C75.6657 86.4267 75.3564 86.448 75.1004 86.448ZM74.9884 82.624C75.3084 82.624 75.607 82.576 75.8844 82.48C76.1617 82.3733 76.407 82.2293 76.6204 82.048C76.8444 81.8667 77.015 81.648 77.1324 81.392C77.2604 81.136 77.3244 80.848 77.3244 80.528V79.92C76.535 79.92 75.8577 79.968 75.2924 80.064C74.7377 80.1493 74.311 80.304 74.0124 80.528C73.7244 80.7413 73.5804 81.0507 73.5804 81.456C73.5804 81.7227 73.639 81.9413 73.7564 82.112C73.8737 82.2827 74.039 82.4107 74.2524 82.496C74.4657 82.5813 74.711 82.624 74.9884 82.624ZM88.6665 84.192C88.1012 84.192 87.5945 84.08 87.1465 83.856C86.6985 83.6213 86.3305 83.2693 86.0425 82.8H85.9305L85.7865 84H84.6665V72.432H86.0745V76.64H86.1705C86.3625 76.3413 86.5865 76.1013 86.8425 75.92C87.0985 75.7387 87.3865 75.6053 87.7065 75.52C88.0265 75.4347 88.3678 75.392 88.7305 75.392C89.3812 75.392 89.9518 75.5467 90.4425 75.856C90.9332 76.1653 91.3118 76.64 91.5785 77.28C91.8558 77.92 91.9945 78.736 91.9945 79.728C91.9945 80.7733 91.8612 81.6267 91.5945 82.288C91.3278 82.9387 90.9492 83.4187 90.4585 83.728C89.9678 84.0373 89.3705 84.192 88.6665 84.192ZM88.3305 82.96C88.8105 82.96 89.2105 82.864 89.5305 82.672C89.8612 82.48 90.1118 82.1653 90.2825 81.728C90.4532 81.28 90.5385 80.6933 90.5385 79.968V79.632C90.5385 78.928 90.4585 78.3573 90.2985 77.92C90.1385 77.472 89.8932 77.1467 89.5625 76.944C89.2318 76.7307 88.8052 76.624 88.2825 76.624C87.9838 76.624 87.7012 76.672 87.4345 76.768C87.1678 76.864 86.9278 77.0293 86.7145 77.264C86.5118 77.4987 86.3518 77.8133 86.2345 78.208C86.1278 78.6027 86.0745 79.088 86.0745 79.664V79.92C86.0745 80.5813 86.1492 81.136 86.2985 81.584C86.4585 82.032 86.7038 82.3733 87.0345 82.608C87.3758 82.8427 87.8078 82.96 88.3305 82.96ZM96.3526 84.192C95.542 84.192 94.8913 83.984 94.4006 83.568C93.91 83.152 93.6646 82.4267 93.6646 81.392V75.584H95.0726V81.2C95.0726 81.552 95.1153 81.84 95.2006 82.064C95.286 82.288 95.4086 82.464 95.5686 82.592C95.7286 82.72 95.9153 82.8107 96.1286 82.864C96.3526 82.9173 96.5926 82.944 96.8486 82.944C97.254 82.944 97.6273 82.848 97.9686 82.656C98.31 82.464 98.5873 82.1867 98.8006 81.824C99.0246 81.4507 99.1366 81.0187 99.1366 80.528V75.584H100.545V84H99.4086L99.2806 82.736H99.1686C98.9446 83.0773 98.6886 83.3547 98.4006 83.568C98.1233 83.7813 97.8086 83.936 97.4566 84.032C97.1153 84.1387 96.7473 84.192 96.3526 84.192ZM104.697 84.192C104.26 84.192 103.918 84.112 103.673 83.952C103.428 83.7813 103.252 83.5627 103.145 83.296C103.038 83.0187 102.985 82.7253 102.985 82.416V76.768H101.897V75.584H103.017L103.273 73.232H104.393V75.584H105.977V76.768H104.393V82.208C104.393 82.4747 104.441 82.6773 104.537 82.816C104.633 82.944 104.814 83.008 105.081 83.008H105.977V83.936C105.87 83.9893 105.742 84.032 105.593 84.064C105.444 84.096 105.289 84.1227 105.129 84.144C104.98 84.176 104.836 84.192 104.697 84.192ZM109.447 84.192C109.01 84.192 108.668 84.112 108.423 83.952C108.178 83.7813 108.002 83.5627 107.895 83.296C107.788 83.0187 107.735 82.7253 107.735 82.416V76.768H106.647V75.584H107.767L108.023 73.232H109.143V75.584H110.727V76.768H109.143V82.208C109.143 82.4747 109.191 82.6773 109.287 82.816C109.383 82.944 109.564 83.008 109.831 83.008H110.727V83.936C110.62 83.9893 110.492 84.032 110.343 84.064C110.194 84.096 110.039 84.1227 109.879 84.144C109.73 84.176 109.586 84.192 109.447 84.192ZM115.589 84.192C114.757 84.192 114.053 84.0373 113.477 83.728C112.912 83.408 112.48 82.9227 112.181 82.272C111.893 81.6213 111.749 80.7947 111.749 79.792C111.749 78.7787 111.893 77.952 112.181 77.312C112.48 76.6613 112.917 76.1813 113.493 75.872C114.069 75.552 114.789 75.392 115.653 75.392C116.442 75.392 117.104 75.5467 117.637 75.856C118.17 76.1547 118.57 76.608 118.837 77.216C119.114 77.8133 119.253 78.5653 119.253 79.472V80.144H113.205C113.226 80.816 113.322 81.3707 113.493 81.808C113.674 82.2347 113.941 82.5493 114.293 82.752C114.645 82.944 115.088 83.04 115.621 83.04C115.984 83.04 116.298 82.9973 116.565 82.912C116.842 82.816 117.072 82.6827 117.253 82.512C117.445 82.3413 117.589 82.1387 117.685 81.904C117.781 81.6693 117.834 81.4133 117.845 81.136H119.221C119.21 81.584 119.125 82 118.965 82.384C118.805 82.7573 118.57 83.0773 118.261 83.344C117.952 83.6107 117.573 83.8187 117.125 83.968C116.677 84.1173 116.165 84.192 115.589 84.192ZM113.237 79.088H117.797C117.797 78.6187 117.744 78.224 117.637 77.904C117.53 77.584 117.376 77.3227 117.173 77.12C116.981 76.9173 116.752 76.7733 116.485 76.688C116.229 76.592 115.936 76.544 115.605 76.544C115.114 76.544 114.698 76.6347 114.357 76.816C114.016 76.9973 113.754 77.2747 113.573 77.648C113.392 78.0213 113.28 78.5013 113.237 79.088ZM120.995 84V75.584H122.131L122.259 76.976H122.371C122.456 76.7093 122.573 76.4587 122.723 76.224C122.872 75.9787 123.075 75.7813 123.331 75.632C123.587 75.472 123.901 75.392 124.275 75.392C124.435 75.392 124.579 75.408 124.707 75.44C124.845 75.4613 124.947 75.488 125.011 75.52V76.816H124.483C124.12 76.816 123.805 76.88 123.539 77.008C123.283 77.1253 123.069 77.296 122.899 77.52C122.728 77.744 122.6 78.0107 122.515 78.32C122.44 78.6293 122.403 78.96 122.403 79.312V84H120.995ZM126.643 84V76.768H125.395V75.584H126.643V74.24C126.643 73.9093 126.691 73.6 126.787 73.312C126.883 73.0133 127.064 72.7733 127.331 72.592C127.598 72.4 127.971 72.304 128.451 72.304C128.6 72.304 128.744 72.3147 128.883 72.336C129.032 72.3467 129.171 72.368 129.299 72.4C129.438 72.4213 129.56 72.448 129.667 72.48V73.488H128.819C128.552 73.488 128.355 73.5573 128.227 73.696C128.11 73.824 128.051 74.0107 128.051 74.256V75.584H129.667V76.768H128.051V84H126.643ZM130.787 84V72.432H132.195V84H130.787ZM135.121 86.912C134.865 86.912 134.641 86.8907 134.449 86.848C134.268 86.816 134.145 86.7947 134.081 86.784V85.76H134.785C135.041 85.76 135.292 85.7067 135.537 85.6C135.782 85.4933 136.012 85.312 136.225 85.056C136.438 84.8 136.62 84.448 136.769 84L133.505 75.584H134.977L136.657 79.92C136.732 80.1227 136.817 80.3733 136.913 80.672C137.02 80.96 137.121 81.2587 137.217 81.568C137.324 81.8773 137.409 82.1493 137.473 82.384H137.569C137.612 82.2133 137.665 82.0213 137.729 81.808C137.793 81.5947 137.857 81.376 137.921 81.152C137.996 80.9173 138.065 80.6987 138.129 80.496C138.204 80.2827 138.262 80.096 138.305 79.936L139.729 75.584H141.153L138.305 83.76C138.145 84.2187 137.969 84.64 137.777 85.024C137.585 85.4187 137.372 85.7547 137.137 86.032C136.902 86.3093 136.62 86.5227 136.289 86.672C135.958 86.832 135.569 86.912 135.121 86.912ZM145.249 84.192C144.556 84.192 143.959 84.0373 143.457 83.728C142.967 83.4187 142.583 82.9387 142.305 82.288C142.039 81.6267 141.905 80.7733 141.905 79.728C141.905 78.736 142.044 77.92 142.321 77.28C142.599 76.64 142.983 76.1653 143.473 75.856C143.964 75.5467 144.535 75.392 145.185 75.392C145.559 75.392 145.905 75.4347 146.225 75.52C146.545 75.6053 146.828 75.7387 147.073 75.92C147.329 76.1013 147.553 76.3413 147.745 76.64H147.841V72.432H149.249V84H148.113L147.985 82.8H147.873C147.585 83.2693 147.212 83.6213 146.753 83.856C146.295 84.08 145.793 84.192 145.249 84.192ZM145.585 82.96C146.119 82.96 146.551 82.8427 146.881 82.608C147.212 82.3733 147.452 82.032 147.601 81.584C147.761 81.136 147.841 80.5813 147.841 79.92V79.664C147.841 79.088 147.783 78.6027 147.665 78.208C147.548 77.8133 147.388 77.4987 147.185 77.264C146.983 77.0293 146.748 76.864 146.481 76.768C146.215 76.672 145.932 76.624 145.633 76.624C145.111 76.624 144.684 76.7307 144.353 76.944C144.023 77.1467 143.777 77.472 143.617 77.92C143.457 78.3573 143.377 78.928 143.377 79.632V79.968C143.377 80.6933 143.463 81.28 143.633 81.728C143.804 82.1653 144.049 82.48 144.369 82.672C144.7 82.864 145.105 82.96 145.585 82.96ZM154.823 84.192C153.991 84.192 153.287 84.0373 152.711 83.728C152.146 83.408 151.714 82.9227 151.415 82.272C151.127 81.6213 150.983 80.7947 150.983 79.792C150.983 78.7787 151.127 77.952 151.415 77.312C151.714 76.6613 152.151 76.1813 152.727 75.872C153.303 75.552 154.023 75.392 154.887 75.392C155.677 75.392 156.338 75.5467 156.871 75.856C157.405 76.1547 157.805 76.608 158.071 77.216C158.349 77.8133 158.487 78.5653 158.487 79.472V80.144H152.439C152.461 80.816 152.557 81.3707 152.727 81.808C152.909 82.2347 153.175 82.5493 153.527 82.752C153.879 82.944 154.322 83.04 154.855 83.04C155.218 83.04 155.533 82.9973 155.799 82.912C156.077 82.816 156.306 82.6827 156.487 82.512C156.679 82.3413 156.823 82.1387 156.919 81.904C157.015 81.6693 157.069 81.4133 157.079 81.136H158.455C158.445 81.584 158.359 82 158.199 82.384C158.039 82.7573 157.805 83.0773 157.495 83.344C157.186 83.6107 156.807 83.8187 156.359 83.968C155.911 84.1173 155.399 84.192 154.823 84.192ZM152.471 79.088H157.031C157.031 78.6187 156.978 78.224 156.871 77.904C156.765 77.584 156.61 77.3227 156.407 77.12C156.215 76.9173 155.986 76.7733 155.719 76.688C155.463 76.592 155.17 76.544 154.839 76.544C154.349 76.544 153.933 76.6347 153.591 76.816C153.25 76.9973 152.989 77.2747 152.807 77.648C152.626 78.0213 152.514 78.5013 152.471 79.088ZM163.173 84.192C162.597 84.192 162.09 84.1333 161.653 84.016C161.216 83.8987 160.853 83.728 160.565 83.504C160.277 83.28 160.058 83.0133 159.909 82.704C159.76 82.3947 159.685 82.0427 159.685 81.648C159.685 81.5947 159.685 81.5467 159.685 81.504C159.685 81.4507 159.69 81.408 159.701 81.376H161.093C161.082 81.4187 161.077 81.456 161.077 81.488C161.077 81.52 161.077 81.552 161.077 81.584C161.088 81.9573 161.184 82.2507 161.365 82.464C161.557 82.6773 161.818 82.8267 162.149 82.912C162.48 82.9973 162.848 83.04 163.253 83.04C163.605 83.04 163.93 82.9973 164.229 82.912C164.528 82.816 164.762 82.6773 164.933 82.496C165.114 82.304 165.205 82.064 165.205 81.776C165.205 81.424 165.088 81.1573 164.853 80.976C164.629 80.784 164.33 80.6347 163.957 80.528C163.584 80.4213 163.194 80.3093 162.789 80.192C162.448 80.096 162.106 79.9893 161.765 79.872C161.424 79.7547 161.114 79.6107 160.837 79.44C160.57 79.2693 160.352 79.0507 160.181 78.784C160.021 78.5067 159.941 78.16 159.941 77.744C159.941 77.3707 160.016 77.04 160.165 76.752C160.325 76.464 160.549 76.2187 160.837 76.016C161.125 75.8133 161.472 75.664 161.877 75.568C162.293 75.4613 162.752 75.408 163.253 75.408C163.786 75.408 164.25 75.4667 164.645 75.584C165.05 75.7013 165.386 75.8667 165.653 76.08C165.92 76.2933 166.117 76.5387 166.245 76.816C166.373 77.0827 166.437 77.3707 166.437 77.68C166.437 77.744 166.437 77.808 166.437 77.872C166.437 77.9253 166.432 77.968 166.421 78H165.045V77.824C165.045 77.6107 164.986 77.408 164.869 77.216C164.762 77.0133 164.57 76.8533 164.293 76.736C164.026 76.608 163.653 76.544 163.173 76.544C162.864 76.544 162.597 76.5707 162.373 76.624C162.149 76.6667 161.962 76.7413 161.813 76.848C161.664 76.944 161.552 77.0613 161.477 77.2C161.402 77.328 161.365 77.4773 161.365 77.648C161.365 77.9253 161.456 78.1387 161.637 78.288C161.818 78.4373 162.058 78.56 162.357 78.656C162.666 78.752 162.997 78.8587 163.349 78.976C163.722 79.0827 164.101 79.1947 164.485 79.312C164.88 79.4187 165.237 79.5573 165.557 79.728C165.888 79.8987 166.149 80.1333 166.341 80.432C166.544 80.72 166.645 81.104 166.645 81.584C166.645 82.032 166.56 82.4213 166.389 82.752C166.218 83.0827 165.973 83.3547 165.653 83.568C165.344 83.7813 164.976 83.936 164.549 84.032C164.133 84.1387 163.674 84.192 163.173 84.192ZM168.385 74V72.432H169.793V74H168.385ZM168.385 84V75.584H169.793V84H168.385ZM173.403 86.912C172.998 86.912 172.624 86.8267 172.283 86.656C171.942 86.496 171.67 86.2613 171.467 85.952C171.264 85.6427 171.163 85.2747 171.163 84.848C171.163 84.3787 171.291 83.9893 171.547 83.68C171.814 83.3707 172.128 83.1413 172.491 82.992C172.224 82.864 172.016 82.688 171.867 82.464C171.718 82.2293 171.643 81.9733 171.643 81.696C171.643 81.3227 171.776 81.008 172.043 80.752C172.32 80.496 172.656 80.3253 173.051 80.24C172.688 80.0053 172.4 79.7067 172.187 79.344C171.984 78.9707 171.883 78.56 171.883 78.112C171.883 77.5787 172.006 77.1093 172.251 76.704C172.507 76.2987 172.891 75.9787 173.403 75.744C173.926 75.5093 174.56 75.392 175.307 75.392C175.648 75.392 175.968 75.4187 176.267 75.472C176.566 75.5147 176.832 75.5893 177.067 75.696C177.44 75.5253 177.718 75.3067 177.899 75.04C178.091 74.7733 178.208 74.5013 178.251 74.224H179.643C179.643 74.544 179.568 74.848 179.419 75.136C179.28 75.4133 179.088 75.648 178.843 75.84C178.598 76.0213 178.299 76.144 177.947 76.208C178.214 76.464 178.411 76.752 178.539 77.072C178.678 77.392 178.747 77.7387 178.747 78.112C178.747 78.6453 178.619 79.12 178.363 79.536C178.118 79.9413 177.744 80.2613 177.243 80.496C176.742 80.7307 176.112 80.848 175.355 80.848H174.043C173.755 80.848 173.52 80.9067 173.339 81.024C173.158 81.1307 173.067 81.3067 173.067 81.552C173.067 81.7653 173.158 81.9413 173.339 82.08C173.52 82.208 173.755 82.272 174.043 82.272H177.467C178.086 82.272 178.592 82.48 178.987 82.896C179.382 83.3013 179.579 83.824 179.579 84.464C179.579 84.9227 179.462 85.3333 179.227 85.696C179.003 86.0693 178.683 86.3627 178.267 86.576C177.862 86.8 177.387 86.912 176.843 86.912H173.403ZM173.803 85.84H176.827C177.072 85.84 177.296 85.7867 177.499 85.68C177.702 85.584 177.862 85.4453 177.979 85.264C178.096 85.0827 178.155 84.8853 178.155 84.672C178.155 84.3093 178.048 84.0213 177.835 83.808C177.622 83.5947 177.355 83.488 177.035 83.488H173.803C173.462 83.488 173.174 83.6053 172.939 83.84C172.704 84.064 172.587 84.3413 172.587 84.672C172.587 85.024 172.704 85.3067 172.939 85.52C173.174 85.7333 173.462 85.84 173.803 85.84ZM175.323 79.792C176.006 79.792 176.512 79.6427 176.843 79.344C177.174 79.0453 177.339 78.6347 177.339 78.112C177.339 77.6 177.174 77.1947 176.843 76.896C176.512 76.5973 176.006 76.448 175.323 76.448C174.64 76.448 174.128 76.5973 173.787 76.896C173.456 77.1947 173.291 77.6 173.291 78.112C173.291 78.4427 173.366 78.736 173.515 78.992C173.664 79.248 173.888 79.4453 174.187 79.584C174.486 79.7227 174.864 79.792 175.323 79.792ZM180.87 84V75.584H182.006L182.134 76.848H182.246C182.47 76.5067 182.72 76.2293 182.998 76.016C183.286 75.8027 183.6 75.648 183.942 75.552C184.294 75.4453 184.667 75.392 185.062 75.392C185.595 75.392 186.059 75.4827 186.454 75.664C186.859 75.8453 187.174 76.1387 187.398 76.544C187.632 76.9493 187.75 77.4987 187.75 78.192V84H186.342V78.384C186.342 78.032 186.294 77.744 186.198 77.52C186.112 77.296 185.99 77.12 185.83 76.992C185.68 76.864 185.494 76.7733 185.27 76.72C185.056 76.6667 184.816 76.64 184.55 76.64C184.155 76.64 183.782 76.736 183.43 76.928C183.078 77.12 182.795 77.3973 182.582 77.76C182.379 78.1227 182.278 78.5547 182.278 79.056V84H180.87ZM190.205 84V82.32H191.773V84H190.205ZM194.323 84V72.432H195.731V76.64H195.843C196.056 76.352 196.296 76.1173 196.563 75.936C196.829 75.7547 197.123 75.6213 197.443 75.536C197.773 75.44 198.131 75.392 198.515 75.392C199.048 75.392 199.512 75.4827 199.907 75.664C200.312 75.8453 200.627 76.1387 200.851 76.544C201.085 76.9493 201.203 77.4987 201.203 78.192V84H199.795V78.384C199.795 78.032 199.747 77.744 199.651 77.52C199.565 77.296 199.443 77.12 199.283 76.992C199.133 76.864 198.947 76.7733 198.723 76.72C198.509 76.6667 198.269 76.64 198.003 76.64C197.608 76.64 197.235 76.736 196.883 76.928C196.531 77.1093 196.248 77.3813 196.035 77.744C195.832 78.096 195.731 78.5333 195.731 79.056V84H194.323ZM203.338 84V75.584H204.474L204.602 76.976H204.714C204.8 76.7093 204.917 76.4587 205.066 76.224C205.216 75.9787 205.418 75.7813 205.674 75.632C205.93 75.472 206.245 75.392 206.618 75.392C206.778 75.392 206.922 75.408 207.05 75.44C207.189 75.4613 207.29 75.488 207.354 75.52V76.816H206.826C206.464 76.816 206.149 76.88 205.882 77.008C205.626 77.1253 205.413 77.296 205.242 77.52C205.072 77.744 204.944 78.0107 204.858 78.32C204.784 78.6293 204.746 78.96 204.746 79.312V84H203.338Z"
                    fill="#020F23" />
                <path
                    d="M12.3905 120.891C12.1405 121.141 12 121.48 12 121.833V122.5C12 128.023 16.4773 132.5 22 132.5H22.6667C23.0203 132.5 23.3594 132.36 23.6095 132.109C23.8595 131.859 24 131.52 24 131.167V128.981C24 128.841 23.956 128.704 23.8742 128.591C23.7923 128.477 23.6768 128.392 23.544 128.348L20.5487 127.349C20.3964 127.299 20.2311 127.305 20.0829 127.366C19.9347 127.428 19.8137 127.54 19.742 127.684L18.9887 129.189C17.3563 128.451 16.0489 127.144 15.3113 125.511L16.816 124.758C16.9595 124.686 17.0723 124.565 17.1338 124.417C17.1953 124.269 17.2013 124.104 17.1507 123.951L16.152 120.956C16.1078 120.823 16.023 120.708 15.9096 120.626C15.7961 120.544 15.6599 120.5 15.52 120.5H13.3333C12.9797 120.5 12.6406 120.64 12.3905 120.891Z"
                    stroke="#020F23" stroke-width="2" stroke-linecap="round" stroke-linejoin="round" />
                <path
                    d="M42.4 132V128.528H39.216V127.312H42.4V123.824H43.6V127.312H46.768V128.528H43.6V132H42.4ZM52.608 132.192C51.7547 132.192 51.0347 132.064 50.448 131.808C49.8613 131.541 49.4187 131.168 49.12 130.688C48.8213 130.208 48.672 129.637 48.672 128.976V128.768H50.096V128.976C50.096 129.637 50.304 130.144 50.72 130.496C51.1467 130.837 51.7333 131.008 52.48 131.008C53.2267 131.008 53.8293 130.848 54.288 130.528C54.7467 130.197 54.976 129.675 54.976 128.96C54.976 128.437 54.8533 128.037 54.608 127.76C54.3627 127.483 54.0427 127.291 53.648 127.184C53.264 127.067 52.8533 127.008 52.416 127.008H51.264V125.824H52.464C52.8693 125.824 53.2427 125.76 53.584 125.632C53.9253 125.504 54.1973 125.296 54.4 125.008C54.6133 124.709 54.72 124.325 54.72 123.856C54.72 123.429 54.624 123.083 54.432 122.816C54.2507 122.549 54 122.352 53.68 122.224C53.36 122.085 53.008 122.016 52.624 122.016C52.1973 122.016 51.8133 122.091 51.472 122.24C51.1307 122.379 50.8587 122.592 50.656 122.88C50.464 123.168 50.368 123.531 50.368 123.968V124.176H48.928V123.888C48.928 123.28 49.0827 122.747 49.392 122.288C49.712 121.829 50.144 121.472 50.688 121.216C51.2427 120.96 51.8773 120.832 52.592 120.832C53.296 120.832 53.9147 120.944 54.448 121.168C54.992 121.392 55.4187 121.723 55.728 122.16C56.0373 122.597 56.192 123.136 56.192 123.776C56.192 124.245 56.1067 124.645 55.936 124.976C55.7653 125.296 55.5413 125.563 55.264 125.776C54.9867 125.989 54.688 126.165 54.368 126.304V126.368C54.9547 126.539 55.4453 126.848 55.84 127.296C56.2347 127.744 56.432 128.331 56.432 129.056C56.432 129.707 56.2667 130.267 55.936 130.736C55.616 131.205 55.1627 131.568 54.576 131.824C54 132.069 53.344 132.192 52.608 132.192ZM61.7639 132.192C60.8572 132.192 60.1212 132.048 59.5559 131.76C58.9905 131.472 58.5745 131.088 58.3079 130.608C58.0519 130.128 57.9239 129.595 57.9239 129.008C57.9239 128.411 58.0732 127.883 58.3719 127.424C58.6705 126.965 59.1399 126.613 59.7799 126.368C59.2679 126.101 58.8785 125.749 58.6119 125.312C58.3559 124.875 58.2279 124.389 58.2279 123.856C58.2279 123.291 58.3559 122.784 58.6119 122.336C58.8785 121.877 59.2732 121.515 59.7959 121.248C60.3292 120.971 60.9852 120.832 61.7639 120.832C62.5425 120.832 63.1932 120.971 63.7159 121.248C64.2385 121.515 64.6332 121.877 64.8999 122.336C65.1665 122.784 65.2999 123.291 65.2999 123.856C65.2999 124.389 65.1665 124.875 64.8999 125.312C64.6332 125.749 64.2439 126.101 63.7319 126.368C64.3825 126.613 64.8519 126.965 65.1399 127.424C65.4385 127.883 65.5879 128.411 65.5879 129.008C65.5879 129.595 65.4545 130.128 65.1879 130.608C64.9319 131.088 64.5212 131.472 63.9559 131.76C63.4012 132.048 62.6705 132.192 61.7639 132.192ZM61.7639 131.024C62.5425 131.024 63.1292 130.843 63.5239 130.48C63.9185 130.117 64.1159 129.621 64.1159 128.992C64.1159 128.373 63.9185 127.883 63.5239 127.52C63.1292 127.157 62.5425 126.976 61.7639 126.976C60.9852 126.976 60.3932 127.157 59.9879 127.52C59.5932 127.883 59.3959 128.373 59.3959 128.992C59.3959 129.621 59.5932 130.117 59.9879 130.48C60.3932 130.843 60.9852 131.024 61.7639 131.024ZM61.7639 125.808C62.4145 125.808 62.9265 125.643 63.2999 125.312C63.6732 124.971 63.8599 124.496 63.8599 123.888C63.8599 123.291 63.6732 122.827 63.2999 122.496C62.9265 122.165 62.4145 122 61.7639 122C61.1132 122 60.6012 122.165 60.2279 122.496C59.8545 122.827 59.6679 123.291 59.6679 123.888C59.6679 124.496 59.8545 124.971 60.2279 125.312C60.6012 125.643 61.1132 125.808 61.7639 125.808ZM70.9994 132.192C70.2314 132.192 69.5594 132.048 68.9834 131.76C68.4074 131.472 67.9594 131.061 67.6394 130.528C67.3194 129.984 67.1594 129.339 67.1594 128.592H68.5834C68.5834 129.093 68.69 129.525 68.9034 129.888C69.1167 130.251 69.4047 130.528 69.7674 130.72C70.1407 130.912 70.5514 131.008 70.9994 131.008C71.458 131.008 71.8634 130.917 72.2154 130.736C72.5674 130.544 72.8394 130.256 73.0314 129.872C73.234 129.488 73.3354 129.003 73.3354 128.416C73.3354 127.883 73.2447 127.445 73.0634 127.104C72.882 126.752 72.6207 126.491 72.2794 126.32C71.9487 126.149 71.5647 126.064 71.1274 126.064C70.8074 126.064 70.5034 126.117 70.2154 126.224C69.9274 126.32 69.666 126.459 69.4314 126.64C69.2074 126.821 69.0207 127.045 68.8714 127.312L67.5434 127.104L68.0074 121.024H74.2314V122.336H69.2394L68.9834 125.76C69.1647 125.6 69.3674 125.456 69.5914 125.328C69.826 125.189 70.0927 125.083 70.3914 125.008C70.69 124.923 71.0314 124.88 71.4154 124.88C72.0447 124.88 72.6154 125.003 73.1274 125.248C73.6394 125.493 74.0447 125.872 74.3434 126.384C74.642 126.896 74.7914 127.557 74.7914 128.368C74.7914 129.168 74.6367 129.856 74.3274 130.432C74.0287 131.008 73.5967 131.445 73.0314 131.744C72.466 132.043 71.7887 132.192 70.9994 132.192ZM83.2438 132.192C82.4651 132.192 81.8304 132.043 81.3398 131.744C80.8491 131.445 80.4918 131.04 80.2678 130.528C80.0438 130.016 79.9318 129.44 79.9318 128.8H81.3718C81.3718 129.291 81.4411 129.701 81.5798 130.032C81.7291 130.363 81.9478 130.608 82.2358 130.768C82.5238 130.928 82.8864 131.008 83.3238 131.008C83.9744 131.008 84.4704 130.843 84.8118 130.512C85.1638 130.171 85.4091 129.68 85.5478 129.04C85.6864 128.4 85.7611 127.637 85.7718 126.752C85.6331 126.987 85.4251 127.211 85.1478 127.424C84.8704 127.627 84.5451 127.792 84.1718 127.92C83.8091 128.037 83.4198 128.096 83.0038 128.096C82.2144 128.096 81.5638 127.941 81.0518 127.632C80.5398 127.312 80.1558 126.88 79.8997 126.336C79.6544 125.792 79.5318 125.184 79.5318 124.512C79.5318 123.765 79.6918 123.12 80.0118 122.576C80.3318 122.021 80.7691 121.595 81.3238 121.296C81.8784 120.987 82.5024 120.832 83.1958 120.832C83.8251 120.832 84.3904 120.923 84.8918 121.104C85.3931 121.285 85.8144 121.579 86.1558 121.984C86.5078 122.389 86.7744 122.939 86.9558 123.632C87.1371 124.315 87.2278 125.168 87.2278 126.192C87.2278 127.312 87.1371 128.256 86.9558 129.024C86.7851 129.792 86.5291 130.411 86.1878 130.88C85.8464 131.339 85.4251 131.675 84.9238 131.888C84.4331 132.091 83.8731 132.192 83.2438 132.192ZM83.2918 126.928C83.8144 126.928 84.2464 126.816 84.5878 126.592C84.9398 126.368 85.2011 126.069 85.3718 125.696C85.5424 125.323 85.6278 124.907 85.6278 124.448C85.6278 124 85.5424 123.595 85.3718 123.232C85.2118 122.859 84.9558 122.565 84.6038 122.352C84.2624 122.128 83.8304 122.016 83.3078 122.016C82.7851 122.016 82.3531 122.133 82.0118 122.368C81.6704 122.592 81.4144 122.891 81.2438 123.264C81.0838 123.637 81.0038 124.059 81.0038 124.528C81.0038 124.965 81.0838 125.365 81.2438 125.728C81.4038 126.091 81.6491 126.384 81.9798 126.608C82.3211 126.821 82.7584 126.928 83.2918 126.928ZM89.0876 132V130.8H91.8556V123.2H89.0716V122.304C89.4663 122.272 89.8716 122.213 90.2876 122.128C90.7143 122.043 91.1303 121.909 91.5356 121.728C91.941 121.536 92.309 121.291 92.6396 120.992H93.2796V130.8H95.8876V132H89.0876ZM105.255 132V129.312H100.151V128.128C100.599 127.36 101.004 126.587 101.367 125.808C101.74 125.029 102.071 124.229 102.359 123.408C102.658 122.587 102.903 121.728 103.095 120.832H104.599C104.46 121.419 104.29 122.021 104.087 122.64C103.884 123.248 103.66 123.84 103.415 124.416C103.17 124.992 102.924 125.531 102.679 126.032C102.444 126.533 102.22 126.965 102.007 127.328C101.804 127.691 101.639 127.957 101.511 128.128H105.255V124.64C105.319 124.469 105.383 124.293 105.447 124.112C105.522 123.92 105.591 123.728 105.655 123.536C105.719 123.333 105.778 123.147 105.831 122.976C105.884 122.795 105.927 122.624 105.959 122.464H106.663V128.128H108.119V129.312H106.663V132H105.255ZM110.898 132C110.898 131.008 111.026 130.053 111.282 129.136C111.538 128.219 111.869 127.349 112.274 126.528C112.69 125.707 113.143 124.944 113.634 124.24C114.125 123.536 114.605 122.901 115.074 122.336H109.202V121.024H116.93V121.904C116.535 122.363 116.125 122.875 115.698 123.44C115.282 123.995 114.882 124.587 114.498 125.216C114.114 125.835 113.767 126.48 113.458 127.152C113.149 127.824 112.903 128.507 112.722 129.2C112.541 129.883 112.45 130.565 112.45 131.248V132H110.898ZM119.586 132C119.586 131.008 119.714 130.053 119.97 129.136C120.226 128.219 120.556 127.349 120.962 126.528C121.378 125.707 121.831 124.944 122.322 124.24C122.812 123.536 123.292 122.901 123.762 122.336H117.89V121.024H125.618V121.904C125.223 122.363 124.812 122.875 124.386 123.44C123.97 123.995 123.57 124.587 123.186 125.216C122.802 125.835 122.455 126.48 122.146 127.152C121.836 127.824 121.591 128.507 121.41 129.2C121.228 129.883 121.138 130.565 121.138 131.248V132H119.586ZM131.773 132C131.773 131.008 131.901 130.053 132.157 129.136C132.413 128.219 132.744 127.349 133.149 126.528C133.565 125.707 134.018 124.944 134.509 124.24C135 123.536 135.48 122.901 135.949 122.336H130.077V121.024H137.805V121.904C137.41 122.363 137 122.875 136.573 123.44C136.157 123.995 135.757 124.587 135.373 125.216C134.989 125.835 134.642 126.48 134.333 127.152C134.024 127.824 133.778 128.507 133.597 129.2C133.416 129.883 133.325 130.565 133.325 131.248V132H131.773ZM142.889 132.192C142.292 132.192 141.758 132.107 141.289 131.936C140.82 131.755 140.42 131.451 140.089 131.024C139.758 130.587 139.508 130.005 139.337 129.28C139.166 128.544 139.081 127.621 139.081 126.512C139.081 125.403 139.166 124.485 139.337 123.76C139.508 123.024 139.758 122.443 140.089 122.016C140.42 121.579 140.82 121.275 141.289 121.104C141.758 120.923 142.292 120.832 142.889 120.832C143.486 120.832 144.014 120.923 144.473 121.104C144.942 121.275 145.342 121.579 145.673 122.016C146.004 122.443 146.254 123.024 146.425 123.76C146.596 124.485 146.681 125.403 146.681 126.512C146.681 127.621 146.596 128.544 146.425 129.28C146.254 130.005 146.004 130.587 145.673 131.024C145.342 131.451 144.942 131.755 144.473 131.936C144.014 132.107 143.486 132.192 142.889 132.192ZM142.889 131.008C143.497 131.008 143.966 130.853 144.297 130.544C144.638 130.235 144.873 129.776 145.001 129.168C145.14 128.56 145.209 127.803 145.209 126.896V126.16C145.209 125.243 145.14 124.48 145.001 123.872C144.873 123.253 144.638 122.789 144.297 122.48C143.966 122.171 143.497 122.016 142.889 122.016C142.281 122.016 141.806 122.171 141.465 122.48C141.124 122.789 140.884 123.248 140.745 123.856C140.617 124.464 140.553 125.227 140.553 126.144V126.864C140.553 127.771 140.617 128.533 140.745 129.152C140.884 129.771 141.124 130.235 141.465 130.544C141.806 130.853 142.281 131.008 142.889 131.008ZM148.269 132V131.536C148.269 131.088 148.354 130.677 148.525 130.304C148.706 129.92 148.941 129.573 149.229 129.264C149.527 128.944 149.863 128.64 150.237 128.352C150.61 128.064 150.989 127.781 151.373 127.504C151.895 127.141 152.375 126.779 152.813 126.416C153.261 126.053 153.618 125.664 153.885 125.248C154.151 124.821 154.285 124.347 154.285 123.824C154.285 123.493 154.205 123.195 154.045 122.928C153.895 122.651 153.666 122.432 153.357 122.272C153.047 122.112 152.653 122.032 152.173 122.032C151.607 122.032 151.154 122.128 150.813 122.32C150.471 122.512 150.221 122.768 150.061 123.088C149.911 123.408 149.837 123.76 149.837 124.144V124.8H148.445C148.434 124.747 148.423 124.667 148.413 124.56C148.402 124.443 148.397 124.309 148.397 124.16C148.397 123.371 148.573 122.736 148.925 122.256C149.277 121.765 149.746 121.408 150.333 121.184C150.919 120.949 151.554 120.832 152.237 120.832C152.845 120.832 153.367 120.917 153.805 121.088C154.242 121.248 154.605 121.472 154.893 121.76C155.181 122.048 155.394 122.379 155.533 122.752C155.671 123.115 155.741 123.499 155.741 123.904C155.741 124.405 155.65 124.864 155.469 125.28C155.298 125.696 155.053 126.085 154.733 126.448C154.423 126.8 154.055 127.141 153.629 127.472C153.213 127.803 152.759 128.139 152.269 128.48C151.927 128.704 151.591 128.944 151.261 129.2C150.93 129.445 150.647 129.696 150.413 129.952C150.178 130.208 150.029 130.453 149.965 130.688H155.805V132H148.269ZM161.139 132.192C160.542 132.192 160.008 132.107 159.539 131.936C159.07 131.755 158.67 131.451 158.339 131.024C158.008 130.587 157.758 130.005 157.587 129.28C157.416 128.544 157.331 127.621 157.331 126.512C157.331 125.403 157.416 124.485 157.587 123.76C157.758 123.024 158.008 122.443 158.339 122.016C158.67 121.579 159.07 121.275 159.539 121.104C160.008 120.923 160.542 120.832 161.139 120.832C161.736 120.832 162.264 120.923 162.723 121.104C163.192 121.275 163.592 121.579 163.923 122.016C164.254 122.443 164.504 123.024 164.675 123.76C164.846 124.485 164.931 125.403 164.931 126.512C164.931 127.621 164.846 128.544 164.675 129.28C164.504 130.005 164.254 130.587 163.923 131.024C163.592 131.451 163.192 131.755 162.723 131.936C162.264 132.107 161.736 132.192 161.139 132.192ZM161.139 131.008C161.747 131.008 162.216 130.853 162.547 130.544C162.888 130.235 163.123 129.776 163.251 129.168C163.39 128.56 163.459 127.803 163.459 126.896V126.16C163.459 125.243 163.39 124.48 163.251 123.872C163.123 123.253 162.888 122.789 162.547 122.48C162.216 122.171 161.747 122.016 161.139 122.016C160.531 122.016 160.056 122.171 159.715 122.48C159.374 122.789 159.134 123.248 158.995 123.856C158.867 124.464 158.803 125.227 158.803 126.144V126.864C158.803 127.771 158.867 128.533 158.995 129.152C159.134 129.771 159.374 130.235 159.715 130.544C160.056 130.853 160.531 131.008 161.139 131.008Z"
                    fill="#020F23" />
            </svg>